{"glyphs":{"0":{"ha":760,"x_min":53,"x_max":707,"o":"m 380 941 q 563 865 478 941 q 675 681 638 797 q 707 463 707 583 q 621 128 707 262 q 516 25 581 66 q 380 -16 451 -16 q 196 61 281 -16 q 84 245 121 128 q 53 469 53 342 q 139 798 53 667 q 243 901 180 861 q 380 941 309 941 m 380 814 q 248 723 297 814 q 190 459 190 612 q 248 204 190 315 q 380 112 297 112 q 511 204 463 112 q 570 463 570 315 q 511 723 570 615 q 380 814 461 814 z "},"1":{"ha":505,"x_min":62,"x_max":340,"o":"m 200 795 l 114 795 q 78 799 87 795 q 62 824 62 806 q 77 859 62 833 l 98 893 q 119 922 113 918 q 155 926 125 926 l 289 926 q 331 917 321 926 q 340 875 340 907 l 340 51 q 331 9 340 18 q 289 0 322 0 l 251 0 q 209 9 218 0 q 200 51 200 18 l 200 795 z "},"2":{"ha":720,"x_min":32,"x_max":623,"o":"m 278 132 l 572 132 q 614 123 605 132 q 623 81 623 114 l 623 51 q 614 9 623 18 q 572 0 605 0 l 86 0 q 50 5 58 0 q 35 29 35 12 q 56 66 35 41 l 322 389 q 451 561 418 505 q 485 663 485 618 q 430 779 485 734 q 327 814 386 814 q 220 774 264 814 q 172 686 179 738 q 159 655 168 662 q 119 649 150 649 l 83 649 q 43 656 51 649 q 32 680 32 665 q 53 763 32 711 q 155 892 86 845 q 323 941 226 941 q 538 858 452 941 q 621 662 621 777 q 581 514 621 587 q 422 302 541 442 l 278 132 z "},"3":{"ha":755,"x_min":47,"x_max":633,"o":"m 519 488 q 633 269 633 420 q 534 50 633 130 q 335 -16 452 -16 q 106 82 188 -16 q 64 151 81 112 q 47 219 47 190 q 58 244 47 237 q 98 251 68 251 l 134 251 q 172 245 163 251 q 186 218 181 239 q 240 143 194 174 q 340 112 286 112 q 462 168 416 112 q 496 274 496 210 q 444 397 496 353 q 347 429 407 427 q 317 439 324 429 q 309 480 309 449 l 309 498 q 317 539 309 529 q 347 549 324 549 q 451 588 417 549 q 484 680 484 626 q 443 778 484 741 q 342 814 404 814 q 213 713 237 814 q 199 694 209 699 q 163 690 190 690 l 125 690 q 85 695 94 690 q 76 720 76 701 q 104 812 76 758 q 345 941 171 941 q 547 865 474 941 q 620 686 620 791 q 519 488 620 559 z "},"4":{"ha":731,"x_min":12,"x_max":677,"o":"m 579 258 l 627 258 q 669 250 659 258 q 677 208 677 241 l 677 182 q 669 140 677 149 q 627 132 659 132 l 579 132 l 579 51 q 570 9 579 18 q 528 0 562 0 l 490 0 q 448 9 457 0 q 439 51 439 18 l 439 132 l 63 132 q 27 136 36 132 q 12 160 12 144 q 29 196 12 172 l 512 897 q 549 927 533 927 q 572 916 566 927 q 579 876 579 905 l 579 258 m 439 258 l 439 578 l 219 258 l 439 258 z "},"5":{"ha":749,"x_min":24,"x_max":651,"o":"m 352 795 l 306 641 q 342 644 326 644 q 475 617 418 644 q 605 496 557 580 q 651 321 651 416 q 542 69 651 165 q 305 -16 445 -16 q 36 123 132 -16 q 24 151 24 141 q 27 166 24 161 q 50 188 31 172 l 78 212 q 113 232 102 232 q 136 218 127 232 q 178 166 161 182 q 317 112 236 112 q 469 184 412 112 q 515 317 515 242 q 452 469 515 409 q 318 521 398 521 q 234 505 269 521 q 164 449 199 488 q 146 439 156 440 q 128 448 137 439 q 119 467 119 457 q 126 498 119 475 l 242 884 q 259 920 251 914 q 297 926 267 926 l 586 926 q 628 917 619 926 q 637 875 637 908 l 637 846 q 628 804 637 812 q 586 795 619 795 l 352 795 z "},"6":{"ha":759,"x_min":68,"x_max":690,"o":"m 363 581 q 414 585 392 585 q 594 514 516 585 q 690 294 690 425 q 589 65 690 158 q 382 -16 501 -16 q 154 81 248 -16 q 68 286 68 170 q 159 519 68 395 l 452 917 q 472 942 467 937 q 489 946 478 946 q 523 928 498 946 l 544 911 q 568 891 563 897 q 572 874 572 885 q 555 840 572 865 l 363 581 m 379 461 q 256 410 307 461 q 204 287 204 359 q 256 163 204 215 q 379 113 307 113 q 503 163 452 113 q 554 290 554 215 q 503 410 554 360 q 379 461 451 461 z "},"7":{"ha":716,"x_min":50,"x_max":717,"o":"m 507 795 l 101 795 q 59 804 68 795 q 50 846 50 813 l 50 875 q 59 917 50 907 q 101 926 68 926 l 666 926 q 702 922 692 926 q 717 897 717 914 q 701 862 717 886 l 182 12 q 163 -15 170 -9 q 145 -20 157 -20 q 113 -5 137 -20 l 87 11 q 62 31 67 24 q 56 49 56 37 q 71 81 56 56 l 507 795 z "},"8":{"ha":760,"x_min":89,"x_max":670,"o":"m 214 481 q 112 677 112 553 q 193 869 112 791 q 383 941 269 941 q 589 851 511 941 q 652 677 652 778 q 551 482 652 557 q 638 395 606 452 q 670 265 670 337 q 584 57 670 140 q 384 -16 508 -16 q 226 24 298 -16 q 120 134 157 62 q 89 263 89 193 q 121 395 89 338 q 214 481 154 452 m 382 814 q 284 774 324 814 q 243 675 243 733 q 284 578 243 618 q 382 538 326 538 q 479 578 439 538 q 520 676 520 619 q 479 774 520 734 q 382 814 438 814 m 380 420 q 271 376 315 420 q 226 264 226 330 q 271 157 226 203 q 379 112 315 112 q 488 157 444 112 q 533 267 533 203 q 488 376 533 331 q 380 420 442 420 z "},"9":{"ha":759,"x_min":68,"x_max":690,"o":"m 395 346 q 344 341 365 341 q 164 413 242 341 q 68 632 68 500 q 170 861 68 768 q 376 941 258 941 q 604 845 510 941 q 690 640 690 756 q 600 407 690 531 l 307 9 q 286 -16 292 -12 q 269 -20 280 -20 q 235 -2 260 -20 l 214 14 q 190 35 194 29 q 185 52 185 41 q 203 85 185 61 l 395 346 m 379 814 q 256 764 306 814 q 204 637 204 712 q 256 516 204 568 q 379 465 306 465 q 503 516 452 465 q 554 640 554 568 q 503 764 554 713 q 379 814 450 814 z "}," ":{"ha":347,"x_min":0,"x_max":0,"o":""}," ":{"ha":347,"x_min":0,"x_max":0,"o":""},"!":{"ha":408,"x_min":120,"x_max":287,"o":"m 203 150 q 262 125 238 150 q 287 66 287 101 q 262 7 287 31 q 203 -18 238 -18 q 144 7 169 -18 q 120 67 120 32 q 145 125 120 101 q 203 150 170 150 m 136 257 l 136 875 q 144 917 136 908 q 186 926 153 926 l 220 926 q 262 917 253 926 q 271 875 271 908 l 271 257 q 262 215 271 224 q 220 206 253 206 l 186 206 q 144 215 153 206 q 136 257 136 224 z "},"\"":{"ha":504,"x_min":68,"x_max":435,"o":"m 144 553 l 140 553 q 98 562 107 553 q 87 602 90 570 l 68 873 q 68 893 68 886 q 78 919 68 913 q 118 926 88 926 l 165 926 q 206 919 196 926 q 216 892 216 913 q 215 873 216 885 l 196 602 q 185 562 194 570 q 144 553 176 553 m 363 553 l 359 553 q 318 562 327 553 q 307 602 309 570 l 288 873 q 287 893 287 888 q 297 919 287 913 q 338 926 307 926 l 385 926 q 426 919 416 926 q 435 892 435 913 q 435 873 435 888 l 416 602 q 405 562 414 570 q 363 553 396 553 z "},"#":{"ha":770,"x_min":31,"x_max":742,"o":"m 596 560 l 574 389 l 657 389 q 699 380 690 389 q 708 336 708 370 l 708 320 q 698 290 708 298 q 657 283 688 283 l 561 283 l 532 46 q 522 9 528 18 q 500 -1 516 -1 q 475 2 494 -1 l 471 3 q 434 13 443 7 q 425 35 425 19 q 427 60 425 41 l 454 283 l 277 283 l 247 46 q 237 9 243 18 q 215 -1 231 -1 q 190 2 208 -1 l 184 3 q 147 13 157 6 q 138 35 138 20 q 140 60 138 40 l 168 285 l 82 285 q 41 292 52 285 q 31 322 31 300 l 31 336 l 31 351 q 41 381 31 374 q 82 389 52 389 l 183 389 l 204 560 l 117 560 q 75 569 83 560 q 66 613 66 578 l 66 629 q 76 659 66 652 q 117 666 85 666 l 218 666 l 244 884 q 254 920 248 911 q 277 930 260 930 q 301 927 281 930 l 305 927 q 341 917 332 924 q 351 895 351 910 q 349 870 351 886 l 324 666 l 500 666 l 528 884 q 538 921 532 911 q 560 930 544 930 q 585 927 566 930 l 589 927 q 626 917 617 923 q 635 895 635 910 q 633 870 635 889 l 608 666 l 691 666 q 733 657 724 666 q 742 613 742 648 l 742 597 q 732 568 742 575 q 691 560 722 560 l 596 560 m 488 560 l 311 560 l 290 389 l 467 389 l 488 560 z "},"$":{"ha":734,"x_min":62,"x_max":654,"o":"m 431 939 q 610 823 548 921 q 621 796 621 806 q 615 778 621 784 q 588 760 610 772 l 559 743 q 526 729 534 729 q 496 751 509 729 q 446 798 478 781 q 377 814 414 814 q 291 783 326 814 q 256 706 256 752 q 284 635 256 663 q 395 570 312 607 q 572 467 521 512 q 632 381 610 432 q 654 275 654 330 q 593 95 654 172 q 431 -10 532 17 l 431 -83 q 423 -124 431 -114 q 393 -134 416 -134 l 378 -134 l 363 -134 q 334 -124 341 -134 q 326 -83 326 -114 l 326 -14 q 109 114 175 12 q 78 179 94 139 q 62 235 62 219 q 71 257 62 250 q 106 269 79 263 l 140 276 q 168 281 162 281 q 197 254 190 281 q 362 119 237 119 q 479 169 435 119 q 516 270 516 210 q 480 366 516 330 q 332 452 444 401 q 242 497 268 481 q 193 534 216 513 q 140 612 159 566 q 121 705 121 657 q 175 852 121 791 q 326 939 229 914 l 326 1006 q 334 1047 326 1038 q 363 1057 341 1057 l 378 1057 l 393 1057 q 423 1047 416 1057 q 431 1006 431 1038 l 431 939 z "},"%":{"ha":1125,"x_min":46,"x_max":1078,"o":"m 269 935 q 437 859 370 935 q 492 717 492 797 q 420 557 492 623 q 267 499 357 499 q 101 575 168 499 q 46 721 46 637 q 119 877 46 810 q 269 935 182 935 m 269 836 q 185 801 220 836 q 151 715 151 766 q 186 633 151 667 q 269 598 221 598 q 353 633 319 598 q 388 717 388 668 q 353 801 388 766 q 269 836 319 836 m 835 860 l 356 29 q 349 18 352 22 q 319 -4 337 -4 q 290 9 304 -4 q 275 35 275 22 q 290 68 275 43 l 770 898 q 788 925 782 919 q 806 930 795 930 q 835 918 821 930 q 849 892 849 906 q 835 860 849 885 m 855 428 q 1023 352 956 428 q 1078 209 1078 289 q 1006 49 1078 115 q 853 -9 942 -9 q 687 66 753 -9 q 632 212 632 130 q 705 369 632 302 q 855 428 768 428 m 855 328 q 771 293 806 328 q 736 208 736 258 q 772 125 736 160 q 855 90 807 90 q 939 125 904 90 q 974 210 974 160 q 939 293 974 258 q 855 328 905 328 z "},"&":{"ha":897,"x_min":74,"x_max":864,"o":"m 474 515 l 641 313 q 685 363 667 342 q 727 411 719 404 q 746 418 735 418 q 782 395 759 418 l 803 374 q 825 337 825 350 q 804 300 825 327 q 726 212 783 273 l 844 66 q 864 28 864 41 q 852 6 864 13 q 813 0 841 0 l 758 0 q 725 3 730 0 q 701 27 719 5 l 631 113 q 553 47 597 77 q 460 -4 501 10 q 366 -18 419 -18 q 143 77 227 -18 q 74 256 74 155 q 182 467 74 378 l 280 537 q 189 730 189 635 q 252 885 189 822 q 410 941 309 941 q 570 882 511 941 q 631 740 631 823 q 597 632 631 680 q 474 515 563 583 m 363 436 q 283 378 311 400 q 208 260 208 317 q 255 155 208 201 q 359 109 301 109 q 446 133 403 109 q 547 214 490 158 l 363 436 m 393 613 q 452 659 433 644 q 499 743 499 697 q 474 802 499 779 q 409 825 449 825 q 345 802 371 825 q 319 745 319 779 q 352 665 319 704 q 393 613 389 620 z "},"'":{"ha":284,"x_min":68,"x_max":216,"o":"m 144 553 l 140 553 q 98 562 107 553 q 87 602 90 570 l 68 873 q 68 893 68 886 q 78 919 68 913 q 118 926 88 926 l 165 926 q 206 919 196 926 q 216 892 216 913 q 215 873 216 885 l 196 602 q 185 562 194 570 q 144 553 176 553 z "},"(":{"ha":450,"x_min":111,"x_max":357,"o":"m 288 1006 l 319 994 q 350 978 342 985 q 357 959 357 971 q 340 909 357 948 q 267 632 292 801 q 248 383 248 505 q 273 94 248 237 q 340 -142 298 -50 q 357 -193 357 -182 q 350 -212 357 -205 q 319 -227 342 -218 l 288 -239 q 256 -249 263 -249 q 222 -214 237 -249 q 141 59 172 -104 q 111 383 111 222 q 143 714 111 546 q 224 987 174 882 q 256 1015 238 1015 q 288 1006 263 1015 z "},")":{"ha":450,"x_min":93,"x_max":339,"o":"m 163 -239 l 132 -227 q 100 -212 108 -218 q 93 -193 93 -205 q 111 -142 93 -182 q 184 134 159 -34 q 202 383 202 260 q 177 672 202 530 q 111 909 153 814 q 93 959 93 948 q 100 978 93 971 q 132 994 108 985 l 163 1006 q 194 1015 187 1015 q 229 981 213 1015 q 309 707 279 870 q 339 383 339 544 q 308 52 339 220 q 226 -220 276 -116 q 194 -249 212 -249 q 163 -239 187 -249 z "},"*":{"ha":787,"x_min":163,"x_max":625,"o":"m 342 850 l 336 960 q 340 1000 334 991 q 354 1010 347 1008 q 386 1013 362 1013 l 401 1013 q 442 1006 432 1013 q 452 979 452 1000 q 451 960 452 977 l 444 851 l 547 890 q 578 900 571 900 q 597 892 591 900 q 612 860 604 884 l 616 846 q 625 814 625 822 q 616 795 625 802 q 582 782 608 789 l 476 754 l 545 669 q 565 635 565 646 q 560 617 565 624 q 536 597 555 611 l 524 589 q 490 571 499 571 q 472 576 479 571 q 453 602 466 582 l 393 694 l 334 602 q 315 576 321 582 q 297 571 309 571 q 263 589 288 571 l 251 597 q 227 618 231 612 q 222 635 222 624 q 241 669 222 645 l 311 754 l 205 782 q 171 795 180 789 q 163 814 163 802 q 170 846 163 822 l 175 859 q 190 892 183 884 q 209 900 196 900 q 241 890 216 900 l 342 850 z "},"+":{"ha":745,"x_min":53,"x_max":692,"o":"m 317 537 l 317 745 q 326 787 317 779 q 368 796 334 796 l 377 796 q 419 787 410 796 q 428 745 428 779 l 428 537 l 641 537 q 683 528 674 537 q 692 486 692 519 l 692 477 q 683 435 692 444 q 641 426 674 426 l 428 426 l 428 218 q 419 176 428 184 q 377 167 410 167 l 368 167 q 326 176 334 167 q 317 218 317 184 l 317 426 l 104 426 q 62 435 71 426 q 53 477 53 444 l 53 486 q 62 528 53 519 q 104 537 71 537 l 317 537 z "},",":{"ha":352,"x_min":22,"x_max":263,"o":"m 201 155 l 224 146 q 256 130 248 137 q 263 112 263 123 q 251 79 263 103 l 125 -173 q 108 -201 115 -195 q 90 -208 102 -208 q 71 -203 83 -208 q 47 -193 63 -199 q 22 -164 22 -183 q 31 -132 22 -156 l 136 127 q 152 157 145 150 q 170 165 158 165 q 201 155 177 165 z "},"-":{"ha":268,"x_min":0,"x_max":268,"o":"m 51 355 l 216 355 q 258 347 250 355 q 268 304 268 338 l 268 289 q 258 247 268 256 q 216 238 250 238 l 51 238 q 9 247 18 238 q 0 289 0 256 l 0 304 q 9 347 0 338 q 51 355 18 355 z "},"­":{"ha":268,"x_min":0,"x_max":268,"o":"m 51 355 l 216 355 q 258 347 250 355 q 268 304 268 338 l 268 289 q 258 247 268 256 q 216 238 250 238 l 51 238 q 9 247 18 238 q 0 289 0 256 l 0 304 q 9 347 0 338 q 51 355 18 355 z "},"‑":{"ha":268,"x_min":0,"x_max":268,"o":"m 51 355 l 216 355 q 258 347 250 355 q 268 304 268 338 l 268 289 q 258 247 268 256 q 216 238 250 238 l 51 238 q 9 247 18 238 q 0 289 0 256 l 0 304 q 9 347 0 338 q 51 355 18 355 z "},".":{"ha":351,"x_min":92,"x_max":259,"o":"m 176 150 q 235 125 210 150 q 259 66 259 101 q 235 7 259 31 q 176 -18 210 -18 q 117 7 141 -18 q 92 67 92 32 q 117 125 92 101 q 176 150 142 150 z "},"/":{"ha":637,"x_min":3,"x_max":619,"o":"m 599 897 l 134 -176 q 101 -237 114 -224 q 63 -250 89 -250 q 21 -233 39 -250 q 3 -195 3 -216 q 23 -128 3 -176 l 487 945 q 520 1006 507 993 q 559 1019 533 1019 q 601 1002 583 1019 q 619 963 619 985 q 599 897 619 945 z "},":":{"ha":351,"x_min":92,"x_max":259,"o":"m 176 150 q 235 125 210 150 q 259 66 259 101 q 235 7 259 31 q 176 -18 210 -18 q 117 7 141 -18 q 92 67 92 32 q 117 125 92 101 q 176 150 142 150 m 176 600 q 235 576 210 600 q 259 517 259 551 q 235 458 259 482 q 176 433 210 433 q 117 458 141 433 q 92 518 92 483 q 117 576 92 551 q 176 600 142 600 z "},";":{"ha":351,"x_min":22,"x_max":288,"o":"m 201 155 l 224 146 q 256 130 248 137 q 263 112 263 123 q 251 79 263 103 l 125 -173 q 108 -201 115 -195 q 90 -208 102 -208 q 71 -203 83 -208 q 47 -193 63 -199 q 22 -164 22 -183 q 31 -132 22 -156 l 136 127 q 152 157 145 150 q 170 165 158 165 q 201 155 177 165 m 205 600 q 264 576 239 600 q 288 517 288 551 q 264 458 288 482 q 205 433 239 433 q 146 458 170 433 q 121 517 121 483 q 146 576 121 551 q 205 600 171 600 z "},"<":{"ha":694,"x_min":46,"x_max":648,"o":"m 648 823 l 648 685 l 193 470 l 648 254 l 648 117 l 46 411 l 46 529 l 648 823 z "},"=":{"ha":745,"x_min":53,"x_max":692,"o":"m 104 629 l 641 629 q 682 622 671 629 q 692 593 692 615 q 692 574 692 575 q 683 536 692 545 q 641 528 673 528 l 104 528 q 63 535 73 528 q 53 565 53 543 l 53 578 l 53 592 q 63 622 53 614 q 104 629 73 629 m 104 435 l 641 435 q 683 427 674 435 q 692 380 692 417 q 683 341 692 349 q 641 334 675 334 l 104 334 q 63 341 73 334 q 53 371 53 349 l 53 385 l 53 398 q 63 428 53 420 q 104 435 73 435 z "},">":{"ha":694,"x_min":47,"x_max":648,"o":"m 47 117 l 47 255 l 501 470 l 47 685 l 47 822 l 648 528 l 648 410 l 47 117 z "},"?":{"ha":601,"x_min":73,"x_max":527,"o":"m 417 432 l 452 432 q 493 426 482 432 q 503 401 503 419 q 469 302 503 350 q 394 237 441 262 q 296 213 346 213 q 147 277 208 213 q 92 421 92 336 q 129 532 92 490 q 255 607 166 574 q 357 651 335 636 q 391 720 391 674 q 366 785 391 760 q 300 810 340 810 q 233 785 258 810 q 209 718 209 761 q 210 705 209 713 q 211 700 211 702 q 200 676 211 682 q 160 669 189 669 l 125 669 q 82 678 92 669 q 73 720 73 687 q 100 827 73 779 q 182 909 129 879 q 298 939 235 939 q 467 869 399 939 q 527 716 527 808 q 490 592 527 647 q 427 533 465 555 q 305 486 389 511 q 245 455 263 473 q 227 410 227 438 q 248 360 227 380 q 298 340 269 340 q 345 356 329 340 q 366 406 361 372 q 378 427 368 422 q 417 432 389 432 m 301 150 q 360 125 336 150 q 385 66 385 101 q 360 7 385 31 q 301 -18 336 -18 q 242 7 267 -18 q 218 67 218 32 q 242 125 218 101 q 301 150 267 150 z "},"@":{"ha":1081,"x_min":65,"x_max":1017,"o":"m 674 269 q 597 210 634 227 q 510 193 559 193 q 345 264 410 193 q 280 445 280 336 q 361 648 280 570 q 535 717 433 717 q 698 639 635 717 l 700 659 q 712 698 704 690 q 748 705 720 705 q 782 698 772 705 q 792 675 792 691 q 790 651 792 667 l 759 391 q 755 327 755 357 q 792 283 755 283 q 829 294 812 283 q 890 362 867 319 q 928 522 928 436 q 821 768 928 675 q 564 859 716 859 q 281 743 395 859 q 170 465 170 629 q 269 199 170 309 q 577 74 380 74 q 835 130 721 74 q 862 138 854 138 q 883 129 875 138 q 895 104 888 123 q 902 77 902 85 q 888 54 902 64 q 871 45 883 50 q 561 -16 724 -16 q 302 49 418 -16 q 133 215 197 109 q 65 464 65 329 q 132 708 65 597 q 302 874 194 812 q 562 942 421 942 q 813 877 698 942 q 961 734 907 824 q 1017 529 1017 641 q 965 326 1017 420 q 860 216 922 248 q 779 195 819 195 q 674 269 702 195 m 542 604 q 443 557 482 604 q 404 439 404 511 q 435 336 404 377 q 515 296 466 296 q 627 350 580 296 q 674 476 674 404 q 634 568 674 533 q 542 604 594 604 z "},"A":{"ha":909,"x_min":22,"x_max":888,"o":"m 654 225 l 258 225 l 172 37 q 166 24 167 26 q 151 4 159 7 q 115 0 142 0 l 73 0 q 37 4 46 0 q 22 28 22 11 q 33 62 22 37 l 426 905 q 443 935 437 928 q 462 941 450 941 q 481 935 475 941 q 498 905 488 928 l 877 62 q 888 28 888 37 q 877 6 888 12 q 837 0 865 0 l 792 0 q 754 5 762 0 q 735 37 747 9 l 654 225 m 597 357 l 460 671 l 316 357 l 597 357 z "},"B":{"ha":726,"x_min":111,"x_max":661,"o":"m 502 498 q 587 448 552 481 q 661 265 661 376 q 568 66 661 144 q 470 15 523 29 q 323 0 416 0 l 162 0 q 120 9 129 0 q 111 51 111 18 l 111 875 q 120 917 111 908 q 162 926 129 926 l 250 926 q 384 915 333 926 q 473 878 435 904 q 552 781 523 844 q 578 667 578 726 q 502 498 578 567 m 251 528 l 294 528 q 406 561 373 528 q 446 665 446 600 q 407 765 446 728 q 300 798 374 798 l 251 798 l 251 528 m 251 132 l 338 132 q 466 161 423 132 q 508 208 492 178 q 524 270 524 238 q 508 332 524 302 q 467 380 492 363 q 321 411 422 411 l 251 411 l 251 132 z "},"C":{"ha":860,"x_min":65,"x_max":795,"o":"m 795 838 l 795 793 q 770 741 795 741 q 745 750 762 741 q 634 801 668 790 q 548 812 600 812 q 283 685 383 812 q 206 460 206 587 q 319 201 206 301 q 545 114 416 114 q 647 129 602 114 q 749 182 692 144 q 770 191 762 191 q 795 139 795 191 l 795 90 q 786 47 795 56 q 722 16 772 35 q 544 -18 638 -18 q 313 41 419 -18 q 117 243 184 111 q 65 458 65 345 q 121 684 65 577 q 307 878 187 809 q 555 943 419 943 q 770 890 677 943 q 792 872 789 880 q 795 838 795 865 z "},"D":{"ha":892,"x_min":111,"x_max":827,"o":"m 111 51 l 111 875 q 120 917 111 907 q 162 926 130 926 l 306 926 q 540 894 454 926 q 770 697 692 838 q 827 463 827 594 q 642 89 827 222 q 498 19 571 38 q 303 0 426 0 l 162 0 q 120 9 129 0 q 111 51 111 18 m 251 132 l 314 132 q 455 147 398 132 q 559 198 511 162 q 654 315 621 244 q 686 463 686 382 q 624 664 686 576 q 502 763 575 732 q 314 794 428 794 l 251 794 l 251 132 z "},"E":{"ha":694,"x_min":111,"x_max":623,"o":"m 251 794 l 251 572 l 560 572 q 602 564 593 572 q 611 522 611 555 l 611 492 q 602 450 611 459 q 560 441 593 441 l 251 441 l 251 132 l 571 132 q 613 123 604 132 q 623 81 623 114 l 623 51 q 613 9 623 18 q 571 0 604 0 l 162 0 q 120 9 129 0 q 111 51 111 18 l 111 875 q 120 917 111 907 q 162 926 130 926 l 571 926 q 613 917 604 926 q 623 875 623 907 l 623 845 q 613 803 623 812 q 571 794 604 794 l 251 794 z "},"F":{"ha":624,"x_min":111,"x_max":573,"o":"m 251 794 l 251 572 l 511 572 q 553 564 544 572 q 562 522 562 555 l 562 492 q 553 450 562 459 q 511 441 544 441 l 251 441 l 251 51 q 242 9 251 18 q 200 0 233 0 l 162 0 q 120 9 129 0 q 111 51 111 18 l 111 875 q 120 917 111 907 q 162 926 130 926 l 522 926 q 564 917 555 926 q 573 875 573 907 l 573 845 q 564 803 573 812 q 522 794 555 794 l 251 794 z "},"G":{"ha":1035,"x_min":65,"x_max":970,"o":"m 819 351 l 638 351 q 596 359 606 351 q 587 401 587 369 l 587 431 q 596 473 587 464 q 638 482 606 482 l 919 482 q 961 475 951 482 q 970 446 970 468 q 923 213 970 303 q 782 56 872 116 q 536 -18 671 -18 q 315 39 419 -18 q 115 246 183 111 q 65 461 65 347 q 140 722 65 604 q 327 890 210 831 q 549 943 431 943 q 903 784 752 943 q 917 758 917 770 q 893 721 917 744 l 868 697 q 832 675 845 675 q 804 692 817 675 q 693 779 762 746 q 551 812 624 812 q 299 705 402 812 q 205 461 205 608 q 316 207 205 306 q 541 114 420 114 q 727 183 646 114 q 819 351 808 253 z "},"H":{"ha":901,"x_min":111,"x_max":790,"o":"m 251 564 l 650 564 l 650 875 q 659 917 650 908 q 701 926 668 926 l 739 926 q 781 917 772 926 q 790 875 790 908 l 790 51 q 781 9 790 18 q 739 0 772 0 l 701 0 q 659 9 669 0 q 650 51 650 18 l 650 432 l 251 432 l 251 51 q 242 9 251 18 q 200 0 233 0 l 162 0 q 120 9 129 0 q 111 51 111 18 l 111 875 q 120 917 111 908 q 162 926 129 926 l 200 926 q 242 917 233 926 q 251 875 251 908 l 251 564 z "},"I":{"ha":362,"x_min":111,"x_max":251,"o":"m 251 875 l 251 51 q 242 9 251 18 q 200 0 233 0 l 162 0 q 120 9 129 0 q 111 51 111 18 l 111 875 q 120 917 111 908 q 162 926 129 926 l 200 926 q 242 917 233 926 q 251 875 251 908 z "},"J":{"ha":504,"x_min":-12,"x_max":393,"o":"m 393 875 l 393 327 q 376 161 393 218 q 290 29 351 76 q 142 -18 229 -18 q 33 -1 78 -18 q -12 41 -12 16 q 3 73 -12 49 l 20 104 q 39 132 33 126 q 57 138 45 138 q 72 134 63 138 q 113 117 102 120 q 140 114 123 114 q 239 184 215 114 q 253 327 253 224 l 253 875 q 262 917 253 908 q 304 926 271 926 l 342 926 q 384 917 374 926 q 393 875 393 908 z "},"K":{"ha":814,"x_min":111,"x_max":766,"o":"m 251 556 l 588 902 q 612 924 607 922 q 644 926 617 926 l 704 926 q 744 919 732 926 q 755 895 755 912 q 731 859 755 883 l 380 507 l 745 66 q 766 29 766 41 q 754 6 766 13 q 715 0 743 0 l 648 0 q 614 3 620 0 q 591 27 608 5 l 280 412 l 251 383 l 251 51 q 242 9 251 18 q 200 0 233 0 l 162 0 q 120 9 129 0 q 111 51 111 18 l 111 875 q 120 917 111 908 q 162 926 129 926 l 200 926 q 242 917 233 926 q 251 875 251 908 l 251 556 z "},"L":{"ha":545,"x_min":111,"x_max":523,"o":"m 251 132 l 472 132 q 514 123 505 132 q 523 81 523 114 l 523 51 q 514 9 523 18 q 472 0 505 0 l 162 0 q 120 9 129 0 q 111 51 111 18 l 111 875 q 120 917 111 908 q 162 926 129 926 l 200 926 q 242 917 233 926 q 251 875 251 908 l 251 132 z "},"M":{"ha":1181,"x_min":85,"x_max":1089,"o":"m 591 276 l 871 888 q 907 926 888 926 q 929 917 922 926 q 941 879 937 907 l 1086 56 q 1089 28 1089 36 q 1078 6 1089 12 q 1039 0 1067 0 l 999 0 q 958 7 966 0 q 945 46 950 14 l 863 559 l 626 37 q 609 7 615 14 q 589 1 602 1 q 570 7 577 1 q 553 38 564 14 l 322 559 l 231 45 q 217 7 225 14 q 177 0 209 0 l 136 0 q 96 6 107 0 q 85 29 85 12 q 90 56 85 36 l 251 880 q 262 916 256 907 q 284 926 269 926 q 304 919 297 926 q 321 888 311 912 l 591 276 z "},"N":{"ha":1037,"x_min":111,"x_max":926,"o":"m 786 283 l 786 875 q 795 917 786 908 q 837 926 804 926 l 875 926 q 917 917 908 926 q 926 875 926 908 l 926 39 q 919 0 926 11 q 895 -12 912 -12 q 859 12 882 -12 l 251 648 l 251 51 q 242 9 251 18 q 200 0 233 0 l 162 0 q 120 9 129 0 q 111 51 111 18 l 111 892 q 118 932 111 921 q 142 943 125 943 q 178 919 155 943 l 786 283 z "},"O":{"ha":1097,"x_min":65,"x_max":1033,"o":"m 551 943 q 905 786 762 943 q 1033 462 1033 647 q 968 223 1033 334 q 794 49 905 113 q 545 -18 680 -18 q 315 42 425 -18 q 117 239 182 114 q 65 467 65 339 q 213 806 65 665 q 393 916 291 882 q 551 943 473 943 m 547 812 q 288 690 388 812 q 206 454 206 591 q 309 212 206 311 q 549 114 412 114 q 724 163 642 114 q 852 296 808 213 q 892 463 892 372 q 793 711 892 609 q 547 812 696 812 z "},"P":{"ha":663,"x_min":111,"x_max":631,"o":"m 251 376 l 251 51 q 242 9 251 18 q 200 0 233 0 l 162 0 q 120 9 129 0 q 111 51 111 18 l 111 875 q 120 917 111 908 q 162 926 129 926 l 269 926 q 452 907 397 926 q 600 779 553 874 q 631 651 631 719 q 550 454 631 532 q 316 376 468 376 l 251 376 m 251 505 l 303 505 q 448 543 404 505 q 496 653 496 583 q 444 764 496 726 q 297 797 397 797 l 251 797 l 251 505 z "},"Q":{"ha":1097,"x_min":65,"x_max":1033,"o":"m 805 58 q 547 -18 688 -18 q 312 44 424 -18 q 117 239 182 115 q 65 459 65 338 q 212 807 65 668 q 391 916 290 881 q 549 943 469 943 q 776 886 668 943 q 968 701 900 819 q 1033 452 1033 588 q 1002 281 1033 357 q 901 133 970 205 l 986 49 q 1013 9 1013 22 q 966 -18 1013 -18 l 911 -18 q 879 -15 886 -18 q 854 6 871 -12 l 805 58 m 706 155 l 557 300 q 532 342 532 325 q 578 367 532 367 l 636 367 q 668 365 663 367 q 692 344 673 362 l 804 233 q 860 311 842 273 q 892 461 892 377 q 791 713 892 613 q 547 812 690 812 q 358 756 442 812 q 248 635 287 710 q 206 458 206 557 q 306 213 206 308 q 543 114 409 114 q 706 155 633 114 z "},"R":{"ha":739,"x_min":111,"x_max":682,"o":"m 425 394 l 664 65 q 682 28 682 40 q 671 6 682 13 q 631 0 659 0 l 576 0 q 542 3 548 0 q 519 30 536 6 l 276 379 l 251 379 l 251 51 q 242 9 251 18 q 200 0 233 0 l 162 0 q 120 9 129 0 q 111 51 111 18 l 111 875 q 120 917 111 907 q 162 926 130 926 l 275 926 q 420 913 364 926 q 519 872 475 901 q 601 777 570 838 q 629 654 629 719 q 573 485 629 557 q 425 394 517 414 m 251 500 l 296 500 q 435 534 388 500 q 493 652 493 574 q 439 762 493 724 q 300 794 393 794 l 251 794 l 251 500 z "},"S":{"ha":715,"x_min":70,"x_max":659,"o":"m 591 762 l 564 746 q 531 731 540 731 q 500 753 515 731 q 384 812 463 812 q 285 777 323 812 q 248 696 248 744 q 292 620 248 650 q 331 596 313 605 q 441 551 350 588 q 607 438 557 503 q 659 278 659 370 q 564 58 659 144 q 361 -18 483 -18 q 158 60 240 -18 q 97 145 123 93 q 70 232 70 197 q 78 254 70 248 q 113 267 87 260 l 155 275 q 182 280 176 280 q 212 244 208 280 q 259 153 220 189 q 366 114 303 114 q 480 164 437 114 q 518 269 518 208 q 454 390 518 347 q 411 415 431 406 q 296 464 391 424 q 106 699 106 544 q 212 892 106 823 q 385 943 290 943 q 612 825 532 943 q 623 798 623 808 q 617 781 623 787 q 591 762 612 774 z "},"T":{"ha":593,"x_min":14,"x_max":578,"o":"m 366 794 l 366 51 q 357 9 366 18 q 315 0 349 0 l 277 0 q 235 9 245 0 q 227 51 227 18 l 227 794 l 64 794 q 22 803 31 794 q 14 845 14 812 l 14 875 q 22 917 14 907 q 64 926 32 926 l 528 926 q 569 917 560 926 q 578 875 578 907 l 578 845 q 569 803 578 812 q 528 794 560 794 l 366 794 z "},"U":{"ha":907,"x_min":111,"x_max":796,"o":"m 251 875 l 251 368 q 257 272 251 307 q 280 209 264 237 q 342 145 302 170 q 454 114 393 114 q 555 139 509 114 q 627 209 602 165 q 650 272 644 237 q 656 368 656 307 l 656 875 q 665 917 656 908 q 707 926 675 926 l 745 926 q 787 917 779 926 q 796 875 796 908 l 796 330 q 726 112 796 201 q 605 17 677 51 q 454 -18 533 -18 q 249 48 341 -18 q 111 330 111 146 l 111 875 q 120 917 111 908 q 162 926 129 926 l 200 926 q 242 917 233 926 q 251 875 251 908 z "},"V":{"ha":831,"x_min":20,"x_max":810,"o":"m 413 284 l 658 888 q 676 921 669 916 q 714 926 684 926 l 760 926 q 794 922 786 926 q 810 897 810 916 q 800 865 810 888 l 447 18 q 431 -14 437 -7 q 411 -20 424 -20 q 391 -13 398 -20 q 375 18 385 -6 l 29 865 q 20 898 20 888 q 31 920 20 913 q 71 926 42 926 l 116 926 q 154 921 146 926 q 172 888 161 916 l 413 284 z "},"W":{"ha":1303,"x_min":20,"x_max":1282,"o":"m 397 307 l 613 875 q 629 906 623 899 q 649 913 636 913 q 669 906 663 913 q 685 874 675 899 l 891 307 l 1131 888 q 1150 921 1143 916 q 1187 926 1158 926 l 1232 926 q 1267 922 1259 926 q 1282 898 1282 916 q 1273 865 1282 888 l 922 31 q 906 1 913 8 q 886 -6 899 -6 q 867 1 873 -6 q 851 33 860 9 l 646 597 l 433 33 q 417 1 424 8 q 397 -6 411 -6 q 378 1 385 -6 q 361 32 371 8 l 29 865 q 20 898 20 889 q 36 922 20 916 q 71 926 44 926 l 115 926 q 153 921 146 926 q 172 887 161 916 l 397 307 z "},"X":{"ha":758,"x_min":37,"x_max":722,"o":"m 305 484 l 86 862 q 72 897 72 887 q 83 919 72 913 q 123 926 95 926 l 170 926 q 206 922 199 926 q 227 892 213 918 l 386 612 l 552 893 q 573 922 567 918 q 609 926 580 926 l 657 926 q 692 922 684 926 q 708 897 708 914 q 693 862 708 887 l 465 484 l 708 64 q 722 28 722 39 q 711 6 722 13 q 671 0 700 0 l 626 0 q 591 4 597 0 q 569 33 584 7 l 383 354 l 191 33 q 170 4 176 7 q 134 0 163 0 l 88 0 q 53 4 61 0 q 37 29 37 12 q 52 64 37 39 l 305 484 z "},"Y":{"ha":737,"x_min":18,"x_max":720,"o":"m 298 400 l 32 863 q 18 897 18 887 q 29 919 18 913 q 68 926 40 926 l 119 926 q 154 922 148 926 q 176 892 161 918 l 368 555 l 562 892 q 583 922 576 918 q 618 926 589 926 l 668 926 q 704 922 695 926 q 720 897 720 914 q 705 863 720 887 l 438 400 l 438 51 q 429 9 438 18 q 387 0 420 0 l 349 0 q 307 9 316 0 q 298 51 298 18 l 298 400 z "},"Z":{"ha":768,"x_min":64,"x_max":715,"o":"m 271 132 l 665 132 q 707 123 698 132 q 715 81 715 114 l 715 51 q 707 9 715 18 q 665 0 698 0 l 115 0 q 79 4 87 0 q 64 28 64 12 q 78 64 64 39 l 496 794 l 167 794 q 125 803 134 794 q 116 845 116 812 l 116 875 q 125 917 116 907 q 167 926 134 926 l 652 926 q 688 922 680 926 q 704 897 704 914 q 690 862 704 887 l 271 132 z "},"[":{"ha":439,"x_min":120,"x_max":374,"o":"m 257 886 l 257 -119 l 323 -119 q 365 -128 355 -119 q 374 -170 374 -137 l 374 -195 q 365 -237 374 -229 q 323 -246 355 -246 l 171 -246 q 129 -237 138 -246 q 120 -195 120 -229 l 120 962 q 129 1004 120 995 q 171 1013 138 1013 l 323 1013 q 365 1004 355 1013 q 374 962 374 995 l 374 937 q 365 895 374 905 q 323 886 355 886 l 257 886 z "},"\\":{"ha":637,"x_min":15,"x_max":636,"o":"m 132 987 l 631 -168 q 636 -189 636 -182 q 610 -220 636 -208 l 572 -237 q 551 -243 559 -243 q 519 -217 532 -245 l 20 938 q 15 958 15 950 q 41 989 15 978 l 80 1007 q 100 1013 92 1013 q 132 987 121 1013 z "},"]":{"ha":439,"x_min":65,"x_max":319,"o":"m 182 -119 l 182 886 l 116 886 q 74 895 83 886 q 65 937 65 905 l 65 962 q 74 1004 65 995 q 116 1013 83 1013 l 268 1013 q 310 1004 300 1013 q 319 962 319 995 l 319 -195 q 310 -237 319 -229 q 268 -246 300 -246 l 116 -246 q 74 -237 83 -246 q 65 -195 65 -229 l 65 -170 q 74 -128 65 -137 q 116 -119 83 -119 l 182 -119 z "},"^":{"ha":694,"x_min":22,"x_max":673,"o":"m 169 487 l 22 487 l 256 930 l 439 930 l 673 487 l 526 487 l 347 819 l 169 487 z "},"_":{"ha":694,"x_min":0,"x_max":694,"o":"m 51 -78 l 644 -78 q 686 -87 677 -78 q 694 -129 694 -96 l 694 -153 q 686 -195 694 -186 q 644 -204 676 -204 l 51 -204 q 9 -195 18 -204 q 0 -153 0 -186 l 0 -129 q 9 -87 0 -96 q 51 -78 18 -78 z "},"`":{"ha":694,"x_min":141,"x_max":396,"o":"m 176 901 l 204 916 q 236 929 229 929 q 252 924 246 929 q 273 901 258 920 l 378 762 q 396 728 396 738 q 380 702 396 713 q 340 682 353 682 q 304 703 328 682 l 166 829 q 141 865 141 851 q 147 883 141 877 q 176 901 153 890 z "},"a":{"ha":736,"x_min":58,"x_max":651,"o":"m 516 61 q 430 0 469 18 q 336 -18 390 -18 q 127 81 209 -18 q 58 294 58 165 q 145 522 58 436 q 333 600 225 600 q 430 581 389 600 q 516 516 472 562 l 516 534 q 525 576 516 566 q 567 585 534 585 l 600 585 q 642 576 633 585 q 651 534 651 566 l 651 51 q 642 9 651 18 q 600 0 633 0 l 567 0 q 525 9 534 0 q 516 51 516 18 l 516 61 m 357 479 q 239 422 283 479 q 195 288 195 368 q 250 146 195 202 q 358 104 293 104 q 486 164 438 104 q 524 291 524 214 q 473 432 524 380 q 357 479 427 479 z "},"b":{"ha":736,"x_min":85,"x_max":679,"o":"m 220 517 q 404 600 301 600 q 536 564 474 600 q 650 437 615 518 q 679 294 679 370 q 587 57 679 144 q 401 -18 509 -18 q 220 61 301 -18 l 220 51 q 212 9 220 18 q 170 0 203 0 l 136 0 q 94 9 103 0 q 85 51 85 18 l 85 962 q 94 1004 85 996 q 136 1013 103 1013 l 170 1013 q 212 1004 203 1013 q 220 962 220 996 l 220 517 m 378 479 q 251 418 300 479 q 212 291 212 369 q 264 150 212 201 q 380 104 311 104 q 498 160 453 104 q 541 294 541 214 q 486 435 541 378 q 378 479 444 479 z "},"c":{"ha":585,"x_min":57,"x_max":540,"o":"m 540 520 l 540 469 q 516 423 540 423 q 497 432 510 423 q 433 471 454 463 q 376 479 412 479 q 241 420 291 479 q 195 292 195 367 q 245 156 195 212 q 374 104 291 104 q 497 149 448 104 q 518 161 510 161 q 540 115 540 161 l 540 65 q 538 35 540 41 q 530 22 537 28 q 465 -5 513 7 q 376 -18 418 -18 q 138 81 229 -18 q 57 290 57 171 q 98 443 57 370 q 205 555 138 514 q 376 600 281 600 q 467 589 419 600 q 530 563 514 577 q 538 550 536 557 q 540 520 540 543 z "},"d":{"ha":736,"x_min":58,"x_max":651,"o":"m 516 61 q 335 -18 435 -18 q 127 81 209 -18 q 58 294 58 165 q 145 522 58 436 q 333 600 225 600 q 516 517 435 600 l 516 962 q 525 1004 516 996 q 567 1013 534 1013 l 600 1013 q 642 1004 633 1013 q 651 962 651 996 l 651 51 q 642 9 651 18 q 600 0 633 0 l 567 0 q 525 9 534 0 q 516 51 516 18 l 516 61 m 357 479 q 239 422 283 479 q 195 288 195 368 q 250 146 195 202 q 358 104 293 104 q 486 164 438 104 q 524 292 524 213 q 473 432 524 380 q 357 479 427 479 z "},"e":{"ha":680,"x_min":58,"x_max":618,"o":"m 199 260 q 219 184 202 218 q 351 104 260 104 q 490 187 437 104 q 519 207 502 207 q 551 193 527 207 l 577 178 q 604 160 598 166 q 610 142 610 153 q 602 120 610 132 q 347 -18 512 -18 q 121 84 205 -18 q 58 292 58 162 q 92 451 58 377 q 190 561 123 522 q 339 600 256 600 q 515 545 439 600 q 618 295 618 467 q 608 267 618 274 q 566 260 597 260 l 199 260 m 479 370 q 452 429 469 408 q 342 479 412 479 q 257 450 293 479 q 208 370 220 420 l 479 370 z "},"f":{"ha":365,"x_min":41,"x_max":372,"o":"m 224 458 l 224 51 q 216 9 224 18 q 174 0 207 0 l 140 0 q 98 9 107 0 q 90 51 90 18 l 90 458 q 79 458 81 458 q 48 468 56 458 q 41 509 41 478 l 41 534 q 50 575 41 566 q 90 585 58 585 l 90 809 q 128 965 90 918 q 194 1011 152 994 q 283 1029 236 1029 q 333 1022 309 1029 q 364 1007 357 1016 q 372 966 372 998 l 372 937 q 368 902 372 910 q 343 886 361 886 q 329 888 337 886 q 281 900 290 900 q 237 873 252 900 q 224 777 224 852 l 224 585 l 321 585 q 363 576 354 585 q 372 534 372 566 l 372 509 q 363 467 372 477 q 321 458 354 458 l 224 458 z "},"g":{"ha":735,"x_min":58,"x_max":650,"o":"m 515 65 q 330 -18 435 -18 q 130 74 212 -18 q 58 288 58 155 q 147 525 58 439 q 332 600 226 600 q 515 518 442 600 l 515 534 q 524 576 515 566 q 566 585 534 585 l 600 585 q 642 576 633 585 q 650 534 650 566 l 650 14 q 633 -142 650 -92 q 522 -279 603 -232 q 366 -319 453 -319 q 150 -233 227 -319 q 101 -153 119 -199 q 82 -67 82 -107 q 93 -42 82 -48 q 133 -35 103 -35 l 165 -35 q 205 -42 195 -35 q 216 -67 216 -48 q 267 -165 220 -129 q 367 -198 309 -198 q 438 -182 405 -198 q 489 -139 471 -166 q 515 -17 515 -100 l 515 65 m 355 479 q 229 413 273 479 q 195 283 195 364 q 244 151 195 199 q 358 104 292 104 q 483 165 436 104 q 521 290 521 214 q 463 440 521 389 q 355 479 418 479 z "},"h":{"ha":673,"x_min":85,"x_max":588,"o":"m 220 536 q 379 600 292 600 q 477 579 432 600 q 549 521 523 557 q 579 455 571 492 q 588 358 588 418 l 588 51 q 579 9 588 18 q 537 0 570 0 l 504 0 q 462 9 471 0 q 453 51 453 18 l 453 345 q 435 437 453 406 q 349 479 412 479 q 244 430 275 479 q 220 282 220 393 l 220 51 q 212 9 220 18 q 170 0 203 0 l 136 0 q 94 9 103 0 q 85 51 85 18 l 85 962 q 94 1004 85 996 q 136 1013 103 1013 l 170 1013 q 212 1004 203 1013 q 220 962 220 996 l 220 536 z "},"i":{"ha":306,"x_min":65,"x_max":241,"o":"m 220 534 l 220 51 q 212 9 220 18 q 170 0 203 0 l 136 0 q 94 9 103 0 q 85 51 85 18 l 85 534 q 94 576 85 566 q 136 585 103 585 l 170 585 q 212 576 203 585 q 220 534 220 566 m 153 913 q 215 888 189 913 q 241 826 241 863 q 215 764 241 789 q 153 738 189 738 q 91 764 117 738 q 65 827 65 790 q 91 888 65 862 q 153 913 117 913 z "},"j":{"ha":306,"x_min":65,"x_max":241,"o":"m 220 534 l 220 -268 q 212 -310 220 -300 q 170 -319 203 -319 l 136 -319 q 94 -310 103 -319 q 85 -268 85 -300 l 85 534 q 94 576 85 566 q 136 585 103 585 l 170 585 q 212 576 203 585 q 220 534 220 566 m 153 913 q 215 888 189 913 q 241 826 241 863 q 215 764 241 789 q 153 738 189 738 q 91 764 117 738 q 65 827 65 790 q 91 888 65 862 q 153 913 117 913 z "},"k":{"ha":612,"x_min":85,"x_max":577,"o":"m 220 395 l 387 562 q 396 571 392 567 q 412 583 406 581 q 443 585 418 585 l 500 585 q 547 553 547 585 q 522 518 547 541 l 338 339 l 557 66 q 577 28 577 41 q 565 6 577 13 q 526 0 553 0 l 470 0 q 436 3 442 0 q 413 28 431 5 l 241 246 l 220 225 l 220 51 q 212 9 220 18 q 170 0 203 0 l 136 0 q 94 9 103 0 q 85 51 85 18 l 85 962 q 94 1004 85 996 q 136 1013 103 1013 l 170 1013 q 212 1004 203 1013 q 220 962 220 996 l 220 395 z "},"l":{"ha":306,"x_min":85,"x_max":220,"o":"m 220 962 l 220 51 q 212 9 220 18 q 170 0 203 0 l 136 0 q 94 9 103 0 q 85 51 85 18 l 85 962 q 94 1004 85 995 q 136 1013 103 1013 l 170 1013 q 212 1004 203 1013 q 220 962 220 995 z "},"m":{"ha":971,"x_min":85,"x_max":886,"o":"m 220 530 q 287 586 258 571 q 361 600 316 600 q 517 514 459 600 q 689 600 581 600 q 819 557 764 600 q 886 361 886 501 l 886 51 q 878 9 886 18 q 836 0 869 0 l 802 0 q 760 9 769 0 q 751 51 751 18 l 751 325 q 731 444 751 408 q 662 479 711 479 q 580 436 606 479 q 555 302 555 394 l 555 51 q 546 9 555 18 q 504 0 537 0 l 471 0 q 429 9 437 0 q 420 51 420 18 l 420 323 q 406 426 420 387 q 329 479 386 479 q 276 464 301 479 q 240 426 252 449 q 220 302 220 387 l 220 51 q 212 9 220 18 q 170 0 203 0 l 136 0 q 94 9 103 0 q 85 51 85 18 l 85 534 q 94 576 85 566 q 136 585 103 585 l 170 585 q 212 576 203 585 q 220 534 220 566 l 220 530 z "},"n":{"ha":673,"x_min":85,"x_max":589,"o":"m 220 530 q 295 585 260 570 q 380 600 330 600 q 481 579 435 600 q 552 521 527 557 q 589 358 589 467 l 589 51 q 580 9 589 18 q 538 0 571 0 l 505 0 q 463 9 471 0 q 454 51 454 18 l 454 327 q 436 437 454 408 q 345 479 410 479 q 249 435 277 479 q 220 282 220 391 l 220 51 q 212 9 220 18 q 170 0 203 0 l 136 0 q 95 7 105 0 q 85 37 85 14 l 85 51 l 85 534 q 94 576 85 566 q 136 585 104 585 l 170 585 q 212 576 203 585 q 220 534 220 566 l 220 530 z "},"o":{"ha":738,"x_min":58,"x_max":681,"o":"m 369 600 q 605 495 514 600 q 681 292 681 408 q 582 64 681 155 q 366 -18 495 -18 q 133 88 224 -18 q 58 296 58 176 q 157 519 58 426 q 369 600 243 600 m 369 479 q 233 415 281 479 q 195 287 195 365 q 247 151 195 201 q 369 104 294 104 q 505 166 457 104 q 543 291 543 215 q 492 431 543 380 q 369 479 445 479 z "},"p":{"ha":736,"x_min":85,"x_max":679,"o":"m 220 521 q 401 600 300 600 q 609 502 528 600 q 679 289 679 418 q 591 60 679 146 q 404 -18 511 -18 q 220 66 301 -18 l 220 -268 q 212 -310 220 -300 q 170 -319 203 -319 l 136 -319 q 94 -310 103 -319 q 85 -268 85 -300 l 85 534 q 94 576 85 566 q 136 585 103 585 l 170 585 q 212 576 203 585 q 220 534 220 566 l 220 521 m 378 479 q 251 418 299 479 q 212 291 212 370 q 264 151 212 201 q 380 104 311 104 q 498 160 453 104 q 541 295 541 215 q 486 436 541 380 q 378 479 444 479 z "},"q":{"ha":736,"x_min":58,"x_max":651,"o":"m 516 66 q 332 -18 435 -18 q 201 18 262 -18 q 86 146 121 64 q 58 289 58 212 q 149 526 58 438 q 335 600 228 600 q 516 521 436 600 l 516 534 q 525 576 516 566 q 567 585 534 585 l 600 585 q 642 576 633 585 q 651 534 651 566 l 651 -268 q 642 -310 651 -300 q 600 -319 633 -319 l 567 -319 q 525 -310 534 -319 q 516 -268 516 -300 l 516 66 m 357 479 q 239 422 283 479 q 195 288 195 368 q 250 147 195 203 q 358 104 293 104 q 486 165 438 104 q 524 292 524 214 q 473 433 524 381 q 357 479 427 479 z "},"r":{"ha":460,"x_min":85,"x_max":457,"o":"m 220 532 q 287 586 258 572 q 357 601 315 601 q 428 587 399 601 q 457 554 457 574 q 445 521 457 546 l 428 488 q 411 459 417 466 q 393 453 404 453 q 378 456 387 453 q 322 471 339 471 q 282 459 304 471 q 249 431 260 448 q 220 302 220 394 l 220 51 q 212 9 220 18 q 170 0 203 0 l 136 0 q 94 9 103 0 q 85 51 85 18 l 85 534 q 94 576 85 566 q 136 585 103 585 l 170 585 q 211 576 202 585 q 220 538 220 568 l 220 532 z "},"s":{"ha":498,"x_min":56,"x_max":463,"o":"m 380 461 l 356 448 q 323 435 332 435 q 298 449 309 435 q 248 479 274 479 q 216 467 229 479 q 203 437 203 454 q 218 406 203 418 q 281 370 233 393 q 392 311 357 336 q 463 179 463 262 q 401 38 463 96 q 254 -18 341 -18 q 153 5 201 -18 q 77 68 106 28 q 56 112 56 96 q 62 131 56 124 q 92 148 69 138 l 117 160 q 150 171 142 171 q 166 165 160 171 q 191 134 172 160 q 256 104 212 104 q 306 121 287 104 q 325 166 325 138 q 305 211 325 195 q 190 273 285 227 q 103 334 125 304 q 76 425 76 370 q 132 553 76 506 q 258 600 186 600 q 346 578 305 600 q 408 517 386 555 q 414 496 414 506 q 408 479 414 486 q 380 461 402 473 z "},"t":{"ha":336,"x_min":32,"x_max":329,"o":"m 224 458 l 224 51 q 215 9 224 18 q 174 0 206 0 l 140 0 q 98 9 107 0 q 90 51 90 18 l 90 458 l 83 458 q 41 467 50 458 q 32 509 32 477 l 32 534 q 41 576 32 566 q 83 585 50 585 l 90 585 l 90 747 q 98 789 90 781 q 140 798 107 798 l 174 798 q 215 789 206 798 q 224 747 224 781 l 224 585 l 278 585 q 320 576 311 585 q 329 534 329 566 l 329 509 q 320 467 329 477 q 278 458 311 458 l 224 458 z "},"u":{"ha":669,"x_min":85,"x_max":585,"o":"m 220 534 l 220 249 q 237 156 220 186 q 335 104 266 104 q 422 139 394 104 q 450 249 450 174 l 450 534 q 458 576 450 566 q 500 585 467 585 l 534 585 q 576 576 567 585 q 585 534 585 566 l 585 246 q 571 135 585 177 q 523 56 557 92 q 335 -18 452 -18 q 147 56 218 -18 q 99 135 113 92 q 85 246 85 177 l 85 534 q 94 576 85 566 q 136 585 103 585 l 170 585 q 212 576 203 585 q 220 534 220 566 z "},"v":{"ha":617,"x_min":24,"x_max":592,"o":"m 309 256 l 443 548 q 462 580 455 575 q 499 585 469 585 l 541 585 q 576 581 568 585 q 592 556 592 574 q 581 522 592 546 l 344 35 q 326 5 333 12 q 308 -1 319 -1 q 289 5 296 -1 q 271 35 282 12 l 36 522 q 24 556 24 547 q 36 578 24 572 q 75 585 47 585 l 117 585 q 154 580 147 585 q 174 548 161 576 l 309 256 z "},"w":{"ha":951,"x_min":25,"x_max":926,"o":"m 311 251 l 440 553 q 457 584 450 577 q 477 591 464 591 q 496 584 490 591 q 513 553 503 577 l 642 251 l 777 548 q 797 580 789 575 q 833 585 804 585 l 876 585 q 911 581 902 585 q 926 556 926 574 q 914 522 926 547 l 677 34 q 659 5 666 12 q 641 -1 652 -1 q 621 5 627 -1 q 604 35 614 12 l 476 332 l 347 35 q 330 5 337 12 q 311 -2 323 -2 q 292 4 298 -2 q 275 34 286 11 l 37 522 q 25 556 25 547 q 36 578 25 572 q 76 585 47 585 l 119 585 q 156 580 149 585 q 175 548 163 575 l 311 251 z "},"x":{"ha":686,"x_min":40,"x_max":647,"o":"m 266 317 l 107 519 q 88 556 88 543 q 136 585 88 585 l 181 585 q 216 582 210 585 q 239 556 222 578 l 347 414 l 458 557 q 481 582 475 578 q 515 585 487 585 l 562 585 q 612 556 612 585 q 592 519 612 543 l 429 316 l 627 66 q 647 28 647 41 q 599 0 647 0 l 554 0 q 520 3 526 0 q 497 28 514 5 l 347 218 l 193 27 q 185 17 186 18 q 169 2 176 5 q 136 0 162 0 l 89 0 q 40 28 40 0 q 60 66 40 41 l 266 317 z "},"y":{"ha":667,"x_min":28,"x_max":641,"o":"m 269 109 l 41 522 q 28 555 28 546 q 39 578 28 572 q 79 585 50 585 l 125 585 q 161 581 154 585 q 182 550 168 576 l 342 248 l 491 549 q 511 580 504 576 q 548 585 518 585 l 590 585 q 625 581 617 585 q 641 556 641 574 q 629 522 641 546 l 214 -284 q 193 -314 200 -310 q 157 -319 186 -319 l 113 -319 q 77 -315 86 -319 q 62 -290 62 -308 q 75 -256 62 -281 l 269 109 z "},"z":{"ha":667,"x_min":45,"x_max":626,"o":"m 279 127 l 575 127 q 617 118 608 127 q 626 76 626 109 l 626 51 q 617 9 626 18 q 575 0 608 0 l 96 0 q 59 5 68 0 q 45 28 45 12 q 65 66 45 41 l 389 458 l 142 458 q 100 467 109 458 q 92 509 92 477 l 92 534 q 100 576 92 566 q 142 585 109 585 l 571 585 q 608 580 599 585 q 622 555 622 572 q 602 519 622 543 l 279 127 z "},"{":{"ha":439,"x_min":57,"x_max":376,"o":"m 189 382 q 244 334 227 360 q 273 250 273 292 l 273 -23 q 278 -87 273 -68 q 296 -118 282 -106 q 311 -128 305 -126 q 347 -132 317 -130 q 376 -171 376 -134 l 376 -216 q 363 -250 376 -243 q 300 -257 349 -257 q 175 -211 214 -257 q 135 -54 135 -165 l 135 241 q 119 290 135 267 q 78 322 102 313 q 57 359 57 330 l 57 415 q 79 453 57 443 q 119 484 109 467 q 135 560 135 510 l 135 827 q 150 935 135 895 q 196 998 164 975 q 294 1023 233 1023 l 342 1022 q 376 982 376 1021 l 376 937 q 367 906 376 913 q 320 895 357 899 q 283 870 294 893 q 273 791 273 848 l 273 551 q 256 447 273 481 q 189 382 239 412 z "},"|":{"ha":694,"x_min":278,"x_max":417,"o":"m 278 926 l 417 926 l 417 -231 l 278 -231 l 278 926 z "},"}":{"ha":439,"x_min":63,"x_max":382,"o":"m 250 384 q 195 431 212 406 q 166 516 166 475 l 166 789 q 162 853 166 834 q 144 884 157 873 q 128 893 134 892 q 93 898 121 895 q 63 937 63 900 l 63 982 q 76 1016 63 1009 q 139 1023 90 1023 q 265 977 226 1023 q 304 820 304 931 l 304 524 q 321 476 304 499 q 361 444 337 453 q 382 406 382 436 l 382 351 q 361 313 382 323 q 321 283 331 299 q 304 206 304 256 l 304 -62 q 290 -169 304 -128 q 243 -231 275 -209 q 146 -257 206 -257 l 98 -256 q 63 -216 63 -255 l 63 -171 q 73 -140 63 -147 q 119 -130 83 -132 q 156 -104 145 -127 q 166 -25 166 -81 l 166 216 q 184 320 166 285 q 250 384 201 355 z "},"~":{"ha":926,"x_min":127,"x_max":798,"o":"m 127 845 q 208 975 170 935 q 326 1021 252 1021 q 477 979 382 1021 q 604 941 564 941 q 667 960 638 941 q 710 1010 696 979 q 728 1026 717 1026 q 798 977 753 1026 q 718 857 758 895 q 661 820 696 834 q 591 806 625 806 q 435 853 538 806 q 313 887 361 887 q 254 863 284 887 q 213 807 223 838 q 197 792 208 792 q 127 845 172 792 z "},"Ä":{"ha":909,"x_min":22,"x_max":888,"o":"m 654 225 l 258 225 l 172 37 q 166 24 167 26 q 151 4 159 7 q 115 0 142 0 l 73 0 q 37 4 46 0 q 22 28 22 11 q 33 62 22 37 l 426 905 q 443 935 437 928 q 462 941 450 941 q 481 935 475 941 q 498 905 488 928 l 877 62 q 888 28 888 37 q 877 6 888 12 q 837 0 865 0 l 792 0 q 754 5 762 0 q 735 37 747 9 l 654 225 m 597 357 l 460 671 l 316 357 l 597 357 m 320 1191 q 380 1166 355 1191 q 406 1105 406 1141 q 380 1044 406 1069 q 320 1019 355 1019 q 259 1044 284 1019 q 234 1106 234 1069 q 259 1166 234 1141 q 320 1191 285 1191 m 589 1191 q 650 1166 625 1191 q 675 1105 675 1141 q 650 1044 675 1069 q 590 1019 625 1019 q 529 1044 554 1019 q 504 1106 504 1069 q 529 1166 504 1141 q 589 1191 555 1191 z "},"Å":{"ha":909,"x_min":22,"x_max":888,"o":"m 654 225 l 258 225 l 172 37 q 166 24 167 26 q 151 4 159 7 q 115 0 142 0 l 73 0 q 37 4 46 0 q 22 28 22 11 q 33 62 22 37 l 426 905 q 443 935 437 928 q 462 941 450 941 q 481 935 475 941 q 498 905 488 928 l 877 62 q 888 28 888 37 q 877 6 888 12 q 837 0 865 0 l 792 0 q 754 5 762 0 q 735 37 747 9 l 654 225 m 597 357 l 460 671 l 316 357 l 597 357 m 454 1272 q 547 1233 509 1272 q 585 1141 585 1195 q 547 1048 585 1086 q 455 1009 509 1009 q 363 1048 400 1009 q 324 1142 324 1086 q 363 1233 324 1195 q 454 1272 401 1272 m 455 1200 q 413 1182 430 1200 q 395 1140 395 1165 q 413 1098 395 1116 q 455 1081 431 1081 q 497 1098 479 1081 q 514 1141 514 1116 q 497 1182 514 1165 q 455 1200 479 1200 z "},"Ç":{"ha":860,"x_min":65,"x_max":795,"o":"m 795 838 l 795 793 q 770 741 795 741 q 745 750 762 741 q 634 801 668 790 q 548 812 600 812 q 283 685 383 812 q 206 460 206 587 q 319 201 206 301 q 545 114 416 114 q 647 129 602 114 q 749 182 692 144 q 770 191 762 191 q 795 139 795 191 l 795 90 q 786 47 795 56 q 722 16 772 35 q 544 -18 638 -18 q 313 41 419 -18 q 117 243 184 111 q 65 458 65 345 q 121 684 65 577 q 307 878 187 809 q 555 943 419 943 q 770 890 677 943 q 792 872 789 880 q 795 838 795 865 m 566 -174 l 477 -277 q 457 -300 463 -296 q 441 -304 451 -304 q 409 -291 433 -304 l 405 -289 q 380 -272 387 -279 q 374 -254 374 -265 q 391 -220 374 -245 l 462 -113 q 469 -102 465 -109 q 497 -82 482 -82 q 530 -93 505 -82 l 550 -102 q 580 -119 574 -113 q 587 -139 587 -126 q 566 -174 587 -150 z "},"É":{"ha":694,"x_min":111,"x_max":623,"o":"m 251 794 l 251 572 l 560 572 q 602 564 593 572 q 611 522 611 555 l 611 492 q 602 450 611 459 q 560 441 593 441 l 251 441 l 251 132 l 571 132 q 613 123 604 132 q 623 81 623 114 l 623 51 q 613 9 623 18 q 571 0 604 0 l 162 0 q 120 9 129 0 q 111 51 111 18 l 111 875 q 120 917 111 907 q 162 926 130 926 l 571 926 q 613 917 604 926 q 623 875 623 907 l 623 845 q 613 803 623 812 q 571 794 604 794 l 251 794 m 496 1139 l 341 1034 q 307 1017 316 1017 q 282 1028 296 1017 q 272 1037 275 1034 q 253 1067 253 1053 q 276 1103 253 1080 l 398 1225 q 435 1249 421 1249 q 468 1232 444 1249 l 496 1212 q 526 1175 526 1192 q 520 1158 526 1164 q 496 1139 515 1152 z "},"Ñ":{"ha":1037,"x_min":111,"x_max":926,"o":"m 786 283 l 786 875 q 795 917 786 908 q 837 926 804 926 l 875 926 q 917 917 908 926 q 926 875 926 908 l 926 39 q 919 0 926 11 q 895 -12 912 -12 q 859 12 882 -12 l 251 648 l 251 51 q 242 9 251 18 q 200 0 233 0 l 162 0 q 120 9 129 0 q 111 51 111 18 l 111 892 q 118 932 111 921 q 142 943 125 943 q 178 919 155 943 l 786 283 m 712 1179 l 744 1152 q 757 1127 757 1141 q 735 1085 757 1112 q 609 1020 683 1020 q 564 1026 585 1020 q 499 1053 544 1032 q 417 1081 441 1081 q 370 1050 393 1081 q 342 1035 357 1035 q 326 1040 333 1035 l 296 1066 q 283 1090 283 1076 q 309 1137 283 1106 q 425 1198 359 1198 q 534 1166 472 1198 q 590 1139 580 1143 q 614 1135 601 1135 q 669 1172 643 1135 q 694 1185 679 1185 q 712 1179 705 1185 z "},"Ö":{"ha":1097,"x_min":65,"x_max":1033,"o":"m 551 943 q 905 786 762 943 q 1033 462 1033 647 q 968 223 1033 334 q 794 49 905 113 q 545 -18 680 -18 q 315 42 425 -18 q 117 239 182 114 q 65 467 65 339 q 213 806 65 665 q 393 916 291 882 q 551 943 473 943 m 547 812 q 288 690 388 812 q 206 454 206 591 q 309 212 206 311 q 549 114 412 114 q 724 163 642 114 q 852 296 808 213 q 892 463 892 372 q 793 711 892 609 q 547 812 696 812 m 415 1191 q 475 1166 450 1191 q 500 1105 500 1141 q 475 1044 500 1069 q 415 1019 450 1019 q 354 1044 379 1019 q 329 1106 329 1069 q 354 1166 329 1141 q 415 1191 380 1191 m 684 1191 q 745 1166 720 1191 q 770 1105 770 1141 q 745 1044 770 1069 q 684 1019 720 1019 q 623 1044 648 1019 q 598 1106 598 1069 q 624 1166 598 1141 q 684 1191 649 1191 z "},"Ü":{"ha":907,"x_min":111,"x_max":796,"o":"m 251 875 l 251 368 q 257 272 251 307 q 280 209 264 237 q 342 145 302 170 q 454 114 393 114 q 555 139 509 114 q 627 209 602 165 q 650 272 644 237 q 656 368 656 307 l 656 875 q 665 917 656 908 q 707 926 675 926 l 745 926 q 787 917 779 926 q 796 875 796 908 l 796 330 q 726 112 796 201 q 605 17 677 51 q 454 -18 533 -18 q 249 48 341 -18 q 111 330 111 146 l 111 875 q 120 917 111 908 q 162 926 129 926 l 200 926 q 242 917 233 926 q 251 875 251 908 m 319 1191 q 380 1166 355 1191 q 405 1105 405 1141 q 380 1044 405 1069 q 319 1019 355 1019 q 258 1044 283 1019 q 233 1106 233 1069 q 259 1166 233 1141 q 319 1191 284 1191 m 589 1191 q 650 1166 625 1191 q 675 1105 675 1141 q 650 1044 675 1069 q 589 1019 625 1019 q 528 1044 553 1019 q 503 1106 503 1069 q 529 1166 503 1141 q 589 1191 554 1191 z "},"á":{"ha":736,"x_min":58,"x_max":651,"o":"m 516 61 q 430 0 469 18 q 336 -18 390 -18 q 127 81 209 -18 q 58 294 58 165 q 145 522 58 436 q 333 600 225 600 q 430 581 389 600 q 516 516 472 562 l 516 534 q 525 576 516 566 q 567 585 534 585 l 600 585 q 642 576 633 585 q 651 534 651 566 l 651 51 q 642 9 651 18 q 600 0 633 0 l 567 0 q 525 9 534 0 q 516 51 516 18 l 516 61 m 357 479 q 239 422 283 479 q 195 288 195 368 q 250 146 195 202 q 358 104 293 104 q 486 164 438 104 q 524 291 524 214 q 473 432 524 380 q 357 479 427 479 m 487 829 l 349 703 q 312 682 325 682 q 291 690 304 682 q 279 696 286 693 q 256 728 256 711 q 275 762 256 738 l 380 901 q 400 924 394 920 q 417 929 406 929 q 448 916 424 929 l 477 901 q 506 883 500 890 q 512 864 512 877 q 487 829 512 852 z "},"à":{"ha":736,"x_min":58,"x_max":651,"o":"m 516 61 q 430 0 469 18 q 336 -18 390 -18 q 127 81 209 -18 q 58 294 58 165 q 145 522 58 436 q 333 600 225 600 q 430 581 389 600 q 516 516 472 562 l 516 534 q 525 576 516 566 q 567 585 534 585 l 600 585 q 642 576 633 585 q 651 534 651 566 l 651 51 q 642 9 651 18 q 600 0 633 0 l 567 0 q 525 9 534 0 q 516 51 516 18 l 516 61 m 357 479 q 239 422 283 479 q 195 288 195 368 q 250 146 195 202 q 358 104 293 104 q 486 164 438 104 q 524 291 524 214 q 473 432 524 380 q 357 479 427 479 m 202 901 l 231 916 q 263 929 256 929 q 279 924 273 929 q 300 901 286 920 l 404 762 q 423 728 423 738 q 408 702 423 713 q 367 682 380 682 q 331 703 355 682 l 193 829 q 168 865 168 851 q 174 883 168 877 q 202 901 180 890 z "},"â":{"ha":736,"x_min":58,"x_max":651,"o":"m 516 61 q 430 0 469 18 q 336 -18 390 -18 q 127 81 209 -18 q 58 294 58 165 q 145 522 58 436 q 333 600 225 600 q 430 581 389 600 q 516 516 472 562 l 516 534 q 525 576 516 566 q 567 585 534 585 l 600 585 q 642 576 633 585 q 651 534 651 566 l 651 51 q 642 9 651 18 q 600 0 633 0 l 567 0 q 525 9 534 0 q 516 51 516 18 l 516 61 m 357 479 q 239 422 283 479 q 195 288 195 368 q 250 146 195 202 q 358 104 293 104 q 486 164 438 104 q 524 291 524 214 q 473 432 524 380 q 357 479 427 479 m 336 787 l 250 706 q 214 684 227 684 q 180 703 204 684 l 170 711 q 146 731 151 725 q 142 747 142 737 q 167 783 142 761 l 300 905 q 336 927 324 927 q 372 905 347 927 l 507 783 q 532 747 532 761 q 527 731 532 737 q 504 711 522 725 l 493 703 q 483 694 487 697 q 458 684 469 684 q 422 706 446 684 l 336 787 z "},"ä":{"ha":736,"x_min":58,"x_max":651,"o":"m 516 61 q 430 0 469 18 q 336 -18 390 -18 q 127 81 209 -18 q 58 294 58 165 q 145 522 58 436 q 333 600 225 600 q 430 581 389 600 q 516 516 472 562 l 516 534 q 525 576 516 566 q 567 585 534 585 l 600 585 q 642 576 633 585 q 651 534 651 566 l 651 51 q 642 9 651 18 q 600 0 633 0 l 567 0 q 525 9 534 0 q 516 51 516 18 l 516 61 m 357 479 q 239 422 283 479 q 195 288 195 368 q 250 146 195 202 q 358 104 293 104 q 486 164 438 104 q 524 291 524 214 q 473 432 524 380 q 357 479 427 479 m 243 846 q 304 821 279 846 q 329 760 329 795 q 304 699 329 724 q 243 674 279 674 q 182 700 208 674 q 157 761 157 725 q 183 821 157 795 q 243 846 208 846 m 494 846 q 555 821 530 846 q 580 760 580 795 q 555 699 580 724 q 494 674 530 674 q 433 700 458 674 q 408 761 408 725 q 434 821 408 795 q 494 846 459 846 z "},"ã":{"ha":736,"x_min":58,"x_max":651,"o":"m 516 61 q 430 0 469 18 q 336 -18 390 -18 q 127 81 209 -18 q 58 294 58 165 q 145 522 58 436 q 333 600 225 600 q 430 581 389 600 q 516 516 472 562 l 516 534 q 525 576 516 566 q 567 585 534 585 l 600 585 q 642 576 633 585 q 651 534 651 566 l 651 51 q 642 9 651 18 q 600 0 633 0 l 567 0 q 525 9 534 0 q 516 51 516 18 l 516 61 m 357 479 q 239 422 283 479 q 195 288 195 368 q 250 146 195 202 q 358 104 293 104 q 486 164 438 104 q 524 291 524 214 q 473 432 524 380 q 357 479 427 479 m 250 852 q 358 821 296 852 q 415 793 405 798 q 438 789 425 789 q 494 827 467 789 q 519 840 503 840 q 553 821 531 840 q 565 810 555 819 q 581 783 581 798 q 574 763 581 774 q 433 675 524 675 q 388 682 409 675 q 323 709 368 688 q 241 736 265 736 q 194 706 218 736 q 166 690 182 690 q 135 709 155 690 q 123 718 132 711 q 107 747 107 732 q 133 792 107 761 q 250 852 183 852 z "},"å":{"ha":736,"x_min":58,"x_max":651,"o":"m 516 61 q 430 0 469 18 q 336 -18 390 -18 q 127 81 209 -18 q 58 294 58 165 q 145 522 58 436 q 333 600 225 600 q 430 581 389 600 q 516 516 472 562 l 516 534 q 525 576 516 566 q 567 585 534 585 l 600 585 q 642 576 633 585 q 651 534 651 566 l 651 51 q 642 9 651 18 q 600 0 633 0 l 567 0 q 525 9 534 0 q 516 51 516 18 l 516 61 m 357 479 q 239 422 283 479 q 195 288 195 368 q 250 146 195 202 q 358 104 293 104 q 486 164 438 104 q 524 291 524 214 q 473 432 524 380 q 357 479 427 479 m 334 935 q 427 897 389 935 q 465 805 465 859 q 427 712 465 751 q 335 674 389 674 q 243 712 280 674 q 204 806 204 751 q 243 897 204 859 q 334 935 281 935 m 335 864 q 293 847 310 864 q 275 804 275 829 q 293 763 275 780 q 335 745 311 745 q 377 763 359 745 q 394 805 394 780 q 377 847 394 829 q 335 864 359 864 z "},"ç":{"ha":585,"x_min":57,"x_max":540,"o":"m 540 520 l 540 469 q 516 423 540 423 q 497 432 510 423 q 433 471 454 463 q 376 479 412 479 q 241 420 291 479 q 195 292 195 367 q 245 156 195 212 q 374 104 291 104 q 497 149 448 104 q 518 161 510 161 q 540 115 540 161 l 540 65 q 538 35 540 41 q 530 22 537 28 q 465 -5 513 7 q 376 -18 418 -18 q 138 81 229 -18 q 57 290 57 171 q 98 443 57 370 q 205 555 138 514 q 376 600 281 600 q 467 589 419 600 q 530 563 514 577 q 538 550 536 557 q 540 520 540 543 m 391 -168 l 312 -268 q 292 -291 298 -287 q 275 -296 286 -296 q 256 -290 268 -296 q 242 -282 244 -283 q 210 -248 210 -267 q 227 -214 210 -239 l 291 -113 q 311 -87 304 -92 q 326 -81 317 -81 q 358 -92 334 -81 l 372 -97 q 403 -114 396 -107 q 410 -134 410 -120 q 391 -168 410 -143 z "},"é":{"ha":680,"x_min":58,"x_max":618,"o":"m 199 260 q 219 184 202 218 q 351 104 260 104 q 490 187 437 104 q 519 207 502 207 q 551 193 527 207 l 577 178 q 604 160 598 166 q 610 142 610 153 q 602 120 610 132 q 347 -18 512 -18 q 121 84 205 -18 q 58 292 58 162 q 92 451 58 377 q 190 561 123 522 q 339 600 256 600 q 515 545 439 600 q 618 295 618 467 q 608 267 618 274 q 566 260 597 260 l 199 260 m 479 370 q 452 429 469 408 q 342 479 412 479 q 257 450 293 479 q 208 370 220 420 l 479 370 m 481 829 l 343 703 q 307 682 319 682 q 286 690 299 682 q 275 696 280 694 q 252 728 252 711 q 270 762 252 738 l 374 901 q 395 924 389 920 q 412 929 401 929 q 444 916 419 929 l 472 901 q 500 883 494 890 q 507 864 507 877 q 481 829 507 851 z "},"è":{"ha":680,"x_min":58,"x_max":618,"o":"m 199 260 q 219 184 202 218 q 351 104 260 104 q 490 187 437 104 q 519 207 502 207 q 551 193 527 207 l 577 178 q 604 160 598 166 q 610 142 610 153 q 602 120 610 132 q 347 -18 512 -18 q 121 84 205 -18 q 58 292 58 162 q 92 451 58 377 q 190 561 123 522 q 339 600 256 600 q 515 545 439 600 q 618 295 618 467 q 608 267 618 274 q 566 260 597 260 l 199 260 m 479 370 q 452 429 469 408 q 342 479 412 479 q 257 450 293 479 q 208 370 220 420 l 479 370 m 219 901 l 248 916 q 279 929 272 929 q 296 924 290 929 q 316 901 302 920 l 421 762 q 439 728 439 738 q 424 702 439 713 q 383 682 396 682 q 347 703 372 682 l 210 829 q 184 865 184 851 q 191 883 184 877 q 219 901 197 890 z "},"ê":{"ha":680,"x_min":58,"x_max":618,"o":"m 199 260 q 219 184 202 218 q 351 104 260 104 q 490 187 437 104 q 519 207 502 207 q 551 193 527 207 l 577 178 q 604 160 598 166 q 610 142 610 153 q 602 120 610 132 q 347 -18 512 -18 q 121 84 205 -18 q 58 292 58 162 q 92 451 58 377 q 190 561 123 522 q 339 600 256 600 q 515 545 439 600 q 618 295 618 467 q 608 267 618 274 q 566 260 597 260 l 199 260 m 479 370 q 452 429 469 408 q 342 479 412 479 q 257 450 293 479 q 208 370 220 420 l 479 370 m 339 787 l 254 706 q 217 684 230 684 q 182 703 207 684 l 173 711 q 150 731 154 725 q 145 747 145 737 q 170 783 145 761 l 303 905 q 339 927 327 927 q 374 905 351 927 l 510 783 q 535 747 535 761 q 531 731 535 737 q 507 711 526 726 l 496 703 q 486 694 490 697 q 462 684 472 684 q 426 706 450 684 l 339 787 z "},"ë":{"ha":680,"x_min":58,"x_max":618,"o":"m 199 260 q 219 184 202 218 q 351 104 260 104 q 490 187 437 104 q 519 207 502 207 q 551 193 527 207 l 577 178 q 604 160 598 166 q 610 142 610 153 q 602 120 610 132 q 347 -18 512 -18 q 121 84 205 -18 q 58 292 58 162 q 92 451 58 377 q 190 561 123 522 q 339 600 256 600 q 515 545 439 600 q 618 295 618 467 q 608 267 618 274 q 566 260 597 260 l 199 260 m 479 370 q 452 429 469 408 q 342 479 412 479 q 257 450 293 479 q 208 370 220 420 l 479 370 m 215 846 q 275 821 250 846 q 300 760 300 795 q 275 699 300 724 q 215 674 250 674 q 154 700 179 674 q 129 761 129 725 q 154 821 129 795 q 215 846 180 846 m 466 846 q 526 821 501 846 q 551 760 551 795 q 526 699 551 724 q 466 674 501 674 q 405 700 430 674 q 380 761 380 725 q 405 821 380 795 q 466 846 431 846 z "},"í":{"ha":306,"x_min":85,"x_max":360,"o":"m 220 534 l 220 51 q 212 9 220 18 q 170 0 203 0 l 136 0 q 94 9 103 0 q 85 51 85 18 l 85 534 q 94 576 85 566 q 136 585 103 585 l 170 585 q 212 576 203 585 q 220 534 220 566 m 335 829 l 197 703 q 160 682 173 682 q 139 690 152 682 q 127 696 132 694 q 104 728 104 711 q 123 762 104 738 l 228 901 q 248 924 242 920 q 265 929 254 929 q 296 916 272 929 l 326 901 q 354 883 348 890 q 360 864 360 877 q 335 829 360 851 z "},"ì":{"ha":306,"x_min":-54,"x_max":220,"o":"m 220 534 l 220 51 q 212 9 220 18 q 170 0 203 0 l 136 0 q 94 9 103 0 q 85 51 85 18 l 85 534 q 94 576 85 566 q 136 585 103 585 l 170 585 q 212 576 203 585 q 220 534 220 566 m -19 901 l 9 916 q 41 929 34 929 q 58 924 52 929 q 78 901 64 920 l 183 762 q 201 728 201 738 q 186 702 201 713 q 145 682 158 682 q 109 703 134 682 l -28 829 q -54 865 -54 851 q -47 883 -54 877 q -19 901 -41 890 z "},"î":{"ha":305,"x_min":-42,"x_max":348,"o":"m 220 534 l 220 51 q 212 9 220 18 q 170 0 203 0 l 136 0 q 94 9 103 0 q 85 51 85 18 l 85 534 q 94 576 85 566 q 136 585 103 585 l 170 585 q 212 576 203 585 q 220 534 220 567 m 152 787 l 66 706 q 31 684 43 684 q -4 703 20 684 l -14 711 q -38 731 -33 725 q -42 747 -42 737 q -17 783 -42 761 l 116 905 q 152 927 140 927 q 187 905 163 927 l 323 783 q 348 747 348 761 q 343 731 348 737 q 320 711 339 725 l 309 703 q 298 694 303 697 q 275 684 286 684 q 239 706 262 684 l 152 787 z "},"ï":{"ha":305,"x_min":-41,"x_max":348,"o":"m 220 534 l 220 51 q 212 9 220 18 q 170 0 202 0 l 136 0 q 94 9 103 0 q 85 51 85 18 l 85 534 q 94 576 85 566 q 136 585 103 585 l 170 585 q 212 576 202 585 q 220 534 220 566 m 45 855 q 105 830 80 855 q 130 770 130 805 q 105 709 130 734 q 45 684 80 684 q -16 709 9 684 q -41 770 -41 734 q -16 830 -41 805 q 45 855 9 855 m 262 855 q 323 830 298 855 q 348 770 348 805 q 323 709 348 734 q 262 684 298 684 q 201 709 227 684 q 176 770 176 734 q 202 830 176 805 q 262 855 227 855 z "},"ñ":{"ha":673,"x_min":85,"x_max":589,"o":"m 220 530 q 295 585 260 570 q 380 600 330 600 q 481 579 435 600 q 552 521 527 557 q 589 358 589 467 l 589 51 q 580 9 589 18 q 538 0 571 0 l 505 0 q 463 9 471 0 q 454 51 454 18 l 454 327 q 436 437 454 408 q 345 479 410 479 q 249 435 277 479 q 220 282 220 391 l 220 51 q 212 9 220 18 q 170 0 203 0 l 136 0 q 95 7 105 0 q 85 37 85 14 l 85 51 l 85 534 q 94 576 85 566 q 136 585 104 585 l 170 585 q 212 576 203 585 q 220 534 220 566 l 220 530 m 243 852 q 352 821 290 852 q 409 793 399 798 q 432 789 419 789 q 488 827 460 789 q 513 840 497 840 q 547 821 525 840 q 559 810 549 819 q 575 783 575 798 q 568 763 575 774 q 427 675 517 675 q 382 682 403 675 q 317 709 361 688 q 235 736 259 736 q 188 706 212 736 q 160 690 176 690 q 129 709 149 690 q 117 718 126 711 q 101 747 101 732 q 127 792 101 761 q 243 852 177 852 z "},"ó":{"ha":738,"x_min":58,"x_max":681,"o":"m 369 600 q 605 495 514 600 q 681 292 681 408 q 582 64 681 155 q 366 -18 495 -18 q 133 88 224 -18 q 58 296 58 176 q 157 519 58 426 q 369 600 243 600 m 369 479 q 233 415 281 479 q 195 287 195 365 q 247 151 195 201 q 369 104 294 104 q 505 166 457 104 q 543 291 543 215 q 492 431 543 380 q 369 479 445 479 m 551 829 l 413 703 q 376 682 389 682 q 355 690 368 682 q 344 696 349 694 q 321 728 321 711 q 339 762 321 738 l 444 901 q 465 924 458 920 q 481 929 471 929 q 513 916 488 929 l 542 901 q 570 883 564 890 q 576 864 576 877 q 551 829 576 851 z "},"ò":{"ha":738,"x_min":58,"x_max":681,"o":"m 369 600 q 605 495 514 600 q 681 292 681 408 q 582 64 681 155 q 366 -18 495 -18 q 133 88 224 -18 q 58 296 58 176 q 157 519 58 426 q 369 600 243 600 m 369 479 q 233 415 281 479 q 195 287 195 365 q 247 151 195 201 q 369 104 294 104 q 505 166 457 104 q 543 291 543 215 q 492 431 543 380 q 369 479 445 479 m 197 901 l 226 916 q 258 929 250 929 q 274 924 268 929 q 294 901 280 920 l 399 762 q 418 728 418 738 q 402 702 418 713 q 361 682 374 682 q 326 703 350 682 l 188 829 q 163 865 163 851 q 169 883 163 877 q 197 901 175 890 z "},"ô":{"ha":738,"x_min":58,"x_max":681,"o":"m 369 600 q 605 495 514 600 q 681 292 681 408 q 582 64 681 155 q 366 -18 495 -18 q 133 88 224 -18 q 58 296 58 176 q 157 519 58 426 q 369 600 243 600 m 369 479 q 233 415 281 479 q 195 287 195 365 q 247 151 195 201 q 369 104 294 104 q 505 166 457 104 q 543 291 543 215 q 492 431 543 380 q 369 479 445 479 m 368 787 l 283 706 q 247 684 259 684 q 212 703 236 684 l 202 711 q 179 731 183 725 q 174 747 174 737 q 199 783 174 761 l 332 905 q 368 927 356 927 q 404 905 380 927 l 539 783 q 564 747 564 761 q 560 731 564 737 q 536 711 555 726 l 526 703 q 515 694 519 697 q 491 684 501 684 q 455 706 479 684 l 368 787 z "},"ö":{"ha":738,"x_min":58,"x_max":681,"o":"m 369 600 q 605 495 514 600 q 681 292 681 408 q 582 64 681 155 q 366 -18 495 -18 q 133 88 224 -18 q 58 296 58 176 q 157 519 58 426 q 369 600 243 600 m 369 479 q 233 415 281 479 q 195 287 195 365 q 247 151 195 201 q 369 104 294 104 q 505 166 457 104 q 543 291 543 215 q 492 431 543 380 q 369 479 445 479 m 243 846 q 304 821 279 846 q 330 760 330 795 q 304 699 330 724 q 244 674 279 674 q 183 700 208 674 q 158 761 158 725 q 183 821 158 795 q 243 846 209 846 m 494 846 q 555 821 530 846 q 581 760 581 795 q 555 699 581 724 q 495 674 530 674 q 434 700 459 674 q 409 761 409 725 q 434 821 409 795 q 494 846 460 846 z "},"õ":{"ha":738,"x_min":58,"x_max":681,"o":"m 369 600 q 605 495 514 600 q 681 292 681 408 q 582 64 681 155 q 366 -18 495 -18 q 133 88 224 -18 q 58 296 58 176 q 157 519 58 426 q 369 600 243 600 m 369 479 q 233 415 281 479 q 195 287 195 365 q 247 151 195 201 q 369 104 294 104 q 505 166 457 104 q 543 291 543 215 q 492 431 543 380 q 369 479 445 479 m 276 852 q 385 821 322 852 q 441 793 431 798 q 465 789 452 789 q 520 827 493 789 q 546 840 530 840 q 579 821 557 840 q 591 810 581 819 q 608 783 608 798 q 601 763 608 774 q 460 675 550 675 q 415 682 435 675 q 350 709 394 688 q 268 736 292 736 q 220 706 244 736 q 193 690 208 690 q 161 709 182 690 q 149 718 159 711 q 134 747 134 732 q 159 792 134 761 q 276 852 210 852 z "},"ú":{"ha":669,"x_min":85,"x_max":585,"o":"m 220 534 l 220 249 q 237 156 220 186 q 335 104 266 104 q 422 139 394 104 q 450 249 450 174 l 450 534 q 458 576 450 566 q 500 585 467 585 l 534 585 q 576 576 567 585 q 585 534 585 566 l 585 246 q 571 135 585 177 q 523 56 557 92 q 335 -18 452 -18 q 147 56 218 -18 q 99 135 113 92 q 85 246 85 177 l 85 534 q 94 576 85 566 q 136 585 103 585 l 170 585 q 212 576 203 585 q 220 534 220 566 m 517 829 l 378 703 q 342 682 355 682 q 321 690 334 682 q 310 696 315 694 q 287 728 287 711 q 305 762 287 738 l 410 901 q 430 924 424 920 q 447 929 437 929 q 479 916 454 929 l 507 901 q 536 883 530 890 q 542 864 542 877 q 517 829 542 851 z "},"ù":{"ha":669,"x_min":85,"x_max":585,"o":"m 220 534 l 220 249 q 237 156 220 186 q 335 104 266 104 q 422 139 394 104 q 450 249 450 174 l 450 534 q 458 576 450 566 q 500 585 467 585 l 534 585 q 576 576 567 585 q 585 534 585 566 l 585 246 q 571 135 585 177 q 523 56 557 92 q 335 -18 452 -18 q 147 56 218 -18 q 99 135 113 92 q 85 246 85 177 l 85 534 q 94 576 85 566 q 136 585 103 585 l 170 585 q 212 576 203 585 q 220 534 220 566 m 163 901 l 191 916 q 224 929 216 929 q 240 924 234 929 q 260 901 246 920 l 365 762 q 384 728 384 737 q 368 702 384 713 q 328 682 340 682 q 292 703 315 682 l 153 829 q 128 865 128 851 q 134 883 128 877 q 163 901 140 890 z "},"û":{"ha":669,"x_min":85,"x_max":585,"o":"m 220 534 l 220 249 q 237 156 220 186 q 335 104 266 104 q 422 139 394 104 q 450 249 450 174 l 450 534 q 458 576 450 566 q 500 585 467 585 l 534 585 q 576 576 567 585 q 585 534 585 566 l 585 246 q 571 135 585 177 q 523 56 557 92 q 335 -18 452 -18 q 147 56 218 -18 q 99 135 113 92 q 85 246 85 177 l 85 534 q 94 576 85 566 q 136 585 103 585 l 170 585 q 212 576 203 585 q 220 534 220 566 m 334 787 l 248 706 q 212 684 225 684 q 178 703 202 684 l 168 711 q 144 731 149 726 q 140 747 140 737 q 165 783 140 761 l 298 905 q 334 927 322 927 q 370 905 345 927 l 505 783 q 530 747 530 761 q 525 731 530 737 q 502 711 520 725 l 492 703 q 481 694 485 697 q 456 684 467 684 q 421 706 444 684 l 334 787 z "},"ü":{"ha":669,"x_min":85,"x_max":585,"o":"m 220 534 l 220 249 q 237 156 220 186 q 335 104 266 104 q 422 139 394 104 q 450 249 450 174 l 450 534 q 458 576 450 566 q 500 585 467 585 l 534 585 q 576 576 567 585 q 585 534 585 566 l 585 246 q 571 135 585 177 q 523 56 557 92 q 335 -18 452 -18 q 147 56 218 -18 q 99 135 113 92 q 85 246 85 177 l 85 534 q 94 576 85 566 q 136 585 103 585 l 170 585 q 212 576 203 585 q 220 534 220 566 m 210 846 q 271 821 245 846 q 296 760 296 795 q 271 699 296 724 q 210 674 245 674 q 149 700 174 674 q 124 761 124 725 q 150 821 124 795 q 210 846 175 846 m 461 846 q 522 821 496 846 q 547 760 547 795 q 522 699 547 724 q 461 674 496 674 q 400 700 425 674 q 375 761 375 725 q 400 821 375 795 q 461 846 426 846 z "},"†":{"ha":760,"x_min":121,"x_max":638,"o":"m 447 799 l 598 799 q 638 759 638 799 l 638 708 q 598 668 638 668 l 447 668 l 447 -207 q 408 -246 447 -246 l 351 -246 q 312 -207 312 -246 l 312 668 l 161 668 q 121 708 121 668 l 121 759 q 161 799 121 799 l 312 799 l 312 974 q 351 1013 312 1013 l 408 1013 q 447 974 447 1013 l 447 799 z "},"°":{"ha":787,"x_min":208,"x_max":578,"o":"m 396 939 q 524 885 469 939 q 578 755 578 832 q 524 624 578 677 q 393 570 470 570 q 262 624 317 570 q 208 754 208 677 q 262 885 208 833 q 396 939 319 939 m 392 847 q 325 820 353 847 q 296 754 296 792 q 325 683 296 713 q 393 653 354 653 q 462 683 433 653 q 490 753 490 712 q 462 820 490 793 q 392 847 434 847 z "},"¢":{"ha":699,"x_min":90,"x_max":568,"o":"m 431 771 q 555 737 522 760 q 566 724 564 731 q 568 692 568 716 l 568 641 q 561 601 568 612 q 537 590 554 590 q 522 595 530 590 q 469 631 513 600 q 398 646 449 646 q 268 591 318 646 q 224 461 224 541 q 277 328 224 375 q 393 283 326 283 q 488 306 444 283 q 515 330 496 309 q 537 339 524 339 q 561 328 554 339 q 568 290 568 317 l 568 237 q 566 206 568 213 q 556 193 564 199 q 431 157 511 167 l 431 88 q 423 47 431 58 q 393 37 416 37 l 379 37 l 365 37 q 335 47 342 37 q 328 88 328 58 l 328 162 q 235 200 267 181 q 171 253 202 218 q 90 463 90 342 q 159 665 90 582 q 328 769 217 734 l 328 836 q 335 877 328 867 q 365 887 342 887 l 379 887 l 393 887 q 423 877 416 887 q 431 836 431 867 l 431 771 z "},"£":{"ha":735,"x_min":33,"x_max":725,"o":"m 310 456 l 439 456 q 480 449 470 456 q 490 420 490 441 q 490 407 490 408 q 482 367 491 376 q 439 358 473 358 l 350 358 q 366 273 366 302 q 348 178 366 241 q 421 152 399 160 q 528 123 500 123 q 604 180 571 123 q 633 199 616 199 q 666 184 642 199 l 693 169 q 720 150 714 156 q 725 132 725 144 q 715 106 725 123 q 530 -13 649 -13 q 376 23 475 -13 q 282 54 308 47 q 233 61 256 61 q 190 50 206 61 q 154 7 174 39 q 128 -10 143 -10 q 95 3 119 -10 l 68 16 q 40 34 46 27 q 33 52 33 41 q 64 107 33 66 q 212 192 121 183 q 225 278 225 241 q 205 358 225 319 l 98 358 l 98 456 l 155 456 q 97 654 97 575 q 199 867 97 782 q 406 941 287 941 q 584 888 508 941 q 667 788 633 853 q 700 663 700 724 q 693 642 700 648 q 661 626 686 635 l 623 612 q 591 604 600 604 q 563 637 564 604 q 528 755 561 712 q 406 810 486 810 q 267 738 313 810 q 240 643 240 696 q 255 568 240 608 q 310 456 270 528 z "},"§":{"ha":787,"x_min":119,"x_max":672,"o":"m 258 596 q 151 776 151 661 q 242 963 151 889 q 415 1023 317 1023 q 589 956 518 1023 q 647 872 625 922 q 668 774 668 823 q 658 748 668 754 q 617 741 648 741 l 592 741 q 554 746 563 741 q 543 768 545 751 q 526 831 540 804 q 416 894 492 894 q 314 851 352 894 q 284 768 284 818 q 326 685 284 713 q 443 635 351 668 q 595 563 547 599 q 672 389 672 506 q 643 269 672 317 q 542 176 613 220 q 621 97 597 139 q 644 -7 644 55 q 564 -193 644 -121 q 382 -259 492 -259 q 194 -190 269 -259 q 119 -21 119 -121 q 130 5 119 -1 q 170 12 140 12 l 201 12 q 238 7 229 12 q 250 -13 247 3 q 385 -130 273 -130 q 482 -90 450 -130 q 509 -5 509 -57 q 479 78 509 52 q 345 146 450 105 q 202 218 244 184 q 127 387 127 275 q 258 596 127 538 m 399 524 q 300 484 340 524 q 259 386 259 444 q 300 291 259 331 q 399 252 342 252 q 498 292 457 252 q 539 388 539 332 q 498 484 539 445 q 399 524 456 524 z "},"•":{"ha":926,"x_min":272,"x_max":654,"o":"m 466 667 q 597 610 542 667 q 654 473 654 553 q 598 335 654 392 q 463 278 542 278 q 329 334 385 278 q 272 472 272 392 q 329 610 272 555 q 466 667 386 667 z "},"¶":{"ha":787,"x_min":37,"x_max":713,"o":"m 265 465 q 247 464 252 464 q 127 500 179 464 q 37 690 37 562 q 87 848 37 785 q 309 926 151 926 l 674 926 q 713 895 713 926 q 706 871 713 884 l 674 818 q 637 796 661 796 l 625 796 l 625 -93 q 585 -132 625 -132 l 536 -132 q 496 -93 496 -132 l 496 796 l 393 796 l 393 -93 q 354 -132 393 -132 l 304 -132 q 265 -93 265 -132 l 265 465 z "},"ß":{"ha":764,"x_min":37,"x_max":707,"o":"m 85 464 q 75 464 78 464 q 44 474 52 464 q 37 515 37 484 l 37 534 q 46 575 37 566 q 85 585 54 585 l 85 732 q 139 932 85 860 q 227 1000 172 975 q 361 1029 290 1029 q 570 943 494 1029 q 635 770 635 869 q 536 585 635 652 q 618 528 583 564 q 707 311 707 441 q 637 115 707 201 q 517 18 590 54 q 373 -19 444 -19 q 346 -9 353 -19 q 339 32 339 1 l 339 61 q 347 102 339 93 q 381 113 354 112 q 460 135 420 114 q 527 191 499 157 q 569 314 569 244 q 509 452 569 399 q 384 503 460 496 q 347 515 354 506 q 339 555 339 524 l 339 583 q 346 624 339 614 q 380 635 353 633 q 477 693 440 638 q 502 776 502 731 q 455 878 502 840 q 362 907 418 907 q 240 842 272 907 q 220 666 220 803 l 220 51 q 212 9 220 18 q 170 0 203 0 l 136 0 q 94 9 103 0 q 85 51 85 18 l 85 464 z "},"®":{"ha":1053,"x_min":46,"x_max":1006,"o":"m 574 417 l 710 241 q 722 215 722 227 q 712 194 722 203 q 690 185 702 185 l 648 185 q 610 204 625 184 l 460 405 l 459 224 q 420 185 459 185 l 393 185 q 354 224 354 185 l 354 701 q 393 741 354 741 l 465 741 q 621 708 568 741 q 674 651 654 688 q 694 574 694 614 q 662 477 694 520 q 581 419 631 434 l 574 417 m 459 494 l 477 494 q 591 572 591 494 q 481 646 591 646 l 459 646 l 459 494 m 519 945 q 767 881 655 945 q 942 703 877 818 q 1006 454 1006 590 q 942 221 1006 333 q 766 45 877 109 q 528 -19 655 -19 q 287 45 399 -19 q 111 222 176 110 q 46 464 46 334 q 119 718 46 601 q 311 893 189 832 q 519 945 414 945 m 528 875 l 522 875 q 319 816 416 875 q 168 652 221 756 q 123 463 123 563 q 180 254 123 351 q 328 104 235 159 q 530 51 421 51 q 724 104 632 51 q 873 253 818 158 q 928 469 928 350 q 873 671 928 574 q 725 822 818 768 q 528 875 633 875 z "},"©":{"ha":1053,"x_min":46,"x_max":1006,"o":"m 711 682 l 711 648 q 702 625 711 635 q 680 615 692 615 q 605 648 673 615 q 549 656 588 656 q 398 586 455 656 q 355 461 355 532 q 418 318 355 373 q 546 270 474 270 q 606 278 582 270 q 661 307 631 286 q 680 312 669 312 q 702 302 692 312 q 711 279 711 293 l 711 245 q 696 212 711 221 q 630 186 675 197 q 547 175 585 175 q 332 262 419 175 q 249 461 249 345 q 345 673 249 586 q 553 751 431 751 q 694 717 635 751 q 711 682 711 707 m 519 945 q 767 881 655 945 q 942 703 877 818 q 1006 454 1006 590 q 942 221 1006 333 q 766 45 877 109 q 528 -19 655 -19 q 287 45 399 -19 q 111 222 176 110 q 46 464 46 334 q 119 718 46 601 q 311 893 189 832 q 519 945 414 945 m 528 875 l 522 875 q 319 816 416 875 q 168 652 221 756 q 123 463 123 563 q 180 254 123 351 q 328 104 235 159 q 530 51 421 51 q 724 104 632 51 q 873 253 818 158 q 928 469 928 350 q 873 671 928 574 q 725 822 818 768 q 528 875 633 875 z "},"™":{"ha":975,"x_min":-1,"x_max":930,"o":"m 212 835 l 212 437 q 174 398 212 398 l 153 398 q 116 437 116 398 l 116 835 l 38 835 q -1 871 -1 835 l -1 889 q 38 926 -1 926 l 288 926 q 328 889 328 926 l 328 871 q 288 835 328 835 l 212 835 m 649 584 l 780 875 q 813 900 791 900 q 846 867 839 900 l 929 444 q 930 429 930 437 q 921 407 930 415 q 895 398 911 398 l 874 398 q 834 432 840 398 l 790 685 l 682 456 q 649 431 669 431 q 616 456 629 431 l 507 685 l 464 432 q 423 398 458 398 l 403 398 q 377 407 387 398 q 368 429 368 415 q 369 444 368 435 l 452 867 q 486 900 459 900 q 518 875 507 900 l 649 584 z "},"´":{"ha":694,"x_min":299,"x_max":555,"o":"m 529 829 l 391 703 q 355 682 367 682 q 334 690 347 682 q 322 696 326 694 q 299 728 299 711 q 317 762 299 738 l 422 901 q 443 924 437 920 q 459 929 449 929 q 491 916 467 929 l 520 901 q 549 883 543 890 q 555 864 555 877 q 529 829 555 851 z "},"¨":{"ha":694,"x_min":136,"x_max":559,"o":"m 222 846 q 283 821 258 846 q 308 760 308 795 q 283 699 308 724 q 222 674 258 674 q 161 700 186 674 q 136 761 136 725 q 162 821 136 795 q 222 846 187 846 m 473 846 q 534 821 509 846 q 559 760 559 795 q 534 699 559 724 q 473 674 509 674 q 412 700 437 674 q 387 761 387 725 q 413 821 387 795 q 473 846 438 846 z "},"≠":{"ha":745,"x_min":53,"x_max":692,"o":"m 522 629 l 641 629 q 682 622 671 629 q 692 592 692 614 l 692 578 l 692 565 q 682 535 692 543 q 641 528 671 528 l 463 528 l 410 435 l 641 435 q 682 428 671 435 q 692 398 692 420 l 692 385 l 692 371 q 682 341 692 349 q 641 334 672 334 l 351 334 l 275 201 q 256 174 262 180 q 237 168 250 168 q 205 183 230 168 l 197 187 q 170 206 176 199 q 164 224 164 213 q 178 257 164 233 l 222 334 l 104 334 q 63 341 73 334 q 53 371 53 349 l 53 385 l 53 398 q 63 428 53 420 q 104 435 73 435 l 281 435 l 335 528 l 104 528 q 63 535 73 528 q 53 565 53 543 l 53 578 l 53 592 q 63 622 53 614 q 104 629 73 629 l 394 629 l 470 762 q 489 789 483 783 q 507 795 495 795 q 540 780 515 795 l 547 776 q 575 757 569 764 q 581 739 581 750 q 566 706 581 730 l 522 629 z "},"Æ":{"ha":1286,"x_min":32,"x_max":1256,"o":"m 661 221 l 269 221 l 184 37 q 164 5 171 9 q 127 0 157 0 l 83 0 q 47 4 56 0 q 32 28 32 11 q 43 62 32 38 l 441 890 q 448 902 446 899 q 463 922 455 918 q 498 926 471 926 l 828 926 q 865 921 858 926 q 885 889 873 916 l 899 856 q 910 822 910 831 q 895 798 910 805 q 859 794 886 794 l 558 794 l 655 570 l 974 570 q 1011 566 1004 570 q 1031 534 1019 561 l 1045 500 q 1056 467 1056 476 q 1045 445 1056 451 q 1005 439 1034 439 l 713 439 l 845 132 l 1175 132 q 1213 127 1205 132 q 1232 94 1220 122 l 1246 61 q 1256 28 1256 38 q 1240 3 1256 10 q 1205 0 1232 0 l 799 0 q 762 5 769 0 q 743 37 755 9 l 661 221 m 606 353 l 473 656 l 330 353 l 606 353 z "},"Ø":{"ha":1152,"x_min":77,"x_max":1074,"o":"m 875 846 l 971 941 q 1007 964 994 964 q 1043 941 1019 964 l 1051 932 q 1074 897 1074 909 q 1050 861 1074 884 l 957 766 q 1066 460 1066 630 q 1002 223 1066 334 q 827 49 937 113 q 583 -18 714 -18 q 277 90 416 -18 l 180 -7 q 144 -30 157 -30 q 109 -6 132 -30 l 100 1 q 77 37 77 25 q 101 73 77 50 l 197 168 q 100 459 100 298 q 247 806 100 667 q 428 916 325 881 q 587 943 505 943 q 875 846 743 943 m 777 753 q 586 812 689 812 q 321 690 421 812 q 241 457 241 591 q 253 360 241 401 q 298 264 265 319 l 777 753 m 858 675 l 376 184 q 585 114 477 114 q 758 163 676 114 q 885 296 841 213 q 925 463 925 372 q 858 675 925 577 z "},"∞":{"ha":926,"x_min":24,"x_max":901,"o":"m 467 382 q 243 254 368 254 q 74 328 136 254 q 24 474 24 386 q 93 636 24 576 q 243 692 156 692 q 460 565 366 692 q 684 692 552 692 q 857 612 795 692 q 901 473 901 555 q 832 307 901 368 q 685 253 771 253 q 467 382 558 253 m 532 473 q 666 371 598 371 q 736 400 708 371 q 764 473 764 429 q 728 552 764 523 q 665 574 700 574 q 532 473 598 574 m 394 473 q 260 574 329 574 q 190 545 218 574 q 161 473 161 515 q 198 394 161 423 q 261 372 226 372 q 394 473 328 372 z "},"±":{"ha":745,"x_min":53,"x_max":692,"o":"m 317 537 l 317 757 q 357 796 317 796 l 389 796 q 428 757 428 796 l 428 537 l 652 537 q 692 497 692 537 l 692 465 q 652 426 692 426 l 428 426 l 428 225 q 389 185 428 185 l 357 185 q 317 225 317 185 l 317 426 l 92 426 q 53 465 53 426 l 53 497 q 92 537 53 537 l 317 537 m 53 39 l 53 72 q 92 111 53 111 l 652 111 q 692 72 692 111 l 692 39 q 652 0 692 0 l 92 0 q 53 39 53 0 z "},"≤":{"ha":694,"x_min":46,"x_max":648,"o":"m 648 886 l 648 754 l 193 549 l 648 344 l 648 212 l 46 488 l 46 606 l 648 886 m 648 172 l 648 43 l 46 43 l 46 172 l 648 172 z "},"≥":{"ha":694,"x_min":46,"x_max":648,"o":"m 46 212 l 46 344 l 500 549 l 46 754 l 46 886 l 648 606 l 648 488 l 46 212 m 46 43 l 46 172 l 648 172 l 648 43 l 46 43 z "},"¥":{"ha":743,"x_min":39,"x_max":703,"o":"m 294 421 l 237 523 l 79 523 q 39 561 39 523 l 39 583 q 79 621 39 621 l 184 621 l 46 871 q 39 895 39 885 q 78 926 39 926 l 142 926 q 180 903 168 926 l 370 555 l 562 903 q 600 926 574 926 l 664 926 q 692 917 682 926 q 703 895 703 909 q 696 871 703 884 l 558 621 l 663 621 q 703 583 703 621 l 703 561 q 663 523 703 523 l 504 523 l 448 421 l 663 421 q 703 383 703 421 l 703 361 q 663 323 703 323 l 436 323 l 436 39 q 396 0 436 0 l 345 0 q 305 39 305 0 l 305 323 l 79 323 q 39 361 39 323 l 39 383 q 79 421 39 421 l 294 421 z "},"µ":{"ha":676,"x_min":88,"x_max":587,"o":"m 214 14 l 222 -278 q 182 -319 223 -319 l 127 -319 q 88 -279 88 -319 l 88 545 q 127 585 88 585 l 184 585 q 223 545 223 585 l 223 246 q 338 104 223 104 q 425 139 397 104 q 452 249 452 174 l 452 545 q 492 585 452 585 l 548 585 q 587 545 587 585 l 587 246 q 573 134 587 177 q 526 56 559 92 q 342 -18 455 -18 q 214 14 273 -18 z "},"∂":{"ha":694,"x_min":33,"x_max":661,"o":"m 103 806 l 121 927 q 334 876 245 911 q 538 726 453 829 q 661 356 661 574 q 600 122 661 214 q 488 20 557 56 q 347 -14 423 -14 q 166 44 248 -14 q 84 130 117 79 q 33 302 33 208 q 57 422 33 363 q 123 523 81 481 q 321 602 204 602 q 423 583 380 602 q 509 519 466 564 q 439 642 472 600 q 349 720 406 684 q 103 806 243 788 m 349 499 q 225 441 276 499 q 174 296 174 383 q 233 142 174 202 q 347 92 281 92 q 469 151 419 92 q 519 300 519 212 q 458 457 519 401 q 349 499 412 499 z "},"∑":{"ha":926,"x_min":34,"x_max":858,"o":"m 845 1042 l 845 709 l 720 709 l 706 911 l 190 911 l 538 373 l 190 -218 l 719 -218 l 727 -17 l 858 -17 l 858 -347 l 34 -347 l 34 -203 l 376 373 l 34 898 l 34 1042 l 845 1042 z "},"∏":{"ha":994,"x_min":53,"x_max":940,"o":"m 53 1042 l 940 1042 l 940 912 l 827 912 l 827 -218 l 940 -218 l 940 -347 l 575 -347 l 575 -218 l 688 -218 l 688 912 l 304 912 l 304 -218 l 416 -218 l 416 -347 l 53 -347 l 53 -218 l 165 -218 l 165 912 l 53 912 l 53 1042 z "},"∫":{"ha":694,"x_min":101,"x_max":593,"o":"m 101 -333 l 128 -209 q 198 -222 169 -222 q 275 -153 267 -222 q 277 -47 277 -132 l 278 715 q 280 849 278 810 q 291 917 283 888 q 358 1008 307 975 q 483 1042 409 1042 q 593 1027 527 1042 l 566 903 q 496 917 526 917 q 419 846 427 917 q 416 673 417 831 l 416 -21 q 410 -194 416 -151 q 378 -272 404 -237 q 204 -346 326 -346 q 101 -333 146 -346 z "},"ª":{"ha":503,"x_min":56,"x_max":429,"o":"m 340 589 q 231 545 290 545 q 100 604 151 545 q 56 733 56 656 q 112 871 56 819 q 229 918 161 918 q 340 871 292 918 l 340 876 q 376 908 340 908 l 392 908 q 429 869 429 908 l 429 595 q 392 555 429 555 l 376 555 q 340 589 343 555 m 243 841 q 172 808 199 841 q 146 729 146 776 q 174 652 146 682 q 244 621 202 621 q 317 652 289 621 q 345 731 345 682 q 314 814 345 783 q 243 841 286 841 m 57 437 l 57 447 q 97 481 57 481 l 388 481 q 427 447 427 481 l 427 437 q 388 403 427 403 l 97 403 q 57 437 57 403 z "},"º":{"ha":504,"x_min":56,"x_max":447,"o":"m 252 918 q 399 854 342 918 q 447 732 447 802 q 385 594 447 650 q 250 545 330 545 q 104 609 161 545 q 56 734 56 661 q 119 869 56 812 q 252 918 172 918 m 251 841 q 174 810 203 841 q 146 729 146 780 q 175 651 146 681 q 252 621 204 621 q 329 651 300 621 q 357 731 357 681 q 329 811 357 781 q 251 841 300 841 m 62 442 l 62 452 q 101 486 62 486 l 393 486 q 432 452 432 486 l 432 442 q 393 408 432 408 l 101 408 q 62 442 62 408 z "},"Ω":{"ha":926,"x_min":39,"x_max":886,"o":"m 39 0 l 39 125 l 260 125 q 132 229 176 176 q 39 504 39 340 q 170 829 39 701 q 463 948 291 948 q 755 829 635 948 q 886 504 886 701 q 768 200 886 317 q 667 125 732 164 l 886 125 l 886 0 l 518 0 l 518 111 q 643 208 597 157 q 742 492 742 319 q 699 672 742 596 q 582 792 654 750 q 464 823 529 823 q 279 743 359 823 q 184 486 184 649 q 311 180 184 297 q 408 111 347 146 l 408 0 l 39 0 z "},"æ":{"ha":1057,"x_min":58,"x_max":998,"o":"m 576 262 q 599 182 581 215 q 655 125 619 146 q 731 104 690 104 q 805 123 774 104 q 869 193 836 143 q 897 210 880 210 q 929 195 904 210 l 956 181 q 983 162 977 169 q 989 144 989 156 q 980 121 989 135 q 878 24 942 60 q 724 -18 801 -18 q 513 76 606 -18 q 297 -18 440 -18 q 111 47 177 -18 q 58 178 58 101 q 126 326 58 266 q 288 376 184 376 q 441 337 363 376 q 428 418 439 393 q 301 479 401 479 q 176 465 239 479 q 170 465 174 465 q 145 475 152 465 q 139 515 139 486 l 139 536 q 142 570 139 562 q 155 583 144 578 q 216 594 165 589 q 307 600 267 600 q 513 518 451 600 q 718 600 592 600 q 888 549 817 600 q 969 446 941 511 q 998 300 998 380 q 988 269 998 277 q 947 262 979 262 l 576 262 m 856 371 q 724 479 831 479 q 585 371 616 479 l 856 371 m 304 259 q 213 228 245 259 q 189 178 189 205 q 223 122 189 144 q 309 100 258 100 q 406 131 372 100 q 433 182 433 155 q 401 233 433 212 q 304 259 364 259 z "},"ø":{"ha":811,"x_min":70,"x_max":741,"o":"m 593 543 l 656 605 q 692 628 679 628 q 724 610 706 628 q 741 578 741 592 q 718 542 741 565 l 657 481 q 722 291 722 394 q 623 64 722 155 q 412 -18 536 -18 q 219 45 302 -18 l 157 -18 q 121 -41 133 -41 q 88 -23 106 -41 q 70 9 70 -5 q 94 45 70 22 l 157 109 q 99 293 99 193 q 198 519 99 427 q 410 600 284 600 q 593 543 509 600 m 496 451 q 411 469 456 469 q 274 409 321 469 q 237 290 237 361 q 255 203 237 248 l 496 451 m 561 390 l 315 136 q 410 112 359 112 q 547 171 498 112 q 585 290 585 218 q 561 390 585 343 z "},"¿":{"ha":602,"x_min":74,"x_max":528,"o":"m 184 494 l 149 494 q 108 500 119 494 q 98 526 98 507 q 132 625 98 576 q 207 689 159 665 q 305 713 254 713 q 453 649 393 713 q 508 505 508 591 q 471 393 508 435 q 346 319 435 351 q 243 275 267 290 q 210 206 210 252 q 235 141 210 165 q 301 116 260 116 q 368 141 344 116 q 393 208 393 165 q 391 221 393 213 q 391 227 391 224 q 402 250 391 243 q 441 256 413 256 l 475 256 q 518 248 509 256 q 528 206 528 239 q 500 98 528 147 q 419 17 472 47 q 302 -13 366 -13 q 134 56 201 -13 q 74 210 74 117 q 111 334 74 279 q 174 393 136 371 q 295 440 212 415 q 355 471 337 453 q 373 516 373 488 q 352 566 373 546 q 302 587 332 587 q 256 571 272 587 q 235 520 239 555 q 222 499 233 505 q 184 494 212 494 m 301 943 q 360 919 336 943 q 385 859 385 895 q 360 800 385 825 q 301 776 335 776 q 242 800 267 776 q 218 859 218 825 q 242 919 218 895 q 301 943 267 943 z "},"¡":{"ha":408,"x_min":120,"x_max":287,"o":"m 203 943 q 263 919 239 943 q 287 859 287 895 q 262 800 287 825 q 203 776 237 776 q 144 800 169 776 q 120 859 120 825 q 144 919 120 895 q 203 943 169 943 m 271 669 l 271 51 q 262 9 271 18 q 220 0 253 0 l 186 0 q 144 9 153 0 q 136 51 136 18 l 136 669 q 144 711 136 701 q 186 720 153 720 l 220 720 q 262 711 253 720 q 271 669 271 701 z "},"¬":{"ha":694,"x_min":46,"x_max":648,"o":"m 509 0 l 509 241 l 46 241 l 46 370 l 648 370 l 648 0 l 509 0 z "},"√":{"ha":926,"x_min":0,"x_max":926,"o":"m 926 1153 l 926 1023 l 665 1023 l 399 0 l 220 0 l 123 397 l 0 397 l 0 526 l 237 526 l 276 374 q 305 176 286 337 l 317 176 q 351 380 332 288 q 408 618 370 472 l 545 1153 l 926 1153 z "},"ƒ":{"ha":738,"x_min":22,"x_max":669,"o":"m 455 585 l 552 585 q 591 578 583 585 q 602 555 602 570 q 600 530 602 548 l 599 523 q 586 484 594 491 q 545 476 577 476 l 436 476 l 371 113 q 332 -52 350 -5 q 205 -191 293 -151 q 61 -222 137 -222 q 22 -193 22 -222 q 25 -166 22 -186 l 31 -137 q 42 -100 35 -108 q 73 -92 50 -92 q 177 -46 144 -89 q 231 111 211 -3 l 294 476 l 237 476 q 197 483 205 476 q 186 506 186 492 q 189 530 186 513 l 190 538 q 203 578 195 570 q 243 585 212 585 l 315 585 l 341 735 q 404 898 358 837 q 588 979 463 979 q 650 970 631 979 q 669 945 669 962 q 665 917 669 939 l 660 890 q 649 855 655 864 q 628 846 642 846 q 618 846 624 846 q 575 852 587 852 q 517 819 540 852 q 481 717 494 787 l 455 585 z "},"≈":{"ha":694,"x_min":12,"x_max":683,"o":"m 90 484 l 12 534 q 62 629 36 591 q 212 710 119 710 q 361 668 261 710 q 444 636 423 642 q 489 629 465 629 q 550 647 526 629 q 602 713 574 665 l 683 666 q 594 539 639 574 q 471 496 539 496 q 274 559 429 496 q 200 576 231 576 q 141 555 166 576 q 90 484 117 534 m 90 227 l 12 278 q 62 373 37 336 q 212 454 119 454 q 361 412 262 454 q 444 380 421 387 q 490 373 466 373 q 550 391 526 373 q 602 456 574 409 l 683 410 q 594 283 639 317 q 471 239 539 239 q 274 303 429 239 q 200 321 232 321 q 142 300 166 321 q 90 227 117 279 z "},"∆":{"ha":926,"x_min":31,"x_max":895,"o":"m 31 0 l 385 926 l 536 926 l 895 0 l 31 0 m 229 130 l 693 130 l 461 757 l 229 130 z "},"«":{"ha":707,"x_min":64,"x_max":621,"o":"m 454 297 l 601 108 q 621 73 621 83 q 616 57 621 62 q 591 36 611 51 l 584 31 q 549 12 559 12 q 533 17 539 12 q 513 40 528 21 l 340 262 q 321 296 321 286 q 339 332 321 307 l 513 562 q 533 586 528 581 q 550 591 539 591 q 584 572 559 591 l 591 567 q 616 546 611 552 q 621 529 621 541 q 602 495 621 520 l 454 297 m 197 297 l 345 108 q 363 73 363 84 q 358 57 363 63 q 334 36 353 50 l 327 31 q 293 12 302 12 q 276 17 282 12 q 256 40 271 21 l 83 262 q 64 296 64 286 q 82 332 64 307 l 256 562 q 276 586 270 581 q 293 591 283 591 q 328 572 303 591 l 335 567 q 359 546 355 552 q 363 529 363 541 q 345 495 363 519 l 197 297 z "},"»":{"ha":707,"x_min":86,"x_max":644,"o":"m 254 297 l 104 495 q 86 530 86 520 q 91 547 86 541 q 115 567 96 553 l 123 572 q 157 591 147 591 q 174 586 168 591 q 194 562 180 581 l 368 332 q 387 297 387 307 q 368 262 387 286 l 195 40 q 174 17 180 21 q 157 12 168 12 q 123 31 148 12 l 115 36 q 92 57 97 50 q 87 73 87 63 q 106 108 87 83 l 254 297 m 511 297 l 361 495 q 343 530 343 520 q 348 547 343 541 q 372 567 353 553 l 380 572 q 414 591 404 591 q 431 586 425 591 q 451 562 437 581 l 625 332 q 644 297 644 307 q 624 262 644 287 l 451 40 q 431 17 437 21 q 414 12 425 12 q 380 31 405 12 l 372 36 q 349 56 354 50 q 344 73 344 63 q 363 108 344 84 l 511 297 z "},"…":{"ha":1160,"x_min":110,"x_max":1050,"o":"m 193 150 q 252 125 228 150 q 277 66 277 101 q 252 7 277 31 q 193 -18 228 -18 q 134 7 159 -18 q 110 67 110 32 q 135 125 110 101 q 193 150 159 150 m 579 150 q 639 125 614 150 q 663 66 663 101 q 639 7 663 31 q 580 -18 614 -18 q 520 7 545 -18 q 496 67 496 32 q 520 125 496 101 q 579 150 545 150 m 966 150 q 1025 125 1001 150 q 1050 66 1050 101 q 1025 7 1050 31 q 966 -18 1001 -18 q 907 7 932 -18 q 883 67 883 32 q 908 125 883 101 q 966 150 932 150 z "},"À":{"ha":909,"x_min":22,"x_max":888,"o":"m 654 225 l 258 225 l 172 37 q 166 24 167 26 q 151 4 159 7 q 115 0 142 0 l 73 0 q 37 4 46 0 q 22 28 22 11 q 33 62 22 37 l 426 905 q 443 935 437 928 q 462 941 450 941 q 481 935 475 941 q 498 905 488 928 l 877 62 q 888 28 888 37 q 877 6 888 12 q 837 0 865 0 l 792 0 q 754 5 762 0 q 735 37 747 9 l 654 225 m 597 357 l 460 671 l 316 357 l 597 357 m 296 1212 l 325 1232 q 359 1249 349 1249 q 395 1225 372 1249 l 517 1103 q 540 1067 540 1080 q 520 1035 540 1053 q 486 1017 500 1017 q 452 1034 477 1017 l 297 1139 q 267 1175 267 1159 q 296 1212 267 1192 z "},"Ã":{"ha":909,"x_min":22,"x_max":888,"o":"m 654 225 l 258 225 l 172 37 q 166 24 167 26 q 151 4 159 7 q 115 0 142 0 l 73 0 q 37 4 46 0 q 22 28 22 11 q 33 62 22 37 l 426 905 q 443 935 437 928 q 462 941 450 941 q 481 935 475 941 q 498 905 488 928 l 877 62 q 888 28 888 37 q 877 6 888 12 q 837 0 865 0 l 792 0 q 754 5 762 0 q 735 37 747 9 l 654 225 m 597 357 l 460 671 l 316 357 l 597 357 m 648 1179 l 680 1152 q 692 1127 692 1141 q 671 1085 692 1112 q 545 1020 618 1020 q 500 1026 520 1020 q 435 1053 479 1032 q 353 1081 376 1081 q 305 1050 329 1081 q 279 1035 294 1035 q 262 1040 269 1035 l 231 1066 q 218 1090 218 1076 q 244 1137 218 1106 q 361 1198 294 1198 q 470 1166 408 1198 q 526 1139 515 1143 q 549 1135 536 1135 q 605 1172 578 1135 q 630 1185 614 1185 q 648 1179 640 1185 z "},"Õ":{"ha":1097,"x_min":65,"x_max":1033,"o":"m 551 943 q 905 786 762 943 q 1033 462 1033 647 q 968 223 1033 334 q 794 49 905 113 q 545 -18 680 -18 q 315 42 425 -18 q 117 239 182 114 q 65 467 65 339 q 213 806 65 665 q 393 916 291 882 q 551 943 473 943 m 547 812 q 288 690 388 812 q 206 454 206 591 q 309 212 206 311 q 549 114 412 114 q 724 163 642 114 q 852 296 808 213 q 892 463 892 372 q 793 711 892 609 q 547 812 696 812 m 743 1179 l 774 1152 q 787 1127 787 1141 q 766 1085 787 1112 q 640 1020 713 1020 q 594 1026 614 1020 q 530 1053 574 1032 q 447 1081 471 1081 q 400 1050 424 1081 q 373 1035 388 1035 q 357 1040 363 1035 l 326 1066 q 313 1090 313 1076 q 339 1137 313 1106 q 456 1198 389 1198 q 564 1166 503 1198 q 621 1139 610 1143 q 644 1135 631 1135 q 700 1172 673 1135 q 725 1185 709 1185 q 743 1179 735 1185 z "},"Œ":{"ha":1454,"x_min":65,"x_max":1381,"o":"m 1023 794 l 1023 571 l 1320 571 q 1362 562 1354 571 q 1371 520 1371 553 l 1371 490 q 1362 448 1371 457 q 1320 439 1354 439 l 1023 439 l 1023 132 l 1331 132 q 1373 123 1364 132 q 1381 81 1381 114 l 1381 51 q 1373 9 1381 18 q 1331 0 1364 0 l 935 0 q 892 9 901 0 q 884 51 884 18 l 884 127 q 806 62 838 84 q 553 -18 695 -18 q 307 48 421 -18 q 110 260 174 124 q 65 459 65 355 q 133 707 65 589 q 293 873 195 812 q 548 943 407 943 q 724 909 646 943 q 884 793 802 874 l 884 875 q 892 917 884 907 q 935 926 901 926 l 1331 926 q 1373 917 1364 926 q 1381 875 1381 907 l 1381 845 q 1373 803 1381 812 q 1331 794 1364 794 l 1023 794 m 542 811 q 295 698 397 811 q 206 457 206 600 q 244 301 206 376 q 372 163 289 214 q 543 115 451 115 q 715 163 634 115 q 840 290 796 211 q 884 460 884 368 q 767 724 884 618 q 542 811 671 811 z "},"œ":{"ha":1171,"x_min":58,"x_max":1112,"o":"m 685 260 q 710 180 688 217 q 844 104 756 104 q 919 124 886 104 q 983 191 951 144 q 1010 208 994 208 q 1043 193 1019 208 l 1068 178 q 1096 160 1090 166 q 1101 142 1101 153 q 1091 117 1101 132 q 979 18 1047 54 q 834 -18 911 -18 q 705 13 766 -18 q 606 94 643 43 q 366 -18 512 -18 q 140 80 231 -18 q 58 290 58 168 q 108 458 58 380 q 372 600 198 600 q 606 487 521 600 q 828 600 687 600 q 1002 548 927 600 q 1091 425 1064 506 q 1112 300 1112 361 q 1103 268 1112 275 q 1061 260 1094 260 l 685 260 m 969 370 q 833 479 946 479 q 696 370 726 479 l 969 370 m 366 479 q 241 428 286 479 q 196 287 196 376 q 248 149 196 199 q 366 104 292 104 q 500 161 454 104 q 538 292 538 210 q 496 426 538 378 q 366 479 450 479 z "},"‒":{"ha":787,"x_min":142,"x_max":645,"o":"m 193 355 l 594 355 q 636 347 627 355 q 645 304 645 338 l 645 289 q 636 247 645 256 q 594 238 627 238 l 193 238 q 151 247 161 238 q 142 289 142 256 l 142 304 q 151 347 142 338 q 193 355 160 355 z "},"–":{"ha":787,"x_min":142,"x_max":645,"o":"m 193 355 l 594 355 q 636 347 627 355 q 645 304 645 338 l 645 289 q 636 247 645 256 q 594 238 627 238 l 193 238 q 151 247 161 238 q 142 289 142 256 l 142 304 q 151 347 142 338 q 193 355 160 355 z "},"—":{"ha":801,"x_min":0,"x_max":801,"o":"m 51 355 l 750 355 q 792 347 783 355 q 801 304 801 338 l 801 289 q 792 247 801 256 q 750 238 783 238 l 51 238 q 9 247 18 238 q 0 289 0 256 l 0 304 q 9 347 0 338 q 51 355 18 355 z "},"―":{"ha":801,"x_min":0,"x_max":801,"o":"m 51 355 l 750 355 q 792 347 783 355 q 801 304 801 338 l 801 289 q 792 247 801 256 q 750 238 783 238 l 51 238 q 9 247 18 238 q 0 289 0 256 l 0 304 q 9 347 0 338 q 51 355 18 355 z "},"“":{"ha":641,"x_min":81,"x_max":563,"o":"m 382 595 l 359 604 q 329 620 336 613 q 321 638 321 627 q 334 671 321 646 l 458 923 q 476 952 470 945 q 494 958 483 958 q 538 943 501 958 q 563 914 563 933 q 553 882 563 907 l 449 624 q 432 593 439 600 q 414 586 426 586 q 382 595 406 586 m 143 595 l 120 604 q 89 620 97 613 q 81 638 81 627 q 94 671 81 647 l 218 923 q 236 952 230 945 q 254 958 243 958 q 298 943 262 958 q 323 914 323 932 q 313 882 323 907 l 209 624 q 193 593 199 600 q 174 586 186 586 q 143 595 166 586 z "},"”":{"ha":641,"x_min":79,"x_max":560,"o":"m 258 948 l 281 939 q 313 924 305 930 q 320 905 320 917 q 308 871 320 897 l 182 621 q 165 592 172 598 q 147 585 159 585 q 128 590 140 585 q 104 600 117 595 q 79 629 79 610 q 88 661 79 637 l 193 920 q 209 950 202 943 q 227 958 215 958 q 258 948 235 958 m 498 948 l 522 939 q 553 924 545 930 q 560 905 560 917 q 547 871 560 897 l 422 621 q 405 592 412 598 q 387 585 399 585 q 368 590 380 585 q 343 600 357 595 q 319 629 319 610 q 328 661 319 637 l 433 920 q 448 950 441 943 q 467 958 455 958 q 498 948 475 958 z "},"‘":{"ha":401,"x_min":81,"x_max":323,"o":"m 143 595 l 120 604 q 89 620 97 613 q 81 638 81 627 q 94 671 81 647 l 218 923 q 236 952 230 945 q 254 958 243 958 q 298 943 262 958 q 323 914 323 932 q 313 882 323 907 l 209 624 q 193 593 199 600 q 174 586 186 586 q 143 595 166 586 z "},"’":{"ha":401,"x_min":79,"x_max":320,"o":"m 258 948 l 281 939 q 313 924 305 930 q 320 905 320 917 q 308 871 320 897 l 182 621 q 165 592 172 598 q 147 585 159 585 q 128 590 140 585 q 104 600 117 595 q 79 629 79 610 q 88 661 79 637 l 193 920 q 209 950 202 943 q 227 958 215 958 q 258 948 235 958 z "},"÷":{"ha":745,"x_min":53,"x_max":692,"o":"m 53 465 l 53 497 q 92 537 53 537 l 652 537 q 692 497 692 537 l 692 465 q 652 426 692 426 l 92 426 q 53 465 53 426 m 372 351 q 427 329 404 351 q 450 274 450 306 q 427 219 450 241 q 372 196 404 196 q 317 219 340 196 q 294 275 294 241 q 317 329 294 306 q 372 351 340 351 m 372 767 q 427 744 404 767 q 450 690 450 722 q 427 634 450 657 q 372 612 404 612 q 317 635 340 612 q 294 690 294 658 q 317 744 294 722 q 372 767 340 767 z "},"◊":{"ha":926,"x_min":102,"x_max":823,"o":"m 463 962 l 823 463 l 463 -36 l 102 463 l 463 962 m 463 737 l 264 463 l 463 189 l 663 463 l 463 737 z "},"ÿ":{"ha":667,"x_min":28,"x_max":641,"o":"m 269 109 l 41 522 q 28 555 28 546 q 39 578 28 572 q 79 585 50 585 l 125 585 q 161 581 154 585 q 182 550 168 576 l 342 248 l 491 549 q 511 580 504 576 q 548 585 518 585 l 590 585 q 625 581 617 585 q 641 556 641 574 q 629 522 641 546 l 214 -284 q 193 -314 200 -310 q 157 -319 186 -319 l 113 -319 q 77 -315 86 -319 q 62 -290 62 -308 q 75 -256 62 -281 l 269 109 m 209 846 q 269 821 244 846 q 294 760 294 795 q 269 699 294 724 q 209 674 244 674 q 148 700 173 674 q 123 761 123 725 q 148 821 123 795 q 209 846 174 846 m 460 846 q 520 821 495 846 q 545 760 545 795 q 520 699 545 724 q 460 674 495 674 q 399 700 424 674 q 374 761 374 725 q 399 821 374 795 q 460 846 425 846 z "},"Ÿ":{"ha":737,"x_min":18,"x_max":720,"o":"m 298 400 l 32 863 q 18 897 18 887 q 29 919 18 913 q 68 926 40 926 l 119 926 q 154 922 148 926 q 176 892 161 918 l 368 555 l 562 892 q 583 922 576 918 q 618 926 589 926 l 668 926 q 704 922 695 926 q 720 897 720 914 q 705 863 720 887 l 438 400 l 438 51 q 429 9 438 18 q 387 0 420 0 l 349 0 q 307 9 316 0 q 298 51 298 18 l 298 400 m 234 1191 q 294 1166 269 1191 q 319 1105 319 1141 q 294 1044 319 1069 q 234 1019 269 1019 q 173 1044 198 1019 q 148 1106 148 1069 q 173 1166 148 1141 q 234 1191 199 1191 m 504 1191 q 564 1166 539 1191 q 589 1105 589 1141 q 564 1044 589 1069 q 504 1019 539 1019 q 443 1044 468 1019 q 418 1106 418 1069 q 443 1166 418 1141 q 504 1191 469 1191 z "},"⁄":{"ha":225,"x_min":-174,"x_max":399,"o":"m 374 925 l 380 922 q 399 892 399 911 q 391 870 399 884 l -100 20 q -131 -3 -112 -3 q -150 3 -141 -3 l -157 7 q -174 36 -174 18 q -166 58 -174 44 l 326 907 q 357 930 338 930 q 374 925 366 930 z "},"€":{"ha":787,"x_min":-13,"x_max":756,"o":"m 261 593 l 651 593 q 673 575 673 593 q 667 562 673 570 l 642 522 q 624 502 632 507 q 596 497 615 497 l 238 497 q 237 452 237 467 q 239 408 237 427 l 534 408 q 556 390 556 408 q 551 377 556 385 l 526 337 q 507 317 515 321 q 479 312 498 312 l 267 312 q 342 205 296 250 q 453 135 390 160 q 580 109 515 109 q 720 139 654 109 q 737 144 732 144 q 756 120 756 144 l 756 45 q 743 12 756 20 q 669 -12 722 -1 q 574 -22 616 -22 q 291 71 418 -22 q 114 312 163 163 l 9 312 q -13 330 -13 312 q -7 342 -13 334 l 18 382 q 37 403 28 398 q 64 408 45 408 l 94 408 q 92 464 92 445 q 93 497 92 475 l 9 497 q -13 515 -13 497 q -7 528 -13 519 l 18 568 q 36 588 28 583 q 64 593 45 593 l 110 593 q 214 783 144 703 q 343 885 269 844 q 581 945 454 945 q 670 936 620 945 q 741 915 720 926 q 756 881 756 906 l 756 802 q 737 778 756 778 q 716 785 732 778 q 578 813 654 813 q 387 753 472 813 q 261 593 301 694 z "},"‹":{"ha":450,"x_min":64,"x_max":363,"o":"m 197 297 l 345 108 q 363 73 363 84 q 358 57 363 63 q 334 36 353 50 l 327 31 q 293 12 302 12 q 276 17 282 12 q 256 40 271 21 l 83 262 q 64 296 64 286 q 82 332 64 307 l 256 562 q 276 586 270 581 q 293 591 283 591 q 328 572 303 591 l 335 567 q 359 546 355 552 q 363 529 363 541 q 345 495 363 519 l 197 297 z "},"›":{"ha":450,"x_min":86,"x_max":387,"o":"m 254 297 l 104 495 q 86 530 86 520 q 91 547 86 541 q 115 567 96 553 l 123 572 q 157 591 147 591 q 174 586 168 591 q 194 562 180 581 l 368 332 q 387 297 387 307 q 368 262 387 287 l 195 40 q 174 17 180 21 q 157 12 168 12 q 123 31 148 12 l 115 36 q 92 57 97 50 q 87 73 87 63 q 106 108 87 83 l 254 297 z "},"ﬁ":{"ha":652,"x_min":41,"x_max":587,"o":"m 224 458 l 224 39 q 185 0 224 0 l 129 0 q 90 39 90 0 l 90 458 l 79 458 q 41 498 41 458 l 41 545 q 79 585 41 585 l 90 585 l 90 809 q 128 965 90 918 q 194 1011 152 994 q 283 1029 236 1029 q 359 1011 334 1029 q 372 978 372 1002 l 372 926 q 341 887 372 887 q 326 890 335 887 q 281 900 292 900 q 237 873 252 900 q 224 777 224 853 l 224 585 l 332 585 q 372 545 372 585 l 372 498 q 332 458 372 458 l 224 458 m 566 545 l 566 39 q 527 0 566 0 l 471 0 q 431 39 431 0 l 431 545 q 471 585 431 585 l 527 585 q 566 545 566 585 m 498 913 q 561 888 535 913 q 587 826 587 863 q 561 764 587 789 q 499 738 535 738 q 437 764 463 738 q 411 827 411 789 q 437 888 411 862 q 498 913 463 913 z "},"ﬂ":{"ha":652,"x_min":41,"x_max":566,"o":"m 224 458 l 224 39 q 185 0 224 0 l 129 0 q 90 39 90 0 l 90 458 l 79 458 q 41 498 41 458 l 41 545 q 79 585 41 585 l 90 585 l 90 810 q 128 966 90 919 q 194 1012 152 995 q 282 1029 235 1029 q 359 1011 335 1029 q 372 979 372 1002 l 372 926 q 341 887 372 887 q 327 890 335 887 q 281 899 292 899 q 237 873 252 899 q 224 777 224 852 l 224 585 l 332 585 q 372 545 372 585 l 372 498 q 332 458 372 458 l 224 458 m 566 974 l 566 39 q 527 0 566 0 l 471 0 q 431 39 431 0 l 431 974 q 471 1013 431 1013 l 527 1013 q 566 974 566 1013 z "},"‡":{"ha":760,"x_min":121,"x_max":638,"o":"m 447 799 l 598 799 q 638 759 638 799 l 638 708 q 598 668 638 668 l 447 668 l 447 304 l 598 304 q 638 264 638 304 l 638 213 q 598 173 638 173 l 447 173 l 447 -207 q 408 -246 447 -246 l 351 -246 q 312 -207 312 -246 l 312 173 l 161 173 q 121 213 121 173 l 121 264 q 161 304 121 304 l 312 304 l 312 668 l 161 668 q 121 708 121 668 l 121 759 q 161 799 121 799 l 312 799 l 312 974 q 351 1013 312 1013 l 408 1013 q 447 974 447 1013 l 447 799 z "},"·":{"ha":352,"x_min":93,"x_max":260,"o":"m 176 380 q 235 355 211 380 q 260 296 260 331 q 235 237 260 262 q 176 213 211 213 q 117 238 142 213 q 93 298 93 262 q 118 355 93 331 q 176 380 142 380 z "},"∙":{"ha":352,"x_min":93,"x_max":260,"o":"m 176 380 q 235 355 211 380 q 260 296 260 331 q 235 237 260 262 q 176 213 211 213 q 117 238 142 213 q 93 298 93 262 q 118 355 93 331 q 176 380 142 380 z "},"‚":{"ha":401,"x_min":79,"x_max":320,"o":"m 258 155 l 281 146 q 313 130 305 137 q 320 112 320 123 q 308 79 320 103 l 182 -173 q 165 -201 172 -195 q 147 -208 159 -208 q 128 -203 140 -208 q 104 -193 120 -199 q 79 -164 79 -183 q 88 -132 79 -156 l 193 127 q 209 157 202 150 q 227 165 215 165 q 258 155 234 165 z "},"„":{"ha":641,"x_min":79,"x_max":560,"o":"m 258 155 l 281 146 q 313 130 305 137 q 320 112 320 123 q 308 79 320 103 l 182 -173 q 165 -201 172 -195 q 147 -208 159 -208 q 128 -203 140 -208 q 104 -193 120 -199 q 79 -164 79 -183 q 88 -132 79 -156 l 193 127 q 209 157 202 150 q 227 165 215 165 q 258 155 234 165 m 498 155 l 522 146 q 553 130 545 137 q 560 112 560 123 q 547 79 560 103 l 422 -173 q 405 -201 412 -195 q 387 -208 398 -208 q 368 -203 380 -208 q 343 -193 360 -199 q 319 -164 319 -183 q 328 -132 319 -156 l 433 127 q 448 157 441 150 q 467 165 455 165 q 498 155 474 165 z "},"‰":{"ha":1670,"x_min":46,"x_max":1623,"o":"m 269 935 q 437 859 370 935 q 492 717 492 797 q 420 557 492 623 q 267 499 357 499 q 101 575 168 499 q 46 721 46 637 q 119 877 46 810 q 269 935 182 935 m 269 836 q 185 801 220 836 q 151 715 151 766 q 186 633 151 667 q 269 598 221 598 q 353 633 319 598 q 388 717 388 668 q 353 801 388 766 q 269 836 319 836 m 825 925 l 831 922 q 848 892 848 911 q 840 870 848 884 l 351 20 q 319 -3 338 -3 q 300 3 309 -3 l 293 7 q 276 36 276 18 q 283 58 276 45 l 775 907 q 806 930 788 930 q 825 925 816 930 m 855 428 q 1023 352 956 428 q 1078 209 1078 289 q 1006 49 1078 115 q 853 -9 942 -9 q 687 66 753 -9 q 632 212 632 130 q 705 369 632 302 q 855 428 768 428 m 855 328 q 771 293 806 328 q 736 208 736 258 q 772 125 736 160 q 855 90 807 90 q 939 125 904 90 q 974 210 974 160 q 939 293 974 258 q 855 328 905 328 m 1400 428 q 1567 352 1501 428 q 1623 209 1623 289 q 1550 49 1623 115 q 1398 -9 1487 -9 q 1232 66 1298 -9 q 1177 212 1177 130 q 1249 369 1177 302 q 1400 428 1312 428 m 1400 328 q 1316 294 1350 328 q 1281 208 1281 258 q 1316 125 1281 160 q 1400 90 1352 90 q 1484 125 1449 90 q 1518 210 1518 160 q 1484 293 1518 258 q 1400 328 1449 328 z "},"Â":{"ha":909,"x_min":22,"x_max":888,"o":"m 654 225 l 258 225 l 172 37 q 166 24 167 26 q 151 4 159 7 q 115 0 142 0 l 73 0 q 37 4 46 0 q 22 28 22 11 q 33 62 22 37 l 426 905 q 443 935 437 928 q 462 941 450 941 q 481 935 475 941 q 498 905 488 928 l 877 62 q 888 28 888 37 q 877 6 888 12 q 837 0 865 0 l 792 0 q 754 5 762 0 q 735 37 747 9 l 654 225 m 597 357 l 460 671 l 316 357 l 597 357 m 453 1127 l 368 1046 q 332 1024 345 1024 q 297 1043 321 1024 l 287 1050 q 263 1071 268 1065 q 259 1087 259 1077 q 284 1124 259 1101 l 418 1245 q 454 1267 441 1267 q 489 1245 465 1267 l 624 1124 q 649 1087 649 1101 q 645 1071 649 1077 q 621 1050 640 1065 l 611 1042 q 576 1023 587 1023 q 541 1046 564 1023 l 453 1127 z "},"Ê":{"ha":694,"x_min":111,"x_max":623,"o":"m 251 794 l 251 572 l 560 572 q 602 564 593 572 q 611 522 611 555 l 611 492 q 602 450 611 459 q 560 441 593 441 l 251 441 l 251 132 l 571 132 q 613 123 604 132 q 623 81 623 114 l 623 51 q 613 9 623 18 q 571 0 604 0 l 162 0 q 120 9 129 0 q 111 51 111 18 l 111 875 q 120 917 111 907 q 162 926 130 926 l 571 926 q 613 917 604 926 q 623 875 623 907 l 623 845 q 613 803 623 812 q 571 794 604 794 l 251 794 m 347 1127 l 261 1046 q 224 1024 237 1024 q 190 1043 214 1024 l 180 1050 q 157 1071 161 1065 q 153 1087 153 1077 q 177 1124 153 1101 l 311 1245 q 347 1267 334 1267 q 382 1245 358 1267 l 517 1124 q 543 1087 543 1101 q 538 1071 543 1077 q 514 1050 534 1065 l 504 1042 q 469 1023 479 1023 q 433 1046 457 1023 l 347 1127 z "},"Á":{"ha":909,"x_min":22,"x_max":888,"o":"m 654 225 l 258 225 l 172 37 q 166 24 167 26 q 151 4 159 7 q 115 0 142 0 l 73 0 q 37 4 46 0 q 22 28 22 11 q 33 62 22 37 l 426 905 q 443 935 437 928 q 462 941 450 941 q 481 935 475 941 q 498 905 488 928 l 877 62 q 888 28 888 37 q 877 6 888 12 q 837 0 865 0 l 792 0 q 754 5 762 0 q 735 37 747 9 l 654 225 m 597 357 l 460 671 l 316 357 l 597 357 m 603 1139 l 448 1034 q 414 1017 423 1017 q 389 1028 403 1017 q 379 1037 382 1034 q 360 1067 360 1053 q 383 1103 360 1080 l 505 1225 q 541 1249 528 1249 q 575 1232 551 1249 l 603 1212 q 633 1175 633 1192 q 628 1158 633 1164 q 603 1139 623 1152 z "},"Ë":{"ha":694,"x_min":111,"x_max":623,"o":"m 251 794 l 251 572 l 560 572 q 602 564 593 572 q 611 522 611 555 l 611 492 q 602 450 611 459 q 560 441 593 441 l 251 441 l 251 132 l 571 132 q 613 123 604 132 q 623 81 623 114 l 623 51 q 613 9 623 18 q 571 0 604 0 l 162 0 q 120 9 129 0 q 111 51 111 18 l 111 875 q 120 917 111 907 q 162 926 130 926 l 571 926 q 613 917 604 926 q 623 875 623 907 l 623 845 q 613 803 623 812 q 571 794 604 794 l 251 794 m 213 1191 q 273 1166 248 1191 q 298 1105 298 1141 q 273 1044 298 1069 q 213 1019 248 1019 q 152 1044 177 1019 q 127 1106 127 1069 q 152 1166 127 1141 q 213 1191 178 1191 m 482 1191 q 543 1166 518 1191 q 568 1105 568 1141 q 543 1044 568 1069 q 483 1019 518 1019 q 422 1044 447 1019 q 397 1106 397 1069 q 422 1166 397 1141 q 482 1191 448 1191 z "},"È":{"ha":694,"x_min":111,"x_max":623,"o":"m 251 794 l 251 572 l 560 572 q 602 564 593 572 q 611 522 611 555 l 611 492 q 602 450 611 459 q 560 441 593 441 l 251 441 l 251 132 l 571 132 q 613 123 604 132 q 623 81 623 114 l 623 51 q 613 9 623 18 q 571 0 604 0 l 162 0 q 120 9 129 0 q 111 51 111 18 l 111 875 q 120 917 111 907 q 162 926 130 926 l 571 926 q 613 917 604 926 q 623 875 623 907 l 623 845 q 613 803 623 812 q 571 794 604 794 l 251 794 m 225 1212 l 253 1232 q 287 1249 278 1249 q 323 1225 300 1249 l 445 1103 q 469 1067 469 1080 q 449 1035 469 1053 q 414 1017 429 1017 q 380 1034 406 1017 l 226 1139 q 200 1158 205 1152 q 195 1175 195 1164 q 200 1192 195 1186 q 225 1212 205 1198 z "},"Í":{"ha":362,"x_min":87,"x_max":359,"o":"m 251 875 l 251 51 q 242 9 251 18 q 200 0 233 0 l 162 0 q 120 9 130 0 q 111 51 111 18 l 111 875 q 120 917 111 908 q 162 926 130 926 l 200 926 q 242 917 233 926 q 251 875 251 908 m 330 1139 l 175 1034 q 140 1017 150 1017 q 116 1028 130 1017 q 106 1037 109 1034 q 87 1067 87 1053 q 110 1103 87 1080 l 232 1225 q 268 1249 255 1249 q 302 1232 277 1249 l 330 1212 q 359 1175 359 1192 q 354 1158 359 1164 q 330 1139 349 1152 z "},"Î":{"ha":362,"x_min":-14,"x_max":376,"o":"m 251 875 l 251 51 q 242 9 251 18 q 200 0 233 0 l 162 0 q 120 9 129 0 q 111 51 111 18 l 111 875 q 120 917 111 908 q 162 926 129 926 l 200 926 q 242 917 233 926 q 251 875 251 908 m 180 1127 l 94 1046 q 58 1024 71 1024 q 24 1043 48 1024 l 14 1050 q -10 1071 -5 1065 q -14 1087 -14 1077 q 11 1124 -14 1101 l 144 1245 q 180 1267 168 1267 q 215 1245 191 1267 l 351 1124 q 376 1087 376 1101 q 371 1071 376 1077 q 348 1050 367 1065 l 337 1042 q 302 1023 313 1023 q 267 1046 290 1023 l 180 1127 z "},"Ï":{"ha":362,"x_min":-18,"x_max":380,"o":"m 250 875 l 250 51 q 241 9 250 18 q 199 0 233 0 l 161 0 q 119 9 128 0 q 111 51 111 18 l 111 875 q 119 917 111 908 q 161 926 128 926 l 199 926 q 241 917 233 926 q 250 875 250 908 m 68 1191 q 128 1166 103 1191 q 153 1105 153 1141 q 128 1044 153 1069 q 68 1019 103 1019 q 7 1044 32 1019 q -18 1106 -18 1069 q 7 1166 -18 1141 q 68 1191 33 1191 m 294 1191 q 355 1166 330 1191 q 380 1105 380 1141 q 355 1044 380 1069 q 295 1019 330 1019 q 234 1044 259 1019 q 209 1106 209 1069 q 234 1166 209 1141 q 294 1191 260 1191 z "},"Ì":{"ha":362,"x_min":-7,"x_max":266,"o":"m 251 875 l 251 51 q 242 9 251 18 q 200 0 233 0 l 162 0 q 120 9 129 0 q 111 51 111 18 l 111 875 q 120 917 111 908 q 162 926 129 926 l 200 926 q 242 917 233 926 q 251 875 251 908 m 23 1212 l 51 1232 q 85 1249 75 1249 q 121 1225 98 1249 l 243 1103 q 266 1067 266 1080 q 246 1035 266 1053 q 212 1017 227 1017 q 178 1034 203 1017 l 24 1139 q -2 1158 3 1152 q -7 1175 -7 1164 q -2 1192 -7 1186 q 23 1212 3 1198 z "},"Ó":{"ha":1097,"x_min":65,"x_max":1033,"o":"m 551 943 q 905 786 762 943 q 1033 462 1033 647 q 968 223 1033 334 q 794 49 905 113 q 545 -18 680 -18 q 315 42 425 -18 q 117 239 182 114 q 65 467 65 339 q 213 806 65 665 q 393 916 291 882 q 551 943 473 943 m 547 812 q 288 690 388 812 q 206 454 206 591 q 309 212 206 311 q 549 114 412 114 q 724 163 642 114 q 852 296 808 213 q 892 463 892 372 q 793 711 892 609 q 547 812 696 812 m 697 1139 l 543 1034 q 509 1017 517 1017 q 484 1028 497 1017 q 473 1037 476 1035 q 454 1067 454 1053 q 478 1103 454 1080 l 600 1225 q 636 1249 623 1249 q 670 1232 645 1249 l 698 1212 q 728 1175 728 1191 q 723 1158 728 1164 q 697 1139 718 1152 z "},"Ô":{"ha":1097,"x_min":65,"x_max":1033,"o":"m 551 943 q 905 786 762 943 q 1033 462 1033 647 q 968 223 1033 334 q 794 49 905 113 q 545 -18 680 -18 q 315 42 425 -18 q 117 239 182 114 q 65 467 65 339 q 213 806 65 665 q 393 916 291 882 q 551 943 473 943 m 547 812 q 288 690 388 812 q 206 454 206 591 q 309 212 206 311 q 549 114 412 114 q 724 163 642 114 q 852 296 808 213 q 892 463 892 372 q 793 711 892 609 q 547 812 696 812 m 548 1127 l 463 1046 q 426 1024 439 1024 q 392 1043 416 1024 l 382 1050 q 358 1071 363 1065 q 354 1087 354 1077 q 379 1124 354 1101 l 512 1245 q 548 1267 536 1267 q 583 1245 559 1267 l 719 1124 q 744 1087 744 1101 q 740 1071 744 1077 q 716 1050 735 1065 l 705 1042 q 671 1023 681 1023 q 635 1046 659 1023 l 548 1127 z "},"Ò":{"ha":1097,"x_min":65,"x_max":1033,"o":"m 551 943 q 905 786 762 943 q 1033 462 1033 647 q 968 223 1033 334 q 794 49 905 113 q 545 -18 680 -18 q 315 42 425 -18 q 117 239 182 114 q 65 467 65 339 q 213 806 65 665 q 393 916 291 882 q 551 943 473 943 m 547 812 q 288 690 388 812 q 206 454 206 591 q 309 212 206 311 q 549 114 412 114 q 724 163 642 114 q 852 296 808 213 q 892 463 892 372 q 793 711 892 609 q 547 812 696 812 m 391 1212 l 419 1232 q 453 1249 444 1249 q 489 1225 467 1249 l 611 1103 q 634 1067 634 1080 q 614 1035 634 1053 q 580 1017 595 1017 q 547 1034 571 1017 l 392 1139 q 367 1158 372 1152 q 361 1175 361 1164 q 391 1212 361 1192 z "},"Ú":{"ha":907,"x_min":111,"x_max":796,"o":"m 251 875 l 251 368 q 257 272 251 307 q 280 209 264 237 q 342 145 302 170 q 454 114 393 114 q 555 139 509 114 q 627 209 602 165 q 650 272 644 237 q 656 368 656 307 l 656 875 q 665 917 656 908 q 707 926 675 926 l 745 926 q 787 917 779 926 q 796 875 796 908 l 796 330 q 726 112 796 201 q 605 17 677 51 q 454 -18 533 -18 q 249 48 341 -18 q 111 330 111 146 l 111 875 q 120 917 111 908 q 162 926 129 926 l 200 926 q 242 917 233 926 q 251 875 251 908 m 602 1139 l 448 1034 q 414 1017 422 1017 q 389 1028 402 1017 q 378 1037 381 1034 q 359 1067 359 1053 q 382 1103 359 1080 l 505 1225 q 541 1249 528 1249 q 574 1232 550 1249 l 603 1212 q 632 1175 632 1192 q 627 1158 632 1164 q 602 1139 622 1152 z "},"Û":{"ha":907,"x_min":111,"x_max":796,"o":"m 251 875 l 251 368 q 257 272 251 307 q 280 209 264 237 q 342 145 302 170 q 454 114 393 114 q 555 139 509 114 q 627 209 602 165 q 650 272 644 237 q 656 368 656 307 l 656 875 q 665 917 656 908 q 707 926 675 926 l 745 926 q 787 917 779 926 q 796 875 796 908 l 796 330 q 726 112 796 201 q 605 17 677 51 q 454 -18 533 -18 q 249 48 341 -18 q 111 330 111 146 l 111 875 q 120 917 111 908 q 162 926 129 926 l 200 926 q 242 917 233 926 q 251 875 251 908 m 453 1127 l 368 1046 q 331 1024 344 1024 q 296 1043 321 1024 l 287 1050 q 263 1071 268 1065 q 259 1087 259 1077 q 283 1124 259 1101 l 417 1245 q 453 1267 441 1267 q 488 1245 465 1267 l 623 1124 q 649 1087 649 1101 q 645 1071 649 1077 q 621 1050 640 1065 l 610 1042 q 575 1023 586 1023 q 540 1046 564 1023 l 453 1127 z "},"Ù":{"ha":907,"x_min":111,"x_max":796,"o":"m 251 875 l 251 368 q 257 272 251 307 q 280 209 264 237 q 342 145 302 170 q 454 114 393 114 q 555 139 509 114 q 627 209 602 165 q 650 272 644 237 q 656 368 656 307 l 656 875 q 665 917 656 908 q 707 926 675 926 l 745 926 q 787 917 779 926 q 796 875 796 908 l 796 330 q 726 112 796 201 q 605 17 677 51 q 454 -18 533 -18 q 249 48 341 -18 q 111 330 111 146 l 111 875 q 120 917 111 908 q 162 926 129 926 l 200 926 q 242 917 233 926 q 251 875 251 908 m 296 1212 l 324 1232 q 358 1249 349 1249 q 394 1225 371 1249 l 516 1103 q 539 1067 539 1080 q 519 1035 539 1053 q 485 1017 500 1017 q 451 1034 476 1017 l 296 1139 q 272 1158 277 1152 q 267 1175 267 1164 q 296 1212 267 1192 z "},"ı":{"ha":306,"x_min":85,"x_max":220,"o":"m 220 534 l 220 51 q 212 9 220 18 q 170 0 203 0 l 136 0 q 94 9 103 0 q 85 51 85 18 l 85 534 q 94 576 85 566 q 136 585 103 585 l 170 585 q 212 576 203 585 q 220 534 220 566 z "},"ˆ":{"ha":694,"x_min":152,"x_max":542,"o":"m 346 787 l 260 706 q 224 684 237 684 q 190 703 214 684 l 180 711 q 156 731 161 725 q 152 747 152 737 q 177 783 152 761 l 310 905 q 346 927 334 927 q 381 905 357 927 l 517 783 q 542 747 542 761 q 537 731 542 737 q 514 711 533 725 l 503 703 q 492 694 497 697 q 469 684 479 684 q 433 706 456 684 l 346 787 z "},"˜":{"ha":694,"x_min":112,"x_max":586,"o":"m 254 852 q 363 821 300 852 q 420 793 410 798 q 443 789 430 789 q 498 827 471 789 q 524 840 508 840 q 557 821 536 840 q 570 810 559 819 q 586 783 586 798 q 579 763 586 774 q 437 675 528 675 q 393 682 414 675 q 328 709 372 688 q 246 736 270 736 q 199 706 222 736 q 171 690 186 690 q 140 709 160 690 q 127 718 137 711 q 112 747 112 732 q 138 792 112 761 q 254 852 188 852 z "},"¯":{"ha":694,"x_min":119,"x_max":576,"o":"m 170 818 l 525 818 q 567 809 558 818 q 576 767 576 800 l 576 760 q 567 718 576 727 q 525 709 558 709 l 170 709 q 127 718 136 709 q 119 760 119 727 l 119 767 q 127 809 119 800 q 170 818 136 818 z "},"ˉ":{"ha":694,"x_min":119,"x_max":576,"o":"m 170 818 l 525 818 q 567 809 558 818 q 576 767 576 800 l 576 760 q 567 718 576 727 q 525 709 558 709 l 170 709 q 127 718 136 709 q 119 760 119 727 l 119 767 q 127 809 119 800 q 170 818 136 818 z "},"˘":{"ha":694,"x_min":131,"x_max":563,"o":"m 178 869 l 194 869 q 230 865 223 869 q 248 840 237 861 q 347 781 277 781 q 409 797 385 781 q 452 852 432 812 q 466 866 458 863 q 500 869 474 869 l 516 869 q 552 862 541 869 q 563 839 563 855 q 550 799 563 824 q 519 753 537 773 q 347 674 450 674 q 174 753 245 674 q 131 840 131 802 q 142 863 131 856 q 178 869 153 869 z "},"˙":{"ha":694,"x_min":257,"x_max":438,"o":"m 347 854 q 412 827 385 854 q 438 764 438 801 q 412 701 438 727 q 348 674 385 674 q 283 701 310 674 q 257 765 257 727 q 284 828 257 802 q 347 854 311 854 z "},"˚":{"ha":694,"x_min":235,"x_max":496,"o":"m 366 935 q 458 897 420 935 q 496 805 496 859 q 458 712 496 751 q 366 674 420 674 q 274 712 311 674 q 235 806 235 751 q 274 897 235 859 q 366 935 313 935 m 366 864 q 324 847 341 864 q 307 804 307 829 q 324 763 307 780 q 366 745 342 745 q 408 763 391 745 q 425 805 425 780 q 408 847 425 829 q 366 864 391 864 z "},"¸":{"ha":694,"x_min":254,"x_max":454,"o":"m 435 -168 l 357 -268 q 336 -291 342 -287 q 319 -296 330 -296 q 300 -290 313 -296 q 286 -282 289 -283 q 261 -266 268 -273 q 254 -248 254 -258 q 271 -214 254 -239 l 336 -113 q 342 -101 340 -106 q 371 -81 355 -81 q 403 -92 377 -81 l 416 -97 q 447 -114 439 -106 q 454 -134 454 -121 q 435 -168 454 -144 z "},"˝":{"ha":694,"x_min":186,"x_max":667,"o":"m 393 829 l 269 707 q 232 684 245 684 q 202 698 218 684 q 186 727 186 713 q 203 760 186 735 l 295 897 q 302 908 298 902 q 332 928 315 928 q 364 913 339 928 l 384 902 q 411 883 405 890 q 416 865 416 877 q 393 829 416 852 m 643 829 l 519 707 q 482 684 496 684 q 452 698 467 684 q 437 727 437 713 q 453 760 437 736 l 545 897 q 552 908 548 902 q 582 928 565 928 q 614 913 589 928 l 633 902 q 661 883 655 890 q 667 865 667 877 q 643 829 667 852 z "},"˛":{"ha":694,"x_min":239,"x_max":468,"o":"m 350 0 l 429 0 q 362 -71 378 -47 q 345 -118 345 -94 q 402 -160 345 -160 q 419 -159 410 -160 q 439 -158 433 -158 q 468 -190 468 -158 q 458 -236 468 -222 q 424 -254 449 -247 q 372 -262 399 -262 q 272 -226 311 -262 q 239 -151 239 -195 q 350 0 239 -61 z "},"ˇ":{"ha":694,"x_min":153,"x_max":543,"o":"m 349 824 l 434 905 q 470 928 458 928 q 505 909 480 928 l 515 901 q 538 880 534 886 q 543 864 543 875 q 517 828 543 851 l 385 706 q 374 697 380 703 q 349 684 361 684 q 313 706 337 684 l 178 828 q 153 865 153 850 q 157 881 153 875 q 180 901 161 886 l 191 909 q 226 928 216 928 q 262 906 238 928 l 349 824 z "},"¤":{"ha":926,"x_min":65,"x_max":861,"o":"m 191 317 q 124 512 124 408 q 190 705 124 611 l 80 815 q 65 843 65 829 q 79 871 65 857 l 100 892 q 128 906 115 906 q 157 892 142 906 l 267 782 q 464 848 363 848 q 659 783 564 848 l 768 891 q 795 905 782 905 q 823 891 809 905 l 844 871 q 859 842 859 856 q 844 814 859 829 l 736 707 q 803 511 803 609 q 737 318 803 413 l 847 208 q 861 180 861 194 q 847 153 861 167 l 827 132 q 799 117 812 117 q 771 132 786 117 l 662 241 q 465 174 569 174 q 267 240 367 174 l 158 132 q 130 117 143 117 q 102 132 117 117 l 82 152 q 67 180 67 167 q 82 208 67 193 l 191 317 m 465 724 q 307 654 370 724 q 252 511 252 593 q 322 353 252 416 q 465 298 382 298 q 621 368 557 298 q 676 513 676 428 q 616 660 676 600 q 465 724 552 724 z "},"¦":{"ha":694,"x_min":278,"x_max":417,"o":"m 278 926 l 417 926 l 417 454 l 278 454 l 278 926 m 278 213 l 417 213 l 417 -231 l 278 -231 l 278 213 z "},"²":{"ha":537,"x_min":74,"x_max":441,"o":"m 236 457 l 401 457 q 441 421 441 457 l 441 406 q 401 370 441 370 l 124 370 q 84 402 84 370 q 97 429 84 414 l 249 608 q 326 706 304 672 q 347 766 347 741 q 320 827 347 802 q 255 852 294 852 q 180 815 208 852 q 167 779 172 805 q 128 753 161 753 l 109 753 q 74 786 74 753 q 102 860 74 819 q 253 936 153 936 q 387 886 334 936 q 439 766 439 836 q 415 676 439 720 q 317 550 390 633 l 236 457 z "},"³":{"ha":537,"x_min":67,"x_max":431,"o":"m 365 663 q 431 533 431 622 q 368 400 431 448 q 244 361 317 361 q 140 388 185 361 q 75 462 95 415 q 67 494 67 480 q 77 518 67 509 q 102 528 86 528 l 121 528 q 159 504 151 528 q 173 474 168 482 q 193 459 179 467 q 248 445 219 445 q 313 471 288 445 q 338 536 338 496 q 290 616 338 595 q 254 622 280 620 q 224 657 224 624 l 224 669 q 255 705 224 701 q 292 711 284 709 q 307 720 299 713 q 330 777 330 741 q 308 830 330 810 q 249 851 285 851 q 176 802 194 851 q 137 777 167 777 l 119 777 q 95 786 105 777 q 85 808 85 795 q 134 898 85 860 q 251 935 183 935 q 378 889 332 935 q 423 779 423 844 q 365 663 423 705 z "},"¹":{"ha":537,"x_min":157,"x_max":331,"o":"m 237 840 l 192 840 q 157 868 157 840 q 161 883 157 876 l 175 904 q 213 926 188 926 l 292 926 q 331 886 331 926 l 331 410 q 294 370 331 370 l 274 370 q 237 410 237 370 l 237 840 z "},"¼":{"ha":1188,"x_min":129,"x_max":1150,"o":"m 208 840 l 163 840 q 129 868 129 840 q 133 883 129 876 l 146 904 q 184 926 159 926 l 263 926 q 302 886 302 926 l 302 410 q 265 370 302 370 l 245 370 q 208 410 208 370 l 208 840 m 856 925 l 862 922 q 880 892 880 911 q 871 870 880 884 l 382 20 q 350 -3 369 -3 q 332 3 340 -3 l 324 7 q 307 36 307 18 q 315 58 307 45 l 806 907 q 838 930 819 930 q 856 925 847 930 m 1091 161 l 1111 161 q 1150 126 1150 161 l 1150 113 q 1111 78 1150 78 l 1091 78 l 1091 40 q 1054 0 1091 0 l 1033 0 q 996 40 996 0 l 996 78 l 784 78 q 755 86 766 78 q 744 109 744 95 q 755 135 744 120 l 1028 518 q 1059 538 1042 538 q 1091 498 1091 538 l 1091 161 m 996 161 l 996 326 l 996 332 l 875 161 l 996 161 z "},"½":{"ha":1188,"x_min":129,"x_max":1119,"o":"m 208 840 l 163 840 q 129 868 129 840 q 133 883 129 876 l 146 904 q 184 926 159 926 l 263 926 q 302 886 302 926 l 302 410 q 265 370 302 370 l 245 370 q 208 410 208 370 l 208 840 m 856 925 l 862 922 q 880 892 880 911 q 871 870 880 884 l 382 20 q 350 -3 369 -3 q 332 3 340 -3 l 324 7 q 307 36 307 18 q 315 58 307 45 l 806 907 q 838 930 819 930 q 856 925 847 930 m 914 87 l 1079 87 q 1119 51 1119 87 l 1119 36 q 1079 0 1119 0 l 802 0 q 762 32 762 0 q 775 59 762 44 l 927 237 q 1004 337 983 303 q 1025 396 1025 370 q 998 456 1025 432 q 933 481 972 481 q 859 445 886 481 q 845 409 850 435 q 806 383 839 383 l 787 383 q 751 416 751 383 q 779 490 751 449 q 931 566 831 566 q 1065 516 1012 566 q 1118 396 1118 467 q 1093 307 1118 351 q 996 180 1068 262 l 914 87 z "},"¾":{"ha":1188,"x_min":39,"x_max":1150,"o":"m 336 663 q 402 533 402 622 q 340 400 402 448 q 216 361 288 361 q 112 388 157 361 q 46 462 66 415 q 39 494 39 480 q 48 518 39 509 q 73 528 58 528 l 93 528 q 131 504 122 528 q 145 474 139 482 q 164 459 151 467 q 220 445 191 445 q 284 471 259 445 q 309 536 309 496 q 262 616 309 595 q 226 622 252 620 q 195 657 195 624 l 195 669 q 227 705 195 701 q 263 711 256 709 q 278 720 271 713 q 302 777 302 741 q 279 830 302 810 q 220 851 256 851 q 147 802 165 851 q 109 777 138 777 l 91 777 q 67 786 77 777 q 57 808 57 795 q 106 898 57 860 q 222 935 155 935 q 349 889 303 935 q 395 779 395 844 q 336 663 395 705 m 856 925 l 862 922 q 880 892 880 911 q 871 870 880 884 l 382 20 q 350 -3 369 -3 q 332 3 340 -3 l 325 7 q 307 36 307 18 q 315 58 307 45 l 806 907 q 838 930 819 930 q 856 925 847 930 m 1091 161 l 1111 161 q 1150 126 1150 161 l 1150 113 q 1111 78 1150 78 l 1091 78 l 1091 40 q 1054 0 1091 0 l 1034 0 q 996 40 996 0 l 996 78 l 784 78 q 755 86 766 78 q 744 109 744 95 q 755 135 744 120 l 1028 518 q 1059 538 1042 538 q 1091 498 1091 538 l 1091 161 m 996 161 l 996 326 l 996 332 l 875 161 l 996 161 z "},"Ð":{"ha":892,"x_min":28,"x_max":827,"o":"m 111 542 l 111 875 q 120 917 111 907 q 162 926 129 926 l 306 926 q 540 894 454 926 q 770 697 692 838 q 827 463 827 595 q 642 89 827 222 q 498 19 571 38 q 303 0 426 0 l 162 0 q 120 9 129 0 q 111 51 111 18 l 111 422 l 67 422 q 28 461 28 422 l 28 503 q 67 542 28 542 l 111 542 m 251 542 l 410 542 q 450 503 450 542 l 450 461 q 410 422 450 422 l 251 422 l 251 132 l 314 132 q 455 147 398 132 q 559 198 511 162 q 654 316 621 244 q 686 463 686 383 q 624 664 686 577 q 502 763 575 732 q 314 794 428 794 l 251 794 l 251 542 z "},"Đ":{"ha":892,"x_min":28,"x_max":827,"o":"m 111 542 l 111 875 q 120 917 111 907 q 162 926 129 926 l 306 926 q 540 894 454 926 q 770 697 692 838 q 827 463 827 595 q 642 89 827 222 q 498 19 571 38 q 303 0 426 0 l 162 0 q 120 9 129 0 q 111 51 111 18 l 111 422 l 67 422 q 28 461 28 422 l 28 503 q 67 542 28 542 l 111 542 m 251 542 l 410 542 q 450 503 450 542 l 450 461 q 410 422 450 422 l 251 422 l 251 132 l 314 132 q 455 147 398 132 q 559 198 511 162 q 654 316 621 244 q 686 463 686 383 q 624 664 686 577 q 502 763 575 732 q 314 794 428 794 l 251 794 l 251 542 z "},"×":{"ha":628,"x_min":53,"x_max":575,"o":"m 314 557 l 475 720 q 511 743 499 743 q 547 720 524 743 l 551 715 q 575 680 575 692 q 551 644 575 667 l 390 481 l 551 320 q 575 284 575 296 q 551 248 575 271 l 547 244 q 511 220 524 220 q 475 244 499 220 l 314 406 l 152 244 q 116 220 129 220 q 80 244 104 220 l 76 248 q 53 284 53 271 q 76 320 53 296 l 238 481 l 76 644 q 53 680 53 667 q 76 715 53 692 l 80 720 q 116 743 104 743 q 152 720 129 743 l 314 557 z "},"Ý":{"ha":737,"x_min":18,"x_max":720,"o":"m 298 400 l 32 863 q 18 897 18 887 q 29 919 18 913 q 68 926 40 926 l 119 926 q 154 922 148 926 q 176 892 161 918 l 368 555 l 562 892 q 583 922 576 918 q 618 926 589 926 l 668 926 q 704 922 695 926 q 720 897 720 914 q 705 863 720 887 l 438 400 l 438 51 q 429 9 438 18 q 387 0 420 0 l 349 0 q 307 9 316 0 q 298 51 298 18 l 298 400 m 517 1139 l 362 1034 q 328 1017 337 1017 q 303 1028 317 1017 q 293 1037 296 1034 q 274 1067 274 1053 q 297 1103 274 1080 l 419 1225 q 456 1249 442 1249 q 489 1232 465 1249 l 517 1212 q 547 1175 547 1192 q 542 1158 547 1164 q 517 1139 536 1152 z "},"Þ":{"ha":663,"x_min":111,"x_max":631,"o":"m 251 246 l 251 39 q 212 0 251 0 l 151 0 q 111 39 111 0 l 111 886 q 151 926 111 926 l 212 926 q 251 886 251 926 l 251 796 l 269 796 q 452 778 397 796 q 600 650 553 745 q 631 522 631 589 q 550 325 631 402 q 316 246 468 246 l 251 246 m 251 376 l 303 376 q 448 413 404 376 q 496 524 496 453 q 444 634 496 597 q 297 667 397 667 l 251 667 l 251 376 z "},"ð":{"ha":738,"x_min":58,"x_max":681,"o":"m 328 925 l 436 982 q 458 989 450 989 q 488 969 476 989 l 497 954 q 504 934 504 943 q 480 902 504 914 l 405 861 q 574 656 513 762 q 681 302 681 469 q 644 142 681 216 q 528 22 605 65 q 371 -18 457 -18 q 134 87 224 -18 q 58 290 58 174 q 157 519 58 426 q 370 600 242 600 q 465 586 414 600 q 296 806 380 731 l 186 747 q 164 740 173 740 q 134 760 146 740 l 126 774 q 120 794 120 785 q 144 826 120 814 l 222 867 q 157 901 186 889 q 102 929 113 921 q 92 953 92 937 q 99 974 92 962 l 114 996 q 144 1017 127 1017 q 210 992 157 1017 q 328 925 231 983 m 369 478 q 233 414 281 478 q 195 287 195 365 q 247 151 195 201 q 369 104 294 104 q 505 166 457 104 q 543 291 543 214 q 492 431 543 380 q 369 478 445 478 z "},"ý":{"ha":667,"x_min":28,"x_max":641,"o":"m 269 109 l 41 522 q 28 555 28 546 q 39 578 28 572 q 79 585 50 585 l 125 585 q 161 581 154 585 q 182 550 168 576 l 342 248 l 491 549 q 511 580 504 576 q 548 585 518 585 l 590 585 q 625 581 617 585 q 641 556 641 574 q 629 522 641 546 l 214 -284 q 193 -314 200 -310 q 157 -319 186 -319 l 113 -319 q 77 -315 86 -319 q 62 -290 62 -308 q 75 -256 62 -281 l 269 109 m 492 829 l 354 703 q 318 682 330 682 q 297 690 310 682 q 286 696 291 693 q 262 728 262 711 q 281 762 262 738 l 385 901 q 406 924 399 920 q 422 929 412 929 q 454 916 430 929 l 483 901 q 511 883 505 890 q 517 864 517 877 q 492 829 517 851 z "},"þ":{"ha":736,"x_min":85,"x_max":679,"o":"m 220 521 q 401 600 300 600 q 609 502 528 600 q 679 289 679 418 q 591 60 679 146 q 404 -18 511 -18 q 220 66 301 -18 l 220 -279 q 181 -319 220 -319 l 125 -319 q 85 -279 85 -319 l 85 974 q 125 1013 85 1013 l 181 1013 q 220 974 220 1013 l 220 521 m 378 479 q 251 418 299 479 q 212 291 212 370 q 264 151 212 201 q 380 104 311 104 q 498 160 453 104 q 541 295 541 215 q 486 436 541 380 q 378 479 444 479 z "},"Ā":{"ha":909,"x_min":22,"x_max":888,"o":"m 654 225 l 258 225 l 172 37 q 166 24 167 26 q 151 4 159 7 q 115 0 142 0 l 73 0 q 37 4 46 0 q 22 28 22 11 q 33 62 22 37 l 426 905 q 443 935 437 928 q 462 941 450 941 q 481 935 475 941 q 498 905 488 928 l 877 62 q 888 28 888 37 q 877 6 888 12 q 837 0 865 0 l 792 0 q 754 5 762 0 q 735 37 747 9 l 654 225 m 597 357 l 460 671 l 316 357 l 597 357 m 260 1159 l 649 1159 q 691 1150 682 1159 q 700 1108 700 1141 l 700 1101 q 691 1059 700 1069 q 649 1050 682 1050 l 260 1050 q 218 1059 227 1050 q 209 1101 209 1069 l 209 1108 q 218 1150 209 1141 q 260 1159 227 1159 z "},"ā":{"ha":736,"x_min":58,"x_max":651,"o":"m 516 61 q 430 0 469 18 q 336 -18 390 -18 q 127 81 209 -18 q 58 294 58 165 q 145 522 58 436 q 333 600 225 600 q 430 581 389 600 q 516 516 472 562 l 516 534 q 525 576 516 566 q 567 585 534 585 l 600 585 q 642 576 633 585 q 651 534 651 566 l 651 51 q 642 9 651 18 q 600 0 633 0 l 567 0 q 525 9 534 0 q 516 51 516 18 l 516 61 m 357 479 q 239 422 283 479 q 195 288 195 368 q 250 146 195 202 q 358 104 293 104 q 486 164 438 104 q 524 291 524 214 q 473 432 524 380 q 357 479 427 479 m 191 818 l 546 818 q 588 809 579 818 q 597 767 597 800 l 597 760 q 588 718 597 727 q 546 709 579 709 l 191 709 q 149 718 157 709 q 140 760 140 727 l 140 767 q 149 809 140 800 q 191 818 157 818 z "},"Ă":{"ha":909,"x_min":22,"x_max":888,"o":"m 654 225 l 258 225 l 172 37 q 166 24 167 26 q 151 4 159 7 q 115 0 142 0 l 73 0 q 37 4 46 0 q 22 28 22 11 q 33 62 22 37 l 426 905 q 443 935 437 928 q 462 941 450 941 q 481 935 475 941 q 498 905 488 928 l 877 62 q 888 28 888 37 q 877 6 888 12 q 837 0 865 0 l 792 0 q 754 5 762 0 q 735 37 747 9 l 654 225 m 597 357 l 460 671 l 316 357 l 597 357 m 286 1206 l 302 1206 q 338 1202 330 1206 q 355 1176 345 1198 q 454 1116 385 1116 q 516 1132 493 1116 q 559 1188 540 1148 q 573 1203 565 1200 q 607 1206 582 1206 l 623 1206 q 660 1199 649 1206 q 671 1175 671 1192 q 658 1134 671 1160 q 627 1088 645 1109 q 454 1009 557 1009 q 281 1088 352 1009 q 251 1134 263 1109 q 238 1176 238 1160 q 249 1199 238 1192 q 286 1206 260 1206 z "},"ă":{"ha":736,"x_min":58,"x_max":651,"o":"m 516 61 q 430 0 469 18 q 336 -18 390 -18 q 127 81 209 -18 q 58 294 58 165 q 145 522 58 436 q 333 600 225 600 q 430 581 389 600 q 516 516 472 562 l 516 534 q 525 576 516 566 q 567 585 534 585 l 600 585 q 642 576 633 585 q 651 534 651 566 l 651 51 q 642 9 651 18 q 600 0 633 0 l 567 0 q 525 9 534 0 q 516 51 516 18 l 516 61 m 357 479 q 239 422 283 479 q 195 288 195 368 q 250 146 195 202 q 358 104 293 104 q 486 164 438 104 q 524 291 524 214 q 473 432 524 380 q 357 479 427 479 m 165 869 l 182 869 q 218 865 210 869 q 236 840 225 861 q 334 781 265 781 q 396 797 373 781 q 439 852 420 812 q 453 866 445 863 q 488 869 462 869 l 503 869 q 540 862 529 869 q 551 839 551 855 q 507 753 551 802 q 334 674 437 674 q 162 753 233 674 q 131 799 144 774 q 119 840 119 824 q 130 862 119 855 q 165 869 141 869 z "},"Ą":{"ha":909,"x_min":22,"x_max":923,"o":"m 859 0 q 803 -79 818 -53 q 789 -128 789 -106 q 802 -160 789 -148 q 836 -172 815 -172 q 878 -164 848 -172 q 893 -162 886 -162 q 923 -201 923 -162 q 895 -260 923 -241 q 808 -279 867 -279 q 705 -243 743 -279 q 665 -158 665 -208 q 775 0 665 -79 q 752 7 759 1 q 735 37 746 13 l 654 225 l 258 225 l 172 37 q 166 24 168 27 q 151 4 159 7 q 115 0 142 0 l 73 0 q 37 4 46 0 q 22 28 22 11 q 33 62 22 38 l 426 905 q 443 935 437 928 q 462 941 450 941 q 481 935 475 941 q 498 905 488 928 l 877 62 q 888 28 888 37 q 879 9 888 18 q 859 0 871 1 m 597 357 l 460 671 l 316 357 l 597 357 z "},"ą":{"ha":736,"x_min":58,"x_max":661,"o":"m 622 0 q 555 -71 572 -47 q 538 -118 538 -94 q 595 -160 538 -160 q 612 -159 603 -160 q 633 -158 626 -158 q 661 -190 661 -158 q 651 -236 661 -222 q 617 -254 642 -247 q 565 -262 593 -262 q 465 -226 505 -262 q 432 -151 432 -195 q 543 0 432 -61 q 521 13 526 3 q 516 51 516 23 l 516 61 q 430 0 469 18 q 336 -18 390 -18 q 127 81 209 -18 q 58 294 58 165 q 145 522 58 436 q 333 600 225 600 q 430 581 389 600 q 516 516 472 562 l 516 534 q 525 576 516 566 q 567 585 534 585 l 600 585 q 642 576 633 585 q 651 534 651 566 l 651 51 q 646 13 651 22 q 622 0 640 3 m 357 479 q 239 422 283 479 q 195 288 195 368 q 250 146 195 202 q 358 104 293 104 q 486 164 438 104 q 524 291 524 214 q 473 432 524 380 q 357 479 427 479 z "},"Ć":{"ha":860,"x_min":65,"x_max":795,"o":"m 795 838 l 795 793 q 770 741 795 741 q 745 750 762 741 q 634 801 668 790 q 548 812 600 812 q 283 685 383 812 q 206 460 206 587 q 319 201 206 301 q 545 114 416 114 q 647 129 602 114 q 749 182 692 144 q 770 191 762 191 q 795 139 795 191 l 795 90 q 786 47 795 56 q 722 16 772 35 q 544 -18 638 -18 q 313 41 419 -18 q 117 243 184 111 q 65 458 65 345 q 121 684 65 577 q 307 878 187 809 q 555 943 419 943 q 770 890 677 943 q 792 872 789 880 q 795 838 795 865 m 662 1139 l 507 1034 q 473 1017 482 1017 q 448 1028 462 1017 q 438 1037 440 1036 q 419 1067 419 1053 q 443 1103 419 1080 l 564 1225 q 601 1249 587 1249 q 635 1232 610 1249 l 663 1212 q 687 1192 682 1198 q 692 1175 692 1186 q 687 1158 692 1164 q 662 1139 682 1152 z "},"ć":{"ha":585,"x_min":57,"x_max":540,"o":"m 540 520 l 540 469 q 516 423 540 423 q 497 432 510 423 q 433 471 454 463 q 376 479 412 479 q 241 420 291 479 q 195 292 195 367 q 245 156 195 212 q 374 104 291 104 q 497 149 448 104 q 518 161 510 161 q 540 115 540 161 l 540 65 q 538 35 540 41 q 530 22 537 28 q 465 -5 513 7 q 376 -18 418 -18 q 138 81 229 -18 q 57 290 57 171 q 98 443 57 370 q 205 555 138 514 q 376 600 281 600 q 467 589 419 600 q 530 563 514 577 q 538 550 536 557 q 540 520 540 543 m 481 829 l 342 703 q 306 682 318 682 q 285 690 298 682 q 273 696 278 694 q 250 728 250 711 q 269 762 250 738 l 374 901 q 394 924 388 920 q 411 929 400 929 q 442 916 418 929 l 471 901 q 500 883 494 890 q 506 864 506 877 q 481 829 506 851 z "},"Ĉ":{"ha":860,"x_min":65,"x_max":795,"o":"m 795 838 l 795 793 q 770 741 795 741 q 745 750 762 741 q 634 801 668 790 q 548 812 600 812 q 283 685 383 812 q 206 460 206 587 q 319 201 206 301 q 545 114 416 114 q 647 129 602 114 q 749 182 692 144 q 770 191 762 191 q 795 139 795 191 l 795 90 q 786 47 795 56 q 722 16 772 35 q 544 -18 638 -18 q 313 41 419 -18 q 117 243 184 111 q 65 458 65 345 q 121 684 65 577 q 307 878 187 809 q 555 943 419 943 q 770 890 677 943 q 792 872 789 880 q 795 838 795 865 m 525 1127 l 439 1046 q 404 1024 416 1024 q 369 1043 393 1024 l 359 1050 q 335 1071 340 1065 q 331 1087 331 1077 q 356 1124 331 1101 l 489 1245 q 525 1267 513 1267 q 560 1245 536 1267 l 696 1124 q 721 1087 721 1101 q 716 1071 721 1077 q 693 1050 712 1065 l 682 1042 q 648 1023 658 1023 q 612 1046 635 1023 l 525 1127 z "},"ĉ":{"ha":585,"x_min":57,"x_max":551,"o":"m 540 520 l 540 469 q 516 423 540 423 q 497 432 510 423 q 433 471 454 463 q 376 479 412 479 q 241 420 291 479 q 195 292 195 367 q 245 156 195 212 q 374 104 291 104 q 497 149 448 104 q 518 161 510 161 q 540 115 540 161 l 540 65 q 538 35 540 41 q 530 22 537 28 q 465 -5 513 7 q 376 -18 418 -18 q 138 81 229 -18 q 57 290 57 171 q 98 443 57 370 q 205 555 138 514 q 376 600 281 600 q 467 589 419 600 q 530 563 514 577 q 538 550 536 557 q 540 520 540 543 m 355 787 l 269 706 q 233 684 246 684 q 199 703 223 684 l 189 711 q 165 731 170 725 q 161 747 161 737 q 186 783 161 761 l 319 905 q 355 927 343 927 q 391 905 366 927 l 526 783 q 551 747 551 761 q 546 731 551 737 q 523 711 541 725 l 512 703 q 502 694 506 697 q 477 684 488 684 q 441 706 465 684 l 355 787 z "},"Ċ":{"ha":860,"x_min":65,"x_max":795,"o":"m 795 838 l 795 793 q 770 741 795 741 q 745 750 762 741 q 634 801 668 790 q 548 812 600 812 q 283 685 383 812 q 206 460 206 587 q 319 201 206 301 q 545 114 416 114 q 647 129 602 114 q 749 182 692 144 q 770 191 762 191 q 795 139 795 191 l 795 90 q 786 47 795 56 q 722 16 772 35 q 544 -18 638 -18 q 313 41 419 -18 q 117 243 184 111 q 65 458 65 345 q 121 684 65 577 q 307 878 187 809 q 555 943 419 943 q 770 890 677 943 q 792 872 789 880 q 795 838 795 865 m 507 1200 q 571 1173 545 1200 q 597 1109 597 1147 q 571 1045 597 1072 q 507 1019 545 1019 q 443 1045 469 1019 q 416 1110 416 1072 q 443 1173 416 1147 q 507 1200 470 1200 z "},"ċ":{"ha":585,"x_min":57,"x_max":540,"o":"m 540 520 l 540 469 q 516 423 540 423 q 497 432 510 423 q 433 471 454 463 q 376 479 412 479 q 241 420 291 479 q 195 292 195 367 q 245 156 195 212 q 374 104 291 104 q 497 149 448 104 q 518 161 510 161 q 540 115 540 161 l 540 65 q 538 35 540 41 q 530 22 537 28 q 465 -5 513 7 q 376 -18 418 -18 q 138 81 229 -18 q 57 290 57 171 q 98 443 57 370 q 205 555 138 514 q 376 600 281 600 q 467 589 419 600 q 530 563 514 577 q 538 550 536 557 q 540 520 540 543 m 344 854 q 408 827 382 854 q 435 764 435 801 q 408 701 435 727 q 345 674 382 674 q 280 701 307 674 q 254 765 254 727 q 280 828 254 802 q 344 854 307 854 z "},"Č":{"ha":860,"x_min":65,"x_max":795,"o":"m 795 838 l 795 793 q 770 741 795 741 q 745 750 762 741 q 634 801 668 790 q 548 812 600 812 q 283 685 383 812 q 206 460 206 587 q 319 201 206 301 q 545 114 416 114 q 647 129 602 114 q 749 182 692 144 q 770 191 762 191 q 795 139 795 191 l 795 90 q 786 47 795 56 q 722 16 772 35 q 544 -18 638 -18 q 313 41 419 -18 q 117 243 184 111 q 65 458 65 345 q 121 684 65 577 q 307 878 187 809 q 555 943 419 943 q 770 890 677 943 q 792 872 789 880 q 795 838 795 865 m 506 1160 l 591 1241 q 627 1263 615 1263 q 662 1244 637 1263 l 672 1236 q 695 1216 691 1221 q 700 1200 700 1210 q 675 1164 700 1186 l 541 1042 q 506 1020 517 1020 q 470 1042 494 1020 l 335 1163 q 310 1200 310 1186 q 314 1216 310 1210 q 338 1236 319 1221 l 349 1244 q 383 1263 373 1263 q 419 1241 395 1263 l 506 1160 z "},"č":{"ha":585,"x_min":57,"x_max":540,"o":"m 540 520 l 540 469 q 516 423 540 423 q 497 432 510 423 q 433 471 454 463 q 376 479 412 479 q 241 420 291 479 q 195 292 195 367 q 245 156 195 212 q 374 104 291 104 q 497 149 448 104 q 518 161 510 161 q 540 115 540 161 l 540 65 q 538 35 540 41 q 530 22 537 28 q 465 -5 513 7 q 376 -18 418 -18 q 138 81 229 -18 q 57 290 57 171 q 98 443 57 370 q 205 555 138 514 q 376 600 281 600 q 467 589 419 600 q 530 563 514 577 q 538 550 536 557 q 540 520 540 543 m 309 824 l 395 905 q 431 928 418 928 q 465 909 441 928 l 475 901 q 499 880 494 886 q 503 864 503 875 q 478 828 503 851 l 345 706 q 334 697 341 703 q 309 684 321 684 q 273 706 298 684 l 138 828 q 113 865 113 850 q 141 901 113 880 l 152 909 q 186 928 176 928 q 222 906 199 928 l 309 824 z "},"Ď":{"ha":892,"x_min":111,"x_max":827,"o":"m 111 51 l 111 875 q 120 917 111 907 q 162 926 130 926 l 306 926 q 540 894 454 926 q 770 697 692 838 q 827 463 827 594 q 642 89 827 222 q 498 19 571 38 q 303 0 426 0 l 162 0 q 120 9 129 0 q 111 51 111 18 m 251 132 l 314 132 q 455 147 398 132 q 559 198 511 162 q 654 315 621 244 q 686 463 686 382 q 624 664 686 576 q 502 763 575 732 q 314 794 428 794 l 251 794 l 251 132 m 420 1160 l 505 1241 q 541 1263 529 1263 q 576 1244 551 1263 l 586 1236 q 609 1216 605 1221 q 614 1200 614 1210 q 589 1164 614 1186 l 455 1042 q 420 1020 431 1020 q 384 1042 408 1020 l 249 1163 q 224 1200 224 1186 q 228 1216 224 1210 q 252 1236 233 1222 l 262 1244 q 297 1263 287 1263 q 333 1241 309 1263 l 420 1160 z "},"ď":{"ha":884,"x_min":58,"x_max":896,"o":"m 516 61 q 335 -18 435 -18 q 127 81 209 -18 q 58 294 58 165 q 145 522 58 436 q 333 600 225 600 q 516 517 435 600 l 516 962 q 525 1004 516 996 q 567 1013 534 1013 l 600 1013 q 642 1004 633 1013 q 651 962 651 996 l 651 51 q 642 9 651 18 q 600 0 633 0 l 567 0 q 525 9 534 0 q 516 51 516 18 l 516 61 m 357 479 q 239 422 283 479 q 195 288 195 368 q 250 146 195 202 q 358 104 293 104 q 486 164 438 104 q 524 292 524 213 q 473 432 524 380 q 357 479 427 479 m 842 1008 l 869 998 q 896 966 896 987 q 889 944 896 957 l 813 798 q 783 774 801 774 q 765 778 775 774 l 749 785 q 725 814 725 794 q 730 835 725 821 l 791 986 q 822 1013 802 1013 q 842 1008 829 1013 z "},"đ":{"ha":736,"x_min":58,"x_max":725,"o":"m 651 879 l 686 879 q 725 840 725 879 l 725 807 q 686 768 725 768 l 651 768 l 651 39 q 612 0 651 0 l 555 0 q 516 39 516 0 l 516 61 q 335 -18 435 -18 q 127 81 209 -18 q 58 294 58 165 q 145 522 58 436 q 332 600 225 600 q 516 517 435 600 l 516 768 l 398 768 q 359 807 359 768 l 359 840 q 398 879 359 879 l 516 879 l 516 974 q 555 1013 516 1013 l 612 1013 q 651 974 651 1013 l 651 879 m 357 479 q 239 422 283 479 q 195 288 195 368 q 250 146 195 202 q 358 104 293 104 q 486 164 438 104 q 524 292 524 213 q 473 432 524 380 q 357 479 427 479 z "},"Ē":{"ha":694,"x_min":111,"x_max":623,"o":"m 251 794 l 251 572 l 560 572 q 602 564 593 572 q 611 522 611 555 l 611 492 q 602 450 611 459 q 560 441 593 441 l 251 441 l 251 132 l 571 132 q 613 123 604 132 q 623 81 623 114 l 623 51 q 613 9 623 18 q 571 0 604 0 l 162 0 q 120 9 129 0 q 111 51 111 18 l 111 875 q 120 917 111 907 q 162 926 130 926 l 571 926 q 613 917 604 926 q 623 875 623 907 l 623 845 q 613 803 623 812 q 571 794 604 794 l 251 794 m 172 1159 l 560 1159 q 602 1150 593 1159 q 611 1108 611 1141 l 611 1101 q 602 1059 611 1069 q 560 1050 593 1050 l 172 1050 q 130 1059 138 1050 q 121 1101 121 1069 l 121 1108 q 130 1150 121 1141 q 172 1159 138 1159 z "},"ē":{"ha":680,"x_min":58,"x_max":618,"o":"m 199 260 q 219 184 202 218 q 351 104 260 104 q 490 187 437 104 q 519 207 502 207 q 551 193 527 207 l 577 178 q 604 160 598 166 q 610 142 610 153 q 602 120 610 132 q 347 -18 512 -18 q 121 84 205 -18 q 58 292 58 162 q 92 451 58 377 q 190 561 123 522 q 339 600 256 600 q 515 545 439 600 q 618 295 618 467 q 608 267 618 274 q 566 260 597 260 l 199 260 m 479 370 q 452 429 469 408 q 342 479 412 479 q 257 450 293 479 q 208 370 220 420 l 479 370 m 162 818 l 518 818 q 559 809 551 818 q 569 767 569 800 l 569 760 q 559 718 569 727 q 518 709 551 709 l 162 709 q 120 718 130 709 q 111 760 111 727 l 111 767 q 120 809 111 800 q 162 818 130 818 z "},"Ĕ":{"ha":694,"x_min":111,"x_max":623,"o":"m 251 794 l 251 572 l 560 572 q 602 564 593 572 q 611 522 611 555 l 611 492 q 602 450 611 459 q 560 441 593 441 l 251 441 l 251 132 l 571 132 q 613 123 604 132 q 623 81 623 114 l 623 51 q 613 9 623 18 q 571 0 604 0 l 162 0 q 120 9 129 0 q 111 51 111 18 l 111 875 q 120 917 111 907 q 162 926 130 926 l 571 926 q 613 917 604 926 q 623 875 623 907 l 623 845 q 613 803 623 812 q 571 794 604 794 l 251 794 m 216 1206 l 232 1206 q 268 1202 260 1206 q 286 1176 275 1198 q 385 1116 315 1116 q 447 1132 423 1116 q 490 1188 470 1148 q 503 1203 495 1200 q 537 1206 511 1206 l 553 1206 q 590 1199 579 1206 q 601 1175 601 1192 q 588 1134 601 1160 q 557 1088 575 1109 q 385 1009 488 1009 q 212 1088 282 1009 q 181 1134 193 1109 q 168 1176 168 1160 q 179 1199 168 1192 q 216 1206 191 1206 z "},"ĕ":{"ha":680,"x_min":58,"x_max":618,"o":"m 199 260 q 219 184 202 218 q 351 104 260 104 q 490 187 437 104 q 519 207 502 207 q 551 193 527 207 l 577 178 q 604 160 598 166 q 610 142 610 153 q 602 120 610 132 q 347 -18 512 -18 q 121 84 205 -18 q 58 292 58 162 q 92 451 58 377 q 190 561 123 522 q 339 600 256 600 q 515 545 439 600 q 618 295 618 467 q 608 267 618 274 q 566 260 597 260 l 199 260 m 479 370 q 452 429 469 408 q 342 479 412 479 q 257 450 293 479 q 208 370 220 420 l 479 370 m 171 869 l 187 869 q 223 865 216 869 q 241 840 231 861 q 340 781 271 781 q 402 797 378 781 q 445 852 425 812 q 459 866 450 863 q 493 869 467 869 l 509 869 q 545 862 534 869 q 556 839 556 855 q 513 753 556 802 q 340 674 442 674 q 168 753 238 674 q 137 799 149 774 q 124 840 124 824 q 135 862 124 855 q 171 869 146 869 z "},"Ė":{"ha":694,"x_min":111,"x_max":623,"o":"m 251 794 l 251 572 l 560 572 q 602 564 593 572 q 611 522 611 555 l 611 492 q 602 450 611 459 q 560 441 593 441 l 251 441 l 251 132 l 571 132 q 613 123 604 132 q 623 81 623 114 l 623 51 q 613 9 623 18 q 571 0 604 0 l 162 0 q 120 9 129 0 q 111 51 111 18 l 111 875 q 120 917 111 907 q 162 926 130 926 l 571 926 q 613 917 604 926 q 623 875 623 907 l 623 845 q 613 803 623 812 q 571 794 604 794 l 251 794 m 368 1200 q 432 1173 406 1200 q 458 1109 458 1147 q 432 1045 458 1072 q 368 1019 406 1019 q 304 1045 330 1019 q 277 1110 277 1072 q 304 1173 277 1147 q 368 1200 331 1200 z "},"ė":{"ha":680,"x_min":58,"x_max":618,"o":"m 199 260 q 219 184 202 218 q 351 104 260 104 q 490 187 437 104 q 519 207 502 207 q 551 193 527 207 l 577 178 q 604 160 598 166 q 610 142 610 153 q 602 120 610 132 q 347 -18 512 -18 q 121 84 205 -18 q 58 292 58 162 q 92 451 58 377 q 190 561 123 522 q 339 600 256 600 q 515 545 439 600 q 618 295 618 467 q 608 267 618 274 q 566 260 597 260 l 199 260 m 479 370 q 452 429 469 408 q 342 479 412 479 q 257 450 293 479 q 208 370 220 420 l 479 370 m 340 854 q 404 828 378 854 q 431 764 431 802 q 404 701 431 727 q 340 674 378 674 q 276 701 302 674 q 250 765 250 727 q 276 828 250 802 q 340 854 303 854 z "},"Ę":{"ha":694,"x_min":111,"x_max":658,"o":"m 251 441 l 251 132 l 571 132 q 613 123 604 132 q 623 81 623 114 l 623 51 q 617 13 623 22 q 594 0 612 3 q 538 -79 553 -52 q 524 -129 524 -106 q 537 -160 524 -148 q 571 -172 550 -172 q 613 -164 583 -172 q 628 -162 621 -162 q 658 -201 658 -162 q 630 -260 658 -241 q 543 -279 602 -279 q 439 -243 477 -279 q 400 -158 400 -208 q 509 0 400 -80 l 162 0 q 120 9 129 0 q 111 51 111 18 l 111 875 q 120 917 111 907 q 162 926 130 926 l 571 926 q 613 917 604 926 q 623 875 623 907 l 623 845 q 613 803 623 812 q 571 794 604 794 l 251 794 l 251 572 l 560 572 q 602 564 593 572 q 611 522 611 555 l 611 492 q 602 450 611 459 q 560 441 593 441 l 251 441 z "},"ę":{"ha":680,"x_min":58,"x_max":618,"o":"m 199 260 q 219 184 202 218 q 351 104 260 104 q 490 187 437 104 q 519 207 502 207 q 551 193 527 207 l 577 178 q 604 160 598 166 q 610 142 610 153 q 559 66 610 121 q 481 -28 502 5 q 460 -93 460 -62 q 517 -136 460 -136 q 534 -136 526 -136 q 554 -134 548 -134 q 583 -166 583 -134 q 572 -212 583 -199 q 539 -231 564 -223 q 486 -238 514 -238 q 387 -202 426 -238 q 353 -127 353 -171 q 410 -12 353 -66 q 348 -18 378 -18 q 121 84 205 -18 q 58 292 58 162 q 92 451 58 377 q 190 561 123 522 q 339 600 256 600 q 515 545 439 600 q 618 295 618 467 q 608 267 618 274 q 566 260 597 260 l 199 260 m 479 370 q 452 429 469 408 q 342 479 412 479 q 257 450 293 479 q 208 370 220 420 l 479 370 z "},"Ě":{"ha":694,"x_min":111,"x_max":623,"o":"m 251 794 l 251 572 l 560 572 q 602 564 593 572 q 611 522 611 555 l 611 492 q 602 450 611 459 q 560 441 593 441 l 251 441 l 251 132 l 571 132 q 613 123 604 132 q 623 81 623 114 l 623 51 q 613 9 623 18 q 571 0 604 0 l 162 0 q 120 9 129 0 q 111 51 111 18 l 111 875 q 120 917 111 907 q 162 926 130 926 l 571 926 q 613 917 604 926 q 623 875 623 907 l 623 845 q 613 803 623 812 q 571 794 604 794 l 251 794 m 372 1160 l 457 1241 q 493 1263 481 1263 q 528 1244 503 1263 l 538 1236 q 561 1216 557 1221 q 566 1200 566 1210 q 541 1164 566 1186 l 407 1042 q 372 1020 383 1020 q 336 1042 359 1020 l 201 1163 q 176 1200 176 1186 q 203 1236 176 1215 l 214 1244 q 249 1263 239 1263 q 285 1241 261 1263 l 372 1160 z "},"ě":{"ha":680,"x_min":58,"x_max":618,"o":"m 199 260 q 219 184 202 218 q 351 104 260 104 q 490 187 437 104 q 519 207 502 207 q 551 193 527 207 l 577 178 q 604 160 598 166 q 610 142 610 153 q 602 120 610 132 q 347 -18 512 -18 q 121 84 205 -18 q 58 292 58 162 q 92 451 58 377 q 190 561 123 522 q 339 600 256 600 q 515 545 439 600 q 618 295 618 467 q 608 267 618 274 q 566 260 597 260 l 199 260 m 479 370 q 452 429 469 408 q 342 479 412 479 q 257 450 293 479 q 208 370 220 420 l 479 370 m 341 824 l 427 905 q 463 928 450 928 q 498 909 473 928 l 507 901 q 531 881 526 886 q 535 864 535 875 q 511 828 535 850 l 377 706 q 367 697 373 703 q 341 684 353 684 q 306 706 330 684 l 170 828 q 145 865 145 850 q 150 880 145 875 q 174 901 154 886 l 184 909 q 218 928 208 928 q 254 906 231 928 l 341 824 z "},"Ĝ":{"ha":1035,"x_min":65,"x_max":970,"o":"m 819 351 l 638 351 q 596 359 606 351 q 587 401 587 369 l 587 431 q 596 473 587 464 q 638 482 606 482 l 919 482 q 961 475 951 482 q 970 446 970 468 q 923 213 970 303 q 782 56 872 116 q 536 -18 671 -18 q 315 39 419 -18 q 115 246 183 111 q 65 461 65 347 q 140 722 65 604 q 327 890 210 831 q 549 943 431 943 q 903 784 752 943 q 917 758 917 770 q 893 721 917 744 l 868 697 q 832 675 845 675 q 804 692 817 675 q 693 779 762 746 q 551 812 624 812 q 299 705 402 812 q 205 461 205 608 q 316 207 205 306 q 541 114 420 114 q 727 183 646 114 q 819 351 808 253 m 549 1127 l 463 1046 q 427 1024 440 1024 q 393 1043 417 1024 l 382 1050 q 355 1087 355 1072 q 380 1124 355 1101 l 513 1245 q 549 1267 537 1267 q 585 1245 560 1267 l 720 1124 q 745 1087 745 1101 q 740 1071 745 1077 q 717 1050 736 1065 l 706 1042 q 671 1023 682 1023 q 635 1046 659 1023 l 549 1127 z "},"ĝ":{"ha":735,"x_min":58,"x_max":650,"o":"m 515 65 q 330 -18 435 -18 q 130 74 212 -18 q 58 288 58 155 q 147 525 58 439 q 332 600 226 600 q 515 518 442 600 l 515 534 q 524 576 515 566 q 566 585 534 585 l 600 585 q 642 576 633 585 q 650 534 650 566 l 650 14 q 633 -142 650 -92 q 522 -279 603 -232 q 366 -319 453 -319 q 150 -233 227 -319 q 101 -153 119 -199 q 82 -67 82 -107 q 93 -42 82 -48 q 133 -35 103 -35 l 165 -35 q 205 -42 195 -35 q 216 -67 216 -48 q 267 -165 220 -129 q 367 -198 309 -198 q 438 -182 405 -198 q 489 -139 471 -166 q 515 -17 515 -100 l 515 65 m 355 479 q 229 413 273 479 q 195 283 195 364 q 244 151 195 199 q 358 104 292 104 q 483 165 436 104 q 521 290 521 214 q 463 440 521 389 q 355 479 418 479 m 344 787 l 258 706 q 222 684 235 684 q 188 703 212 684 l 178 711 q 154 731 159 725 q 150 747 150 737 q 175 783 150 761 l 309 905 q 344 927 332 927 q 380 905 355 927 l 515 783 q 540 747 540 761 q 535 731 540 737 q 512 711 530 725 l 501 703 q 491 694 495 697 q 467 684 477 684 q 431 706 454 684 l 344 787 z "},"Ğ":{"ha":1035,"x_min":65,"x_max":970,"o":"m 819 351 l 638 351 q 596 359 606 351 q 587 401 587 369 l 587 431 q 596 473 587 464 q 638 482 606 482 l 919 482 q 961 475 951 482 q 970 446 970 468 q 923 213 970 303 q 782 56 872 116 q 536 -18 671 -18 q 315 39 419 -18 q 115 246 183 111 q 65 461 65 347 q 140 722 65 604 q 327 890 210 831 q 549 943 431 943 q 903 784 752 943 q 917 758 917 770 q 893 721 917 744 l 868 697 q 832 675 845 675 q 804 692 817 675 q 693 779 762 746 q 551 812 624 812 q 299 705 402 812 q 205 461 205 608 q 316 207 205 306 q 541 114 420 114 q 727 183 646 114 q 819 351 808 253 m 372 1206 l 387 1206 q 424 1202 416 1206 q 441 1176 431 1198 q 541 1116 471 1116 q 603 1132 579 1116 q 646 1188 626 1148 q 659 1203 650 1200 q 693 1206 667 1206 l 709 1206 q 745 1199 734 1206 q 756 1175 756 1192 q 743 1134 756 1160 q 713 1088 730 1109 q 540 1009 643 1009 q 368 1088 437 1009 q 337 1134 349 1109 q 324 1176 324 1160 q 335 1199 324 1192 q 372 1206 347 1206 z "},"ğ":{"ha":735,"x_min":58,"x_max":650,"o":"m 515 65 q 330 -18 435 -18 q 130 74 212 -18 q 58 288 58 155 q 147 525 58 439 q 332 600 226 600 q 515 518 442 600 l 515 534 q 524 576 515 566 q 566 585 534 585 l 600 585 q 642 576 633 585 q 650 534 650 566 l 650 14 q 633 -142 650 -92 q 522 -279 603 -232 q 366 -319 453 -319 q 150 -233 227 -319 q 101 -153 119 -199 q 82 -67 82 -107 q 93 -42 82 -48 q 133 -35 103 -35 l 165 -35 q 205 -42 195 -35 q 216 -67 216 -48 q 267 -165 220 -129 q 367 -198 309 -198 q 438 -182 405 -198 q 489 -139 471 -166 q 515 -17 515 -100 l 515 65 m 355 479 q 229 413 273 479 q 195 283 195 364 q 244 151 195 199 q 358 104 292 104 q 483 165 436 104 q 521 290 521 214 q 463 440 521 389 q 355 479 418 479 m 149 869 l 165 869 q 201 865 194 869 q 219 840 208 861 q 318 781 248 781 q 379 797 356 781 q 423 852 403 812 q 437 866 429 863 q 471 869 445 869 l 487 869 q 523 862 512 869 q 534 839 534 855 q 490 753 534 802 q 317 674 420 674 q 145 753 216 674 q 114 799 127 774 q 102 840 102 824 q 113 862 102 855 q 149 869 124 869 z "},"Ġ":{"ha":1035,"x_min":65,"x_max":970,"o":"m 819 351 l 638 351 q 596 359 606 351 q 587 401 587 369 l 587 431 q 596 473 587 464 q 638 482 606 482 l 919 482 q 961 475 951 482 q 970 446 970 468 q 923 213 970 303 q 782 56 872 116 q 536 -18 671 -18 q 315 39 419 -18 q 115 246 183 111 q 65 461 65 347 q 140 722 65 604 q 327 890 210 831 q 549 943 431 943 q 903 784 752 943 q 917 758 917 770 q 893 721 917 744 l 868 697 q 832 675 845 675 q 804 692 817 675 q 693 779 762 746 q 551 812 624 812 q 299 705 402 812 q 205 461 205 608 q 316 207 205 306 q 541 114 420 114 q 727 183 646 114 q 819 351 808 253 m 534 1200 q 599 1173 572 1200 q 625 1109 625 1147 q 599 1045 625 1072 q 535 1019 572 1019 q 471 1045 497 1019 q 444 1110 444 1072 q 471 1173 444 1147 q 534 1200 498 1200 z "},"ġ":{"ha":735,"x_min":58,"x_max":650,"o":"m 515 65 q 330 -18 435 -18 q 130 74 212 -18 q 58 288 58 155 q 147 525 58 439 q 332 600 226 600 q 515 518 442 600 l 515 534 q 524 576 515 566 q 566 585 534 585 l 600 585 q 642 576 633 585 q 650 534 650 566 l 650 14 q 633 -142 650 -92 q 522 -279 603 -232 q 366 -319 453 -319 q 150 -233 227 -319 q 101 -153 119 -199 q 82 -67 82 -107 q 93 -42 82 -48 q 133 -35 103 -35 l 165 -35 q 205 -42 195 -35 q 216 -67 216 -48 q 267 -165 220 -129 q 367 -198 309 -198 q 438 -182 405 -198 q 489 -139 471 -166 q 515 -17 515 -100 l 515 65 m 355 479 q 229 413 273 479 q 195 283 195 364 q 244 151 195 199 q 358 104 292 104 q 483 165 436 104 q 521 290 521 214 q 463 440 521 389 q 355 479 418 479 m 320 854 q 385 828 358 854 q 411 764 411 802 q 385 701 411 727 q 321 674 358 674 q 256 701 283 674 q 230 765 230 727 q 257 828 230 802 q 320 854 283 854 z "},"Ģ":{"ha":1035,"x_min":65,"x_max":970,"o":"m 819 351 l 638 351 q 596 359 606 351 q 587 401 587 369 l 587 431 q 596 473 587 464 q 638 482 606 482 l 919 482 q 961 475 951 482 q 970 446 970 468 q 923 213 970 303 q 782 56 872 116 q 536 -18 671 -18 q 315 39 419 -18 q 115 246 183 111 q 65 461 65 347 q 140 722 65 604 q 327 890 210 831 q 549 943 431 943 q 903 784 752 943 q 917 758 917 770 q 893 721 917 744 l 868 697 q 832 675 845 675 q 804 692 817 675 q 693 779 762 746 q 551 812 624 812 q 299 705 402 812 q 205 461 205 608 q 316 207 205 306 q 541 114 420 114 q 727 183 646 114 q 819 351 808 253 m 547 -88 l 575 -100 q 603 -130 603 -110 q 595 -153 603 -139 l 519 -301 q 488 -325 507 -325 q 471 -321 481 -325 l 454 -314 q 430 -284 430 -304 q 435 -264 430 -276 l 496 -111 q 526 -83 507 -83 q 547 -88 533 -83 z "},"ģ":{"ha":735,"x_min":58,"x_max":650,"o":"m 515 65 q 330 -18 435 -18 q 130 74 212 -18 q 58 288 58 155 q 147 525 58 439 q 332 600 226 600 q 515 518 442 600 l 515 534 q 524 576 515 566 q 566 585 534 585 l 600 585 q 642 576 633 585 q 650 534 650 566 l 650 14 q 633 -142 650 -92 q 522 -279 603 -232 q 366 -319 453 -319 q 150 -233 227 -319 q 101 -153 119 -199 q 82 -67 82 -107 q 93 -42 82 -48 q 133 -35 103 -35 l 165 -35 q 205 -42 195 -35 q 216 -67 216 -48 q 267 -165 220 -129 q 367 -198 309 -198 q 438 -182 405 -198 q 489 -139 471 -166 q 515 -17 515 -100 l 515 65 m 355 479 q 229 413 273 479 q 195 283 195 364 q 244 151 195 199 q 358 104 292 104 q 483 165 436 104 q 521 290 521 214 q 463 440 521 389 q 355 479 418 479 m 347 688 l 320 699 q 293 730 293 709 q 300 753 293 739 l 376 899 q 407 922 389 922 q 425 918 414 922 l 440 912 q 464 882 464 903 q 459 862 464 873 l 399 710 q 368 684 388 684 q 347 688 359 684 z "},"Ĥ":{"ha":901,"x_min":111,"x_max":790,"o":"m 251 564 l 650 564 l 650 875 q 659 917 650 908 q 701 926 668 926 l 739 926 q 781 917 772 926 q 790 875 790 908 l 790 51 q 781 9 790 18 q 739 0 772 0 l 701 0 q 659 9 669 0 q 650 51 650 18 l 650 432 l 251 432 l 251 51 q 242 9 251 18 q 200 0 233 0 l 162 0 q 120 9 129 0 q 111 51 111 18 l 111 875 q 120 917 111 908 q 162 926 129 926 l 200 926 q 242 917 233 926 q 251 875 251 908 l 251 564 m 450 1127 l 364 1046 q 328 1024 341 1024 q 294 1043 317 1024 l 283 1050 q 260 1071 264 1065 q 256 1087 256 1077 q 281 1124 256 1101 l 414 1245 q 450 1267 437 1267 q 485 1245 461 1267 l 621 1124 q 646 1087 646 1101 q 641 1071 646 1077 q 618 1050 637 1065 l 607 1042 q 572 1023 583 1023 q 536 1046 560 1023 l 450 1127 z "},"ĥ":{"ha":673,"x_min":-44,"x_max":588,"o":"m 220 536 q 379 600 292 600 q 477 579 432 600 q 549 521 523 557 q 579 455 571 492 q 588 358 588 418 l 588 51 q 579 9 588 18 q 537 0 570 0 l 504 0 q 462 9 471 0 q 453 51 453 18 l 453 345 q 435 437 453 406 q 349 479 412 479 q 244 430 275 479 q 220 282 220 393 l 220 51 q 212 9 220 18 q 170 0 203 0 l 136 0 q 94 9 103 0 q 85 51 85 18 l 85 962 q 94 1004 85 996 q 136 1013 103 1013 l 170 1013 q 212 1004 203 1013 q 220 962 220 996 l 220 536 m 150 1127 l 64 1046 q 28 1024 41 1024 q -6 1043 18 1024 l -16 1050 q -40 1071 -35 1065 q -44 1087 -44 1077 q -19 1124 -44 1101 l 114 1245 q 150 1267 138 1267 q 185 1245 161 1267 l 321 1124 q 346 1087 346 1101 q 341 1071 346 1077 q 318 1050 337 1065 l 307 1042 q 273 1023 283 1023 q 237 1046 260 1023 l 150 1127 z "},"Ħ":{"ha":901,"x_min":22,"x_max":892,"o":"m 650 821 l 650 875 q 659 917 650 908 q 701 926 668 926 l 739 926 q 781 917 772 926 q 790 875 790 908 l 790 821 l 842 821 q 883 812 874 821 q 892 770 892 802 l 892 763 q 883 721 892 730 q 842 712 874 712 l 790 712 l 790 51 q 781 9 790 18 q 739 0 772 0 l 701 0 q 659 9 668 0 q 650 51 650 18 l 650 432 l 251 432 l 251 51 q 242 9 251 18 q 200 0 233 0 l 162 0 q 120 9 130 0 q 111 51 111 18 l 111 712 l 73 712 q 31 721 40 712 q 22 763 22 730 l 22 770 q 31 812 22 802 q 73 821 39 821 l 111 821 l 111 875 q 120 917 111 908 q 162 926 130 926 l 200 926 q 242 917 233 926 q 251 875 251 908 l 251 821 l 650 821 m 650 712 l 251 712 l 251 564 l 650 564 l 650 712 z "},"ħ":{"ha":673,"x_min":-12,"x_max":588,"o":"m 85 732 l 39 732 q -3 741 5 732 q -12 783 -12 750 l -12 789 q -3 831 -12 822 q 39 840 5 840 l 85 840 l 85 962 q 94 1004 85 995 q 136 1013 103 1013 l 170 1013 q 212 1004 202 1013 q 220 962 220 995 l 220 840 l 394 840 q 436 831 427 840 q 445 789 445 822 l 445 783 q 436 741 445 750 q 394 732 427 732 l 220 732 l 220 536 q 379 600 292 600 q 477 579 432 600 q 549 521 523 558 q 579 455 570 492 q 588 358 588 418 l 588 51 q 579 9 588 18 q 537 0 570 0 l 504 0 q 462 9 471 0 q 453 51 453 18 l 453 345 q 435 437 453 406 q 348 479 412 479 q 243 430 275 479 q 220 282 220 393 l 220 51 q 212 9 220 18 q 170 0 202 0 l 136 0 q 94 9 103 0 q 85 51 85 18 l 85 732 z "},"Ĩ":{"ha":362,"x_min":-54,"x_max":420,"o":"m 251 875 l 251 51 q 242 9 251 18 q 200 0 233 0 l 162 0 q 120 9 129 0 q 111 51 111 18 l 111 875 q 120 917 111 908 q 162 926 129 926 l 200 926 q 242 917 233 926 q 251 875 251 908 m 375 1179 l 406 1152 q 420 1127 420 1140 q 398 1085 420 1112 q 272 1020 346 1020 q 227 1026 247 1020 q 162 1053 206 1032 q 79 1081 104 1081 q 32 1050 56 1081 q 5 1035 20 1035 q -11 1040 -4 1035 l -42 1066 q -54 1090 -54 1076 q -28 1137 -54 1106 q 88 1198 22 1198 q 197 1166 135 1198 q 253 1139 242 1143 q 276 1135 264 1135 q 332 1172 305 1135 q 357 1185 341 1185 q 375 1179 367 1185 z "},"ĩ":{"ha":306,"x_min":-83,"x_max":391,"o":"m 220 534 l 220 51 q 212 9 220 18 q 170 0 203 0 l 136 0 q 94 9 103 0 q 85 51 85 18 l 85 534 q 94 576 85 566 q 136 585 103 585 l 170 585 q 212 576 203 585 q 220 534 220 566 m 60 852 q 168 821 106 852 q 225 793 215 798 q 248 789 235 789 q 304 827 277 789 q 330 840 313 840 q 363 821 341 840 q 375 810 365 819 q 391 783 391 798 q 385 763 391 774 q 243 675 334 675 q 198 682 219 675 q 134 709 178 688 q 52 736 75 736 q 4 706 28 736 q -24 690 -8 690 q -55 709 -35 690 q -67 718 -58 711 q -83 747 -83 732 q -57 792 -83 761 q 60 852 -7 852 z "},"Ī":{"ha":362,"x_min":-14,"x_max":375,"o":"m 251 875 l 251 51 q 242 9 251 18 q 200 0 233 0 l 162 0 q 120 9 129 0 q 111 51 111 18 l 111 875 q 120 917 111 908 q 162 926 129 926 l 200 926 q 242 917 233 926 q 251 875 251 908 m 37 1159 l 324 1159 q 366 1150 357 1159 q 375 1108 375 1141 l 375 1101 q 366 1059 375 1069 q 324 1050 357 1050 l 37 1050 q -5 1059 4 1050 q -14 1101 -14 1069 l -14 1108 q -5 1150 -14 1141 q 37 1159 4 1159 z "},"ī":{"ha":305,"x_min":-18,"x_max":324,"o":"m 220 534 l 220 51 q 212 9 220 18 q 170 0 202 0 l 136 0 q 94 9 103 0 q 85 51 85 18 l 85 534 q 94 576 85 566 q 136 585 103 585 l 170 585 q 212 576 202 585 q 220 534 220 566 m 33 818 l 273 818 q 315 809 307 818 q 324 767 324 800 l 324 760 q 315 718 324 727 q 273 709 307 709 l 33 709 q -9 718 -1 709 q -18 760 -18 727 l -18 767 q -9 809 -18 800 q 33 818 -1 818 z "},"Ĭ":{"ha":362,"x_min":-35,"x_max":397,"o":"m 251 875 l 251 51 q 242 9 251 18 q 200 0 233 0 l 162 0 q 120 9 129 0 q 111 51 111 18 l 111 875 q 120 917 111 908 q 162 926 129 926 l 200 926 q 242 917 233 926 q 251 875 251 908 m 12 1206 l 28 1206 q 64 1202 57 1206 q 82 1176 71 1198 q 181 1116 111 1116 q 243 1132 220 1116 q 286 1188 267 1148 q 300 1203 292 1200 q 334 1206 308 1206 l 350 1206 q 387 1199 376 1206 q 397 1175 397 1192 q 385 1134 397 1160 q 354 1088 372 1109 q 181 1009 283 1009 q 8 1088 79 1009 q -35 1176 -35 1137 q -24 1199 -35 1192 q 12 1206 -14 1206 z "},"ĭ":{"ha":306,"x_min":-63,"x_max":369,"o":"m 220 534 l 220 51 q 212 9 220 18 q 170 0 203 0 l 136 0 q 94 9 103 0 q 85 51 85 18 l 85 534 q 94 576 85 566 q 136 585 103 585 l 170 585 q 212 576 203 585 q 220 534 220 566 m -16 869 l 0 869 q 36 865 29 869 q 54 840 43 861 q 153 781 83 781 q 215 797 191 781 q 258 852 238 812 q 272 866 264 863 q 306 869 280 869 l 322 869 q 358 862 347 869 q 369 839 369 855 q 356 799 369 824 q 326 753 343 773 q 153 674 256 674 q -20 753 51 674 q -63 840 -63 802 q -52 863 -63 856 q -16 869 -41 869 z "},"Į":{"ha":362,"x_min":32,"x_max":290,"o":"m 226 0 q 155 -129 155 -90 q 169 -160 155 -148 q 203 -172 182 -172 q 245 -164 214 -172 q 260 -163 252 -163 q 290 -201 290 -163 q 262 -260 290 -241 q 175 -279 234 -279 q 71 -244 109 -279 q 32 -158 32 -208 q 142 0 32 -80 q 117 12 123 2 q 111 51 111 22 l 111 875 q 120 917 111 908 q 162 926 129 926 l 200 926 q 242 917 233 926 q 251 875 251 908 l 251 51 q 247 14 251 23 q 226 0 242 5 z "},"į":{"ha":306,"x_min":6,"x_max":241,"o":"m 195 0 q 130 -70 146 -46 q 113 -118 113 -94 q 170 -160 113 -160 q 186 -159 177 -160 q 207 -158 200 -158 q 235 -190 235 -158 q 225 -236 235 -222 q 192 -254 216 -247 q 139 -262 168 -262 q 39 -226 79 -262 q 6 -151 6 -195 q 117 0 6 -60 q 91 12 97 3 q 85 52 85 22 l 85 534 q 94 576 85 566 q 136 585 103 585 l 170 585 q 212 576 203 585 q 220 534 220 566 l 220 52 q 216 15 220 24 q 195 0 212 6 m 153 913 q 215 888 189 913 q 241 826 241 863 q 215 764 241 789 q 153 738 189 738 q 91 764 117 738 q 65 827 65 789 q 91 888 65 862 q 153 913 117 913 z "},"İ":{"ha":362,"x_min":91,"x_max":272,"o":"m 251 875 l 251 51 q 242 9 251 18 q 200 0 233 0 l 162 0 q 120 9 130 0 q 111 51 111 18 l 111 875 q 120 917 111 908 q 162 926 130 926 l 200 926 q 242 917 233 926 q 251 875 251 908 m 181 1200 q 245 1173 219 1200 q 272 1109 272 1147 q 245 1045 272 1072 q 182 1019 219 1019 q 117 1045 144 1019 q 91 1110 91 1072 q 118 1173 91 1147 q 181 1200 144 1200 z "},"Ĳ":{"ha":819,"x_min":111,"x_max":712,"o":"m 251 875 l 251 51 q 242 9 251 18 q 200 0 233 0 l 162 0 q 120 9 129 0 q 111 51 111 18 l 111 875 q 120 917 111 908 q 162 926 129 926 l 200 926 q 242 917 233 926 q 251 875 251 908 m 712 875 l 712 327 q 696 161 712 218 q 609 29 671 76 q 461 -18 548 -18 q 352 -1 397 -18 q 308 41 308 16 q 322 73 308 49 l 340 104 q 358 132 352 126 q 376 138 365 138 q 391 134 382 138 q 432 117 422 120 q 460 114 443 114 q 558 184 534 114 q 572 327 572 224 l 572 875 q 581 917 572 908 q 623 926 590 926 l 661 926 q 703 917 694 926 q 712 875 712 908 z "},"ĳ":{"ha":558,"x_min":65,"x_max":496,"o":"m 220 534 l 220 51 q 212 9 220 18 q 170 0 203 0 l 136 0 q 94 9 103 0 q 85 51 85 18 l 85 534 q 94 576 85 566 q 136 585 103 585 l 170 585 q 212 576 203 585 q 220 534 220 566 m 408 913 q 470 888 444 913 q 496 826 496 863 q 470 764 496 789 q 408 738 444 738 q 346 764 372 738 q 320 827 320 789 q 346 888 320 862 q 408 913 372 913 m 476 534 l 476 -268 q 467 -310 476 -301 q 425 -319 458 -319 l 392 -319 q 350 -310 359 -319 q 341 -268 341 -300 l 341 534 q 350 576 341 566 q 392 585 359 585 l 425 585 q 467 576 458 585 q 476 534 476 567 m 153 913 q 215 888 189 913 q 241 826 241 863 q 215 764 241 789 q 153 738 189 738 q 91 764 117 738 q 65 827 65 790 q 91 888 65 862 q 153 913 117 913 z "},"Ĵ":{"ha":504,"x_min":-12,"x_max":524,"o":"m 393 875 l 393 327 q 376 161 393 218 q 290 29 351 76 q 142 -18 229 -18 q 33 -1 78 -18 q -12 41 -12 16 q 3 73 -12 49 l 20 104 q 39 132 33 126 q 57 138 45 138 q 72 134 63 138 q 113 117 102 120 q 140 114 123 114 q 239 184 215 114 q 253 327 253 224 l 253 875 q 262 917 253 908 q 304 926 271 926 l 342 926 q 384 917 374 926 q 393 875 393 908 m 328 1127 l 243 1046 q 206 1024 219 1024 q 172 1043 196 1024 l 162 1050 q 139 1071 143 1065 q 134 1087 134 1077 q 159 1124 134 1101 l 292 1245 q 328 1267 316 1267 q 363 1245 340 1267 l 498 1124 q 524 1087 524 1101 q 520 1071 524 1077 q 496 1050 515 1065 l 486 1042 q 450 1023 461 1023 q 415 1046 439 1023 l 328 1127 z "},"ĵ":{"ha":306,"x_min":-42,"x_max":348,"o":"m 220 534 l 220 -268 q 212 -310 220 -301 q 170 -319 203 -319 l 136 -319 q 94 -310 103 -319 q 85 -268 85 -300 l 85 534 q 94 576 85 566 q 136 585 103 585 l 170 585 q 212 576 203 585 q 220 534 220 567 m 152 787 l 66 706 q 31 684 43 684 q -4 703 20 684 l -14 711 q -38 731 -33 725 q -42 747 -42 737 q -17 783 -42 761 l 116 905 q 152 927 140 927 q 187 905 163 927 l 323 783 q 348 747 348 761 q 343 731 348 737 q 320 711 339 725 l 309 703 q 298 694 303 697 q 275 684 286 684 q 239 706 262 684 l 152 787 z "},"Ķ":{"ha":814,"x_min":111,"x_max":766,"o":"m 251 556 l 588 902 q 612 924 607 922 q 644 926 617 926 l 704 926 q 744 919 732 926 q 755 895 755 912 q 731 859 755 883 l 380 507 l 745 66 q 766 29 766 41 q 754 6 766 13 q 715 0 743 0 l 648 0 q 614 3 620 0 q 591 27 608 5 l 280 412 l 251 383 l 251 51 q 242 9 251 18 q 200 0 233 0 l 162 0 q 120 9 129 0 q 111 51 111 18 l 111 875 q 120 917 111 908 q 162 926 129 926 l 200 926 q 242 917 233 926 q 251 875 251 908 l 251 556 m 418 -88 l 446 -100 q 473 -130 473 -110 q 467 -153 473 -140 l 391 -301 q 359 -325 378 -325 q 342 -321 352 -325 l 325 -314 q 300 -284 300 -304 q 306 -264 300 -277 l 366 -111 q 397 -83 377 -83 q 418 -88 404 -83 z "},"ķ":{"ha":612,"x_min":85,"x_max":577,"o":"m 220 395 l 387 562 q 396 571 392 567 q 412 583 406 581 q 443 585 418 585 l 500 585 q 547 553 547 585 q 522 518 547 541 l 338 339 l 557 66 q 577 28 577 41 q 565 6 577 13 q 526 0 553 0 l 470 0 q 436 3 442 0 q 413 28 431 5 l 241 246 l 220 225 l 220 51 q 212 9 220 18 q 170 0 203 0 l 136 0 q 94 9 103 0 q 85 51 85 18 l 85 962 q 94 1004 85 996 q 136 1013 103 1013 l 170 1013 q 212 1004 203 1013 q 220 962 220 996 l 220 395 m 317 -89 l 344 -99 q 370 -130 370 -110 q 363 -153 370 -140 l 288 -299 q 256 -323 275 -323 q 239 -319 249 -323 l 223 -313 q 199 -283 199 -302 q 205 -262 199 -275 l 265 -111 q 296 -84 276 -84 q 317 -89 305 -84 z "},"Ĺ":{"ha":545,"x_min":111,"x_max":523,"o":"m 251 132 l 472 132 q 514 123 505 132 q 523 81 523 114 l 523 51 q 514 9 523 18 q 472 0 505 0 l 162 0 q 120 9 129 0 q 111 51 111 18 l 111 875 q 120 917 111 908 q 162 926 129 926 l 200 926 q 242 917 233 926 q 251 875 251 908 l 251 132 m 374 1139 l 220 1034 q 186 1017 195 1017 q 161 1028 174 1017 q 151 1037 153 1034 q 132 1067 132 1053 q 155 1103 132 1080 l 277 1225 q 313 1249 300 1249 q 347 1232 322 1249 l 375 1212 q 400 1192 395 1198 q 405 1175 405 1186 q 400 1158 405 1164 q 374 1139 395 1152 z "},"ĺ":{"ha":306,"x_min":58,"x_max":331,"o":"m 220 907 l 220 51 q 212 9 220 18 q 170 0 203 0 l 136 0 q 94 9 103 0 q 85 51 85 18 l 85 907 q 94 949 85 939 q 136 958 103 958 l 170 958 q 212 949 203 958 q 220 907 220 939 m 301 1139 l 146 1034 q 112 1017 121 1017 q 87 1028 101 1017 q 77 1037 80 1034 q 58 1067 58 1053 q 81 1103 58 1080 l 203 1225 q 239 1249 227 1249 q 273 1232 249 1249 l 302 1212 q 331 1175 331 1192 q 326 1158 331 1164 q 301 1139 321 1152 z "},"Ļ":{"ha":545,"x_min":111,"x_max":523,"o":"m 251 132 l 472 132 q 514 123 505 132 q 523 81 523 114 l 523 51 q 514 9 523 18 q 472 0 505 0 l 162 0 q 120 9 129 0 q 111 51 111 18 l 111 875 q 120 917 111 908 q 162 926 129 926 l 200 926 q 242 917 233 926 q 251 875 251 908 l 251 132 m 311 -88 l 339 -100 q 367 -130 367 -110 q 359 -153 367 -139 l 283 -301 q 252 -325 271 -325 q 235 -321 245 -325 l 218 -314 q 194 -284 194 -304 q 199 -264 194 -275 l 260 -111 q 290 -83 271 -83 q 311 -88 297 -83 z "},"ļ":{"ha":306,"x_min":46,"x_max":220,"o":"m 220 962 l 220 51 q 211 9 220 18 q 169 0 202 0 l 136 0 q 94 9 102 0 q 85 51 85 18 l 85 962 q 94 1004 85 995 q 136 1013 102 1013 l 169 1013 q 211 1004 202 1013 q 220 962 220 995 m 163 -89 l 190 -99 q 217 -130 217 -110 q 210 -153 217 -140 l 134 -299 q 103 -323 122 -323 q 85 -319 96 -323 l 70 -313 q 46 -283 46 -302 q 51 -262 46 -275 l 112 -111 q 143 -84 123 -84 q 163 -89 151 -84 z "},"Ľ":{"ha":545,"x_min":111,"x_max":523,"o":"m 251 132 l 472 132 q 514 123 505 132 q 523 81 523 114 l 523 51 q 514 9 523 18 q 472 0 505 0 l 162 0 q 120 9 129 0 q 111 51 111 18 l 111 875 q 120 917 111 908 q 162 926 129 926 l 200 926 q 242 917 233 926 q 251 875 251 908 l 251 132 m 463 916 l 492 905 q 519 874 519 895 q 512 852 519 865 l 436 704 q 405 680 424 680 q 387 684 399 680 l 371 690 q 347 721 347 700 q 351 741 347 729 l 412 894 q 443 921 423 921 q 463 916 451 921 z "},"ľ":{"ha":454,"x_min":85,"x_max":466,"o":"m 220 962 l 220 51 q 212 9 220 18 q 170 0 203 0 l 136 0 q 94 9 103 0 q 85 51 85 18 l 85 962 q 94 1004 85 995 q 136 1013 103 1013 l 170 1013 q 212 1004 203 1013 q 220 962 220 995 m 412 1008 l 439 998 q 466 966 466 987 q 458 944 466 958 l 383 798 q 352 774 370 774 q 334 778 345 774 l 319 785 q 295 814 295 794 q 300 835 295 823 l 360 986 q 391 1013 371 1013 q 412 1008 399 1013 z "},"Ŀ":{"ha":545,"x_min":111,"x_max":523,"o":"m 251 132 l 472 132 q 514 123 505 132 q 523 81 523 114 l 523 51 q 514 9 523 18 q 472 0 505 0 l 162 0 q 120 9 129 0 q 111 51 111 18 l 111 875 q 120 917 111 908 q 162 926 129 926 l 200 926 q 242 917 233 926 q 251 875 251 908 l 251 132 m 403 422 q 462 398 437 422 q 486 339 486 374 q 462 280 486 304 q 403 256 437 256 q 344 280 368 256 q 319 340 319 305 q 344 398 319 374 q 403 422 369 422 z "},"ŀ":{"ha":306,"x_min":85,"x_max":441,"o":"m 220 962 l 220 51 q 212 9 220 18 q 170 0 203 0 l 136 0 q 94 9 103 0 q 85 51 85 18 l 85 962 q 94 1004 85 995 q 136 1013 103 1013 l 170 1013 q 212 1004 203 1013 q 220 962 220 995 m 357 510 q 416 486 392 510 q 441 427 441 461 q 416 368 441 392 q 357 343 392 343 q 298 368 323 343 q 274 428 274 393 q 299 486 274 461 q 357 510 323 510 z "},"Ł":{"ha":545,"x_min":23,"x_max":523,"o":"m 251 573 l 347 637 q 383 654 372 654 q 412 611 412 654 l 412 578 q 408 544 412 550 q 381 522 405 537 l 251 435 l 251 132 l 472 132 q 514 123 505 132 q 523 81 523 114 l 523 51 q 514 9 523 18 q 472 0 505 0 l 162 0 q 120 9 129 0 q 111 51 111 18 l 111 359 l 87 344 q 52 328 62 328 q 23 370 23 328 l 23 404 q 26 438 23 432 q 54 460 30 445 l 111 498 l 111 875 q 120 917 111 908 q 162 926 129 926 l 200 926 q 241 917 233 926 q 251 875 251 908 l 251 573 z "},"ł":{"ha":355,"x_min":30,"x_max":340,"o":"m 252 452 l 252 51 q 243 9 252 18 q 201 0 234 0 l 168 0 q 125 9 134 0 q 117 51 117 18 l 117 376 l 94 361 q 58 343 70 343 q 30 387 30 343 l 30 422 q 33 457 30 451 q 59 479 36 463 l 117 519 l 117 962 q 125 1004 117 995 q 168 1013 134 1013 l 201 1013 q 243 1004 234 1013 q 252 962 252 995 l 252 596 l 275 612 q 311 629 299 629 q 340 586 340 629 l 340 550 q 336 515 340 522 q 310 493 333 509 l 252 452 z "},"Ń":{"ha":1037,"x_min":111,"x_max":926,"o":"m 786 283 l 786 875 q 795 917 786 908 q 837 926 804 926 l 875 926 q 917 917 908 926 q 926 875 926 908 l 926 39 q 919 0 926 11 q 895 -12 912 -12 q 859 12 882 -12 l 251 648 l 251 51 q 242 9 251 18 q 200 0 233 0 l 162 0 q 120 9 129 0 q 111 51 111 18 l 111 892 q 118 932 111 921 q 142 943 125 943 q 178 919 155 943 l 786 283 m 667 1139 l 512 1034 q 478 1017 487 1017 q 454 1028 467 1017 q 443 1037 447 1034 q 425 1067 425 1053 q 448 1103 425 1080 l 569 1225 q 606 1249 592 1249 q 640 1232 615 1249 l 667 1212 q 692 1192 687 1198 q 697 1175 697 1186 q 692 1158 697 1164 q 667 1139 687 1152 z "},"ń":{"ha":673,"x_min":85,"x_max":589,"o":"m 220 530 q 295 585 260 570 q 380 600 330 600 q 481 579 435 600 q 552 521 527 557 q 589 358 589 467 l 589 51 q 580 9 589 18 q 538 0 571 0 l 505 0 q 463 9 471 0 q 454 51 454 18 l 454 327 q 436 437 454 408 q 345 479 410 479 q 249 435 277 479 q 220 282 220 391 l 220 51 q 212 9 220 18 q 170 0 203 0 l 136 0 q 95 7 105 0 q 85 37 85 14 l 85 51 l 85 534 q 94 576 85 566 q 136 585 104 585 l 170 585 q 212 576 203 585 q 220 534 220 566 l 220 530 m 500 829 l 362 703 q 326 682 338 682 q 304 690 317 682 q 293 696 298 694 q 270 728 270 711 q 288 762 270 738 l 393 901 q 414 924 408 920 q 430 929 420 929 q 462 916 437 929 l 491 901 q 519 883 513 890 q 526 864 526 877 q 500 829 526 851 z "},"Ņ":{"ha":1037,"x_min":111,"x_max":926,"o":"m 786 283 l 786 875 q 795 917 786 908 q 837 926 804 926 l 875 926 q 917 917 908 926 q 926 875 926 908 l 926 39 q 919 0 926 11 q 895 -12 912 -12 q 859 12 882 -12 l 251 648 l 251 51 q 242 9 251 18 q 200 0 233 0 l 162 0 q 120 9 129 0 q 111 51 111 18 l 111 892 q 118 932 111 921 q 142 943 125 943 q 178 919 155 943 l 786 283 m 529 -88 l 558 -100 q 585 -130 585 -110 q 578 -153 585 -139 l 502 -301 q 471 -325 490 -325 q 453 -321 463 -325 l 437 -314 q 412 -284 412 -304 q 417 -264 412 -276 l 478 -111 q 509 -83 489 -83 q 529 -88 516 -83 z "},"ņ":{"ha":673,"x_min":85,"x_max":589,"o":"m 220 530 q 295 585 260 570 q 380 600 330 600 q 481 579 435 600 q 552 521 527 557 q 589 358 589 467 l 589 51 q 580 9 589 18 q 538 0 571 0 l 505 0 q 463 9 471 0 q 454 51 454 18 l 454 327 q 436 437 454 408 q 345 479 410 479 q 249 435 277 479 q 220 282 220 391 l 220 51 q 212 9 220 18 q 170 0 203 0 l 136 0 q 95 7 105 0 q 85 37 85 14 l 85 51 l 85 534 q 94 576 85 566 q 136 585 104 585 l 170 585 q 212 576 203 585 q 220 534 220 566 l 220 530 m 347 -89 l 374 -99 q 401 -130 401 -110 q 394 -153 401 -139 l 319 -299 q 288 -323 307 -323 q 270 -319 280 -323 l 254 -313 q 231 -283 231 -302 q 235 -262 231 -275 l 296 -111 q 327 -84 307 -84 q 347 -89 336 -84 z "},"Ň":{"ha":1037,"x_min":111,"x_max":926,"o":"m 786 283 l 786 875 q 795 917 786 908 q 837 926 804 926 l 875 926 q 917 917 908 926 q 926 875 926 908 l 926 39 q 919 0 926 11 q 895 -12 912 -12 q 859 12 882 -12 l 251 648 l 251 51 q 242 9 251 18 q 200 0 233 0 l 162 0 q 120 9 129 0 q 111 51 111 18 l 111 892 q 118 932 111 921 q 142 943 125 943 q 178 919 155 943 l 786 283 m 520 1160 l 606 1241 q 642 1263 629 1263 q 676 1244 652 1263 l 686 1236 q 710 1216 705 1221 q 714 1200 714 1210 q 689 1164 714 1186 l 555 1042 q 520 1020 532 1020 q 484 1042 508 1020 l 349 1163 q 324 1200 324 1186 q 352 1236 324 1215 l 363 1244 q 397 1263 387 1263 q 433 1241 410 1263 l 520 1160 z "},"ň":{"ha":673,"x_min":85,"x_max":589,"o":"m 220 530 q 295 585 260 570 q 380 600 330 600 q 481 579 435 600 q 552 521 527 557 q 589 358 589 467 l 589 51 q 580 9 589 18 q 538 0 571 0 l 505 0 q 463 9 471 0 q 454 51 454 18 l 454 327 q 436 437 454 408 q 345 479 410 479 q 249 435 277 479 q 220 282 220 391 l 220 51 q 212 9 220 18 q 170 0 203 0 l 136 0 q 95 7 105 0 q 85 37 85 14 l 85 51 l 85 534 q 94 576 85 566 q 136 585 104 585 l 170 585 q 212 576 203 585 q 220 534 220 566 l 220 530 m 338 824 l 424 905 q 460 928 448 928 q 494 909 470 928 l 505 901 q 528 880 524 886 q 532 864 532 875 q 507 828 532 851 l 374 706 q 363 697 370 703 q 338 684 350 684 q 302 706 327 684 l 168 828 q 142 865 142 850 q 170 901 142 880 l 180 909 q 216 928 205 928 q 252 906 228 928 l 338 824 z "},"ŉ":{"ha":673,"x_min":-37,"x_max":588,"o":"m 220 530 q 295 585 260 570 q 380 600 330 600 q 480 579 435 600 q 551 521 526 557 q 588 358 588 467 l 588 51 q 579 9 588 18 q 537 0 570 0 l 504 0 q 462 9 471 0 q 453 51 453 18 l 453 327 q 435 437 453 408 q 345 479 410 479 q 248 435 276 479 q 220 282 220 391 l 220 51 q 211 9 220 18 q 169 0 202 0 l 136 0 q 94 7 104 0 q 85 37 85 14 l 85 51 l 85 534 q 94 576 85 566 q 136 585 102 585 l 169 585 q 211 576 202 585 q 220 534 220 566 l 220 530 m 79 830 l 106 819 q 134 788 134 808 q 127 766 134 779 l 51 619 q 20 595 39 595 q 2 600 12 595 l -14 606 q -37 636 -37 616 q -33 656 -37 644 l 28 808 q 60 835 39 835 q 79 830 66 835 z "},"Ō":{"ha":1097,"x_min":65,"x_max":1033,"o":"m 551 943 q 905 786 762 943 q 1033 462 1033 647 q 968 223 1033 334 q 794 49 905 113 q 545 -18 680 -18 q 315 42 425 -18 q 117 239 182 114 q 65 467 65 339 q 213 806 65 665 q 393 916 291 882 q 551 943 473 943 m 547 812 q 288 690 388 812 q 206 454 206 591 q 309 212 206 311 q 549 114 412 114 q 724 163 642 114 q 852 296 808 213 q 892 463 892 372 q 793 711 892 609 q 547 812 696 812 m 355 1159 l 743 1159 q 785 1150 777 1159 q 794 1108 794 1141 l 794 1101 q 785 1059 794 1069 q 743 1050 777 1050 l 355 1050 q 313 1059 321 1050 q 304 1101 304 1069 l 304 1108 q 313 1150 304 1141 q 355 1159 321 1159 z "},"ō":{"ha":738,"x_min":58,"x_max":681,"o":"m 369 600 q 605 495 514 600 q 681 292 681 408 q 582 64 681 155 q 366 -18 495 -18 q 133 88 224 -18 q 58 296 58 176 q 157 519 58 426 q 369 600 243 600 m 369 479 q 233 415 281 479 q 195 287 195 365 q 247 151 195 201 q 369 104 294 104 q 505 166 457 104 q 543 291 543 215 q 492 431 543 380 q 369 479 445 479 m 191 818 l 547 818 q 589 809 580 818 q 598 767 598 800 l 598 760 q 589 718 598 727 q 547 709 580 709 l 191 709 q 150 718 159 709 q 140 760 140 727 l 140 767 q 150 809 140 800 q 191 818 159 818 z "},"Ŏ":{"ha":1097,"x_min":65,"x_max":1033,"o":"m 551 943 q 905 786 762 943 q 1033 462 1033 647 q 968 223 1033 334 q 794 49 905 113 q 545 -18 680 -18 q 315 42 425 -18 q 117 239 182 114 q 65 467 65 339 q 213 806 65 665 q 393 916 291 882 q 551 943 473 943 m 547 812 q 288 690 388 812 q 206 454 206 591 q 309 212 206 311 q 549 114 412 114 q 724 163 642 114 q 852 296 808 213 q 892 463 892 372 q 793 711 892 609 q 547 812 696 812 m 380 1206 l 396 1206 q 432 1202 425 1206 q 450 1176 439 1198 q 549 1116 479 1116 q 611 1132 587 1116 q 654 1188 634 1148 q 668 1203 659 1200 q 702 1206 676 1206 l 718 1206 q 754 1199 743 1206 q 765 1175 765 1192 q 752 1134 765 1160 q 722 1088 739 1109 q 549 1009 652 1009 q 376 1088 446 1009 q 346 1134 358 1109 q 333 1176 333 1160 q 344 1199 333 1192 q 380 1206 355 1206 z "},"ŏ":{"ha":738,"x_min":58,"x_max":681,"o":"m 369 600 q 605 495 514 600 q 681 292 681 408 q 582 64 681 155 q 366 -18 495 -18 q 133 88 224 -18 q 58 296 58 176 q 157 519 58 426 q 369 600 243 600 m 369 479 q 233 415 281 479 q 195 287 195 365 q 247 151 195 201 q 369 104 294 104 q 505 166 457 104 q 543 291 543 215 q 492 431 543 380 q 369 479 445 479 m 201 869 l 216 869 q 253 865 245 869 q 271 840 260 861 q 370 781 300 781 q 431 797 408 781 q 474 852 454 812 q 488 866 479 863 q 522 869 496 869 l 538 869 q 574 862 564 869 q 585 839 585 855 q 542 753 585 802 q 369 674 471 674 q 197 753 267 674 q 166 799 178 774 q 153 840 153 824 q 164 862 153 855 q 201 869 176 869 z "},"Ő":{"ha":1097,"x_min":65,"x_max":1033,"o":"m 551 943 q 905 786 762 943 q 1033 462 1033 647 q 968 223 1033 334 q 794 49 905 113 q 545 -18 680 -18 q 315 42 425 -18 q 117 239 182 114 q 65 467 65 339 q 213 806 65 665 q 393 916 291 882 q 551 943 473 943 m 547 812 q 288 690 388 812 q 206 454 206 591 q 309 212 206 311 q 549 114 412 114 q 724 163 642 114 q 852 296 808 213 q 892 463 892 372 q 793 711 892 609 q 547 812 696 812 m 567 1137 l 440 1038 q 429 1029 436 1035 q 405 1019 416 1019 q 373 1036 391 1019 q 355 1068 355 1054 q 374 1103 355 1078 l 468 1219 q 476 1230 470 1222 q 505 1247 490 1247 q 539 1230 514 1247 l 565 1211 q 590 1190 585 1196 q 595 1174 595 1184 q 567 1137 595 1158 m 854 1137 l 727 1038 q 716 1029 722 1034 q 692 1019 703 1019 q 660 1036 677 1019 q 642 1068 642 1054 q 661 1103 642 1079 l 755 1219 q 764 1230 757 1222 q 792 1247 777 1247 q 826 1230 801 1247 l 852 1211 q 877 1190 871 1196 q 882 1174 882 1184 q 854 1137 882 1159 z "},"ő":{"ha":738,"x_min":58,"x_max":688,"o":"m 369 600 q 605 495 514 600 q 681 292 681 408 q 582 64 681 155 q 366 -18 495 -18 q 133 88 224 -18 q 58 296 58 176 q 157 519 58 426 q 369 600 243 600 m 369 479 q 233 415 281 479 q 195 287 195 365 q 247 151 195 201 q 369 104 294 104 q 505 166 457 104 q 543 291 543 215 q 492 431 543 380 q 369 479 445 479 m 414 829 l 290 707 q 254 684 267 684 q 224 698 239 684 q 208 727 208 713 q 225 760 208 735 l 317 897 q 324 908 320 902 q 353 928 337 928 q 386 913 361 928 l 406 902 q 432 883 427 890 q 438 865 438 877 q 414 829 438 852 m 665 829 l 541 707 q 504 684 517 684 q 474 698 489 684 q 458 727 458 713 q 475 760 458 736 l 566 897 q 574 908 570 902 q 604 928 587 928 q 636 913 611 928 l 655 902 q 683 883 677 890 q 688 865 688 877 q 665 829 688 852 z "},"Ŕ":{"ha":739,"x_min":111,"x_max":682,"o":"m 425 394 l 664 65 q 682 28 682 40 q 671 6 682 13 q 631 0 659 0 l 576 0 q 542 3 548 0 q 519 30 536 6 l 276 379 l 251 379 l 251 51 q 242 9 251 18 q 200 0 233 0 l 162 0 q 120 9 129 0 q 111 51 111 18 l 111 875 q 120 917 111 907 q 162 926 130 926 l 275 926 q 420 913 364 926 q 519 872 475 901 q 601 777 570 838 q 629 654 629 719 q 573 485 629 557 q 425 394 517 414 m 251 500 l 296 500 q 435 534 388 500 q 493 652 493 574 q 439 762 493 724 q 300 794 393 794 l 251 794 l 251 500 m 499 1139 l 345 1034 q 311 1017 319 1017 q 286 1028 300 1017 q 275 1037 279 1034 q 257 1067 257 1053 q 280 1103 257 1080 l 401 1225 q 438 1249 425 1249 q 472 1232 448 1249 l 500 1212 q 525 1192 519 1198 q 530 1175 530 1186 q 525 1158 530 1164 q 499 1139 519 1152 z "},"ŕ":{"ha":460,"x_min":85,"x_max":457,"o":"m 220 532 q 287 586 258 572 q 357 601 315 601 q 428 587 399 601 q 457 554 457 574 q 445 521 457 546 l 428 488 q 411 459 417 466 q 393 453 404 453 q 378 456 387 453 q 322 471 339 471 q 282 459 304 471 q 249 431 260 448 q 220 302 220 394 l 220 51 q 212 9 220 18 q 170 0 203 0 l 136 0 q 94 9 103 0 q 85 51 85 18 l 85 534 q 94 576 85 566 q 136 585 103 585 l 170 585 q 211 576 202 585 q 220 538 220 568 l 220 532 m 412 829 l 273 703 q 237 682 250 682 q 216 690 229 682 q 205 696 208 694 q 182 728 182 711 q 200 762 182 738 l 304 901 q 326 924 319 920 q 342 929 332 929 q 374 916 349 929 l 402 901 q 431 883 425 890 q 437 864 437 877 q 412 829 437 851 z "},"Ŗ":{"ha":739,"x_min":111,"x_max":682,"o":"m 425 394 l 664 65 q 682 28 682 40 q 671 6 682 13 q 631 0 659 0 l 576 0 q 542 3 548 0 q 519 30 536 6 l 276 379 l 251 379 l 251 51 q 242 9 251 18 q 200 0 233 0 l 162 0 q 120 9 129 0 q 111 51 111 18 l 111 875 q 120 917 111 907 q 162 926 130 926 l 275 926 q 420 913 364 926 q 519 872 475 901 q 601 777 570 838 q 629 654 629 719 q 573 485 629 557 q 425 394 517 414 m 251 500 l 296 500 q 435 534 388 500 q 493 652 493 574 q 439 762 493 724 q 300 794 393 794 l 251 794 l 251 500 m 380 -88 l 409 -100 q 436 -130 436 -110 q 429 -153 436 -140 l 353 -301 q 322 -325 341 -325 q 304 -321 315 -325 l 288 -314 q 263 -284 263 -304 q 268 -264 263 -277 l 329 -111 q 360 -83 340 -83 q 380 -88 367 -83 z "},"ŗ":{"ha":460,"x_min":40,"x_max":457,"o":"m 220 532 q 287 586 258 572 q 357 601 315 601 q 428 587 399 601 q 457 554 457 574 q 445 521 457 546 l 428 488 q 411 459 417 466 q 393 453 404 453 q 378 456 387 453 q 322 471 339 471 q 282 459 304 471 q 248 431 260 448 q 220 302 220 394 l 220 51 q 212 9 220 18 q 170 0 203 0 l 136 0 q 94 9 103 0 q 85 51 85 18 l 85 534 q 94 576 85 566 q 136 585 103 585 l 170 585 q 211 576 202 585 q 220 538 220 568 l 220 532 m 157 -89 l 184 -99 q 211 -130 211 -110 q 204 -153 211 -140 l 128 -299 q 97 -323 116 -323 q 79 -319 90 -323 l 64 -313 q 40 -283 40 -302 q 45 -262 40 -275 l 106 -111 q 137 -84 117 -84 q 157 -89 145 -84 z "},"Ř":{"ha":739,"x_min":108,"x_max":682,"o":"m 425 394 l 664 65 q 682 28 682 40 q 671 6 682 13 q 631 0 659 0 l 576 0 q 542 3 548 0 q 519 30 536 6 l 276 379 l 251 379 l 251 51 q 242 9 251 18 q 200 0 233 0 l 162 0 q 120 9 129 0 q 111 51 111 18 l 111 875 q 120 917 111 907 q 162 926 129 926 l 275 926 q 420 913 364 926 q 519 872 475 901 q 601 777 570 838 q 629 654 629 719 q 573 485 629 556 q 425 394 517 414 m 251 500 l 295 500 q 435 534 388 500 q 493 652 493 574 q 439 762 493 724 q 300 794 393 794 l 251 794 l 251 500 m 304 1160 l 389 1241 q 425 1263 413 1263 q 460 1244 435 1263 l 470 1236 q 493 1216 489 1221 q 498 1200 498 1210 q 473 1164 498 1186 l 340 1042 q 304 1020 315 1020 q 268 1042 292 1020 l 133 1163 q 108 1200 108 1186 q 112 1216 108 1210 q 136 1236 117 1221 l 146 1244 q 181 1263 171 1263 q 217 1241 193 1263 l 304 1160 z "},"ř":{"ha":460,"x_min":35,"x_max":457,"o":"m 220 532 q 287 586 258 572 q 357 601 315 601 q 428 587 399 601 q 457 554 457 574 q 445 521 457 546 l 428 488 q 411 459 417 466 q 393 453 404 453 q 378 456 387 453 q 322 471 339 471 q 282 459 304 471 q 249 431 260 448 q 220 302 220 394 l 220 51 q 212 9 220 18 q 170 0 203 0 l 136 0 q 94 9 103 0 q 85 51 85 18 l 85 534 q 94 576 85 566 q 136 585 103 585 l 170 585 q 211 576 202 585 q 220 538 220 568 l 220 532 m 231 824 l 317 905 q 353 928 340 928 q 387 909 363 928 l 397 901 q 421 880 416 886 q 425 864 425 875 q 400 828 425 851 l 267 706 q 257 697 263 703 q 231 684 243 684 q 195 706 220 684 l 60 828 q 35 865 35 850 q 40 881 35 875 q 63 901 44 886 l 74 909 q 109 928 98 928 q 144 906 121 928 l 231 824 z "},"Ś":{"ha":715,"x_min":70,"x_max":659,"o":"m 591 762 l 564 746 q 531 731 540 731 q 500 753 515 731 q 384 812 463 812 q 285 777 323 812 q 248 696 248 744 q 292 620 248 650 q 331 596 313 605 q 441 551 350 588 q 607 438 557 503 q 659 278 659 370 q 564 58 659 144 q 361 -18 483 -18 q 158 60 240 -18 q 97 145 123 93 q 70 232 70 197 q 78 254 70 248 q 113 267 87 260 l 155 275 q 182 280 176 280 q 212 244 208 280 q 259 153 220 189 q 366 114 303 114 q 480 164 437 114 q 518 269 518 208 q 454 390 518 347 q 411 415 431 406 q 296 464 391 424 q 106 699 106 544 q 212 892 106 823 q 385 943 290 943 q 612 825 532 943 q 623 798 623 808 q 617 781 623 787 q 591 762 612 774 m 520 1139 l 366 1034 q 332 1017 340 1017 q 307 1028 320 1017 q 296 1037 298 1036 q 277 1067 277 1053 q 301 1103 277 1080 l 422 1225 q 459 1249 446 1249 q 493 1232 468 1249 l 521 1212 q 546 1192 541 1198 q 551 1175 551 1186 q 546 1158 551 1164 q 520 1139 541 1152 z "},"ś":{"ha":498,"x_min":56,"x_max":463,"o":"m 380 461 l 356 448 q 323 435 332 435 q 298 449 309 435 q 248 479 274 479 q 216 467 229 479 q 203 437 203 454 q 218 406 203 418 q 281 370 233 393 q 392 311 357 336 q 463 179 463 262 q 401 38 463 96 q 254 -18 341 -18 q 153 5 201 -18 q 77 68 106 28 q 56 112 56 96 q 62 131 56 124 q 92 148 69 138 l 117 160 q 150 171 142 171 q 166 165 160 171 q 191 134 172 160 q 256 104 212 104 q 306 121 287 104 q 325 166 325 138 q 305 211 325 195 q 190 273 285 227 q 103 334 125 304 q 76 425 76 370 q 132 553 76 506 q 258 600 186 600 q 346 578 305 600 q 408 517 386 555 q 414 496 414 506 q 408 479 414 486 q 380 461 402 473 m 431 829 l 293 703 q 257 682 269 682 q 235 690 249 682 q 224 696 228 694 q 201 728 201 711 q 220 762 201 738 l 324 901 q 345 924 338 920 q 361 929 351 929 q 393 916 368 929 l 422 901 q 450 883 444 890 q 456 864 456 877 q 431 829 456 852 z "},"Ŝ":{"ha":715,"x_min":70,"x_max":659,"o":"m 591 762 l 564 746 q 531 731 540 731 q 500 753 515 731 q 384 812 463 812 q 285 777 323 812 q 248 696 248 744 q 292 620 248 650 q 331 596 313 605 q 441 551 350 588 q 607 438 557 503 q 659 278 659 370 q 564 58 659 144 q 361 -18 483 -18 q 158 60 240 -18 q 97 145 123 93 q 70 232 70 197 q 78 254 70 248 q 113 267 87 260 l 155 275 q 182 280 176 280 q 212 244 208 280 q 259 153 220 189 q 366 114 303 114 q 480 164 437 114 q 518 269 518 208 q 454 390 518 347 q 411 415 431 406 q 296 464 391 424 q 106 699 106 544 q 212 892 106 823 q 385 943 290 943 q 612 825 532 943 q 623 798 623 808 q 617 781 623 787 q 591 762 612 774 m 392 1127 l 307 1046 q 270 1024 283 1024 q 235 1043 260 1024 l 226 1050 q 202 1071 207 1065 q 198 1087 198 1077 q 223 1124 198 1101 l 356 1245 q 392 1267 380 1267 q 427 1245 404 1267 l 562 1124 q 588 1087 588 1101 q 584 1071 588 1077 q 559 1050 579 1065 l 549 1042 q 514 1023 525 1023 q 479 1046 503 1023 l 392 1127 z "},"ŝ":{"ha":498,"x_min":54,"x_max":463,"o":"m 380 461 l 356 448 q 323 435 332 435 q 298 449 309 435 q 248 479 274 479 q 216 467 229 479 q 203 437 203 454 q 218 406 203 418 q 281 370 233 393 q 392 311 357 336 q 463 179 463 262 q 401 38 463 96 q 254 -18 341 -18 q 153 5 201 -18 q 77 68 106 28 q 56 112 56 96 q 62 131 56 124 q 92 148 68 137 l 117 160 q 150 171 142 171 q 166 165 160 171 q 191 134 172 160 q 256 104 212 104 q 306 121 287 104 q 325 166 325 138 q 305 210 325 195 q 190 273 285 226 q 103 334 125 304 q 76 425 76 371 q 132 553 76 506 q 258 600 186 600 q 346 578 305 600 q 408 517 386 555 q 414 496 414 506 q 408 479 414 486 q 380 461 402 473 m 248 787 l 163 706 q 127 684 139 684 q 92 703 116 684 l 82 711 q 59 731 63 725 q 54 747 54 737 q 79 783 54 761 l 212 905 q 248 927 236 927 q 283 905 260 927 l 419 783 q 444 747 444 761 q 440 731 444 737 q 416 711 435 725 l 406 703 q 395 694 399 697 q 371 684 382 684 q 335 706 359 684 l 248 787 z "},"Ş":{"ha":715,"x_min":70,"x_max":659,"o":"m 591 762 l 564 746 q 531 731 540 731 q 500 753 515 731 q 384 812 463 812 q 285 777 323 812 q 248 696 248 744 q 292 620 248 650 q 331 596 313 605 q 441 551 350 588 q 607 438 557 503 q 659 278 659 370 q 564 58 659 144 q 361 -18 483 -18 q 158 60 240 -18 q 97 145 123 93 q 70 232 70 197 q 78 254 70 248 q 113 267 87 260 l 155 275 q 182 280 176 280 q 212 244 208 280 q 259 153 220 189 q 366 114 303 114 q 480 164 437 114 q 518 269 518 208 q 454 390 518 347 q 411 415 431 406 q 296 464 391 424 q 106 699 106 544 q 212 892 106 823 q 385 943 290 943 q 612 825 532 943 q 623 798 623 808 q 617 781 623 787 q 591 762 612 774 m 441 -174 l 353 -277 q 331 -300 337 -296 q 315 -304 326 -304 q 284 -291 308 -304 l 271 -284 q 249 -254 249 -272 q 266 -220 249 -245 l 336 -113 q 356 -87 350 -93 q 372 -82 362 -82 q 404 -93 379 -82 l 425 -102 q 455 -119 449 -113 q 462 -139 462 -126 q 441 -174 462 -150 z "},"ş":{"ha":498,"x_min":56,"x_max":463,"o":"m 380 461 l 356 448 q 323 435 332 435 q 298 449 309 435 q 248 479 274 479 q 216 467 229 479 q 203 437 203 454 q 218 406 203 418 q 281 370 233 393 q 392 311 357 336 q 463 179 463 262 q 401 38 463 96 q 254 -18 341 -18 q 153 5 201 -18 q 77 68 106 28 q 56 112 56 96 q 62 131 56 124 q 92 148 69 138 l 117 160 q 150 171 142 171 q 166 165 160 171 q 191 134 172 160 q 256 104 212 104 q 306 121 287 104 q 325 166 325 138 q 305 211 325 195 q 190 273 285 227 q 103 334 125 304 q 76 425 76 370 q 132 553 76 506 q 258 600 186 600 q 346 578 305 600 q 408 517 386 555 q 414 496 414 506 q 408 479 414 486 q 380 461 402 473 m 318 -168 l 240 -268 q 220 -291 226 -287 q 203 -296 214 -296 q 184 -290 196 -296 q 170 -282 172 -283 q 145 -266 152 -273 q 138 -248 138 -259 q 154 -214 138 -238 l 219 -113 q 227 -101 223 -106 q 254 -81 239 -81 q 286 -92 261 -81 l 300 -97 q 330 -114 323 -106 q 337 -134 337 -121 q 318 -168 337 -144 z "},"Š":{"ha":715,"x_min":70,"x_max":659,"o":"m 591 762 l 564 746 q 531 731 540 731 q 500 753 515 731 q 384 812 463 812 q 285 777 323 812 q 248 696 248 744 q 292 620 248 650 q 331 596 313 605 q 441 551 350 588 q 607 438 557 503 q 659 278 659 370 q 564 58 659 144 q 361 -18 483 -18 q 158 60 240 -18 q 97 145 123 93 q 70 232 70 197 q 78 254 70 248 q 113 267 87 260 l 155 275 q 182 280 176 280 q 212 244 208 280 q 259 153 220 189 q 366 114 303 114 q 480 164 437 114 q 518 269 518 208 q 454 390 518 347 q 411 415 431 406 q 296 464 391 424 q 106 699 106 544 q 212 892 106 823 q 385 943 290 943 q 612 825 532 943 q 623 798 623 808 q 617 781 623 787 q 591 762 612 774 m 378 1160 l 463 1241 q 500 1263 487 1263 q 534 1244 510 1263 l 544 1236 q 567 1216 563 1221 q 572 1200 572 1210 q 547 1164 572 1186 l 414 1042 q 378 1020 390 1020 q 342 1042 366 1020 l 207 1163 q 182 1200 182 1186 q 186 1216 182 1210 q 210 1236 191 1221 l 220 1244 q 255 1263 245 1263 q 291 1241 267 1263 l 378 1160 z "},"š":{"ha":498,"x_min":54,"x_max":462,"o":"m 380 461 l 356 448 q 323 435 331 435 q 298 449 309 435 q 248 479 274 479 q 216 467 229 479 q 203 437 203 454 q 218 405 203 418 q 281 370 233 392 q 392 311 357 336 q 462 179 462 262 q 400 38 462 96 q 254 -18 340 -18 q 153 5 200 -18 q 76 68 105 28 q 55 112 55 96 q 62 131 55 124 q 92 148 68 138 l 117 160 q 149 171 141 171 q 165 165 159 171 q 191 134 172 160 q 256 104 212 104 q 305 121 286 104 q 324 166 324 138 q 304 210 324 195 q 189 273 285 226 q 103 334 125 304 q 76 425 76 370 q 132 553 76 506 q 257 600 186 600 q 345 578 304 600 q 408 517 385 555 q 414 496 414 506 q 408 479 414 486 q 380 461 401 473 m 250 824 l 336 905 q 372 928 359 928 q 406 909 382 928 l 416 901 q 440 880 435 886 q 444 864 444 875 q 419 828 444 851 l 286 706 q 276 697 282 703 q 250 684 262 684 q 214 706 239 684 l 79 828 q 54 865 54 850 q 59 881 54 875 q 82 901 63 886 l 93 909 q 127 928 117 928 q 163 906 140 928 l 250 824 z "},"Ţ":{"ha":593,"x_min":14,"x_max":578,"o":"m 366 794 l 366 51 q 357 9 366 18 q 315 0 349 0 l 277 0 q 235 9 245 0 q 227 51 227 18 l 227 794 l 64 794 q 22 803 31 794 q 14 845 14 812 l 14 875 q 22 917 14 907 q 64 926 32 926 l 528 926 q 569 917 560 926 q 578 875 578 907 l 578 845 q 569 803 578 812 q 528 794 560 794 l 366 794 m 307 -88 l 335 -100 q 362 -130 362 -110 q 355 -153 362 -140 l 279 -301 q 248 -325 267 -325 q 231 -321 241 -325 l 214 -314 q 190 -284 190 -304 q 195 -264 190 -275 l 255 -111 q 286 -83 267 -83 q 307 -88 293 -83 z "},"Ț":{"ha":593,"x_min":14,"x_max":578,"o":"m 366 794 l 366 51 q 357 9 366 18 q 315 0 349 0 l 277 0 q 235 9 245 0 q 227 51 227 18 l 227 794 l 64 794 q 22 803 31 794 q 14 845 14 812 l 14 875 q 22 917 14 907 q 64 926 32 926 l 528 926 q 569 917 560 926 q 578 875 578 907 l 578 845 q 569 803 578 812 q 528 794 560 794 l 366 794 m 307 -88 l 335 -100 q 362 -130 362 -110 q 355 -153 362 -140 l 279 -301 q 248 -325 267 -325 q 231 -321 241 -325 l 214 -314 q 190 -284 190 -304 q 195 -264 190 -275 l 255 -111 q 286 -83 267 -83 q 307 -88 293 -83 z "},"ţ":{"ha":336,"x_min":32,"x_max":329,"o":"m 224 458 l 224 51 q 215 9 224 18 q 174 0 206 0 l 140 0 q 98 9 107 0 q 90 51 90 18 l 90 458 l 83 458 q 41 467 50 458 q 32 509 32 477 l 32 534 q 41 576 32 566 q 83 585 50 585 l 90 585 l 90 747 q 98 789 90 781 q 140 798 107 798 l 174 798 q 215 789 206 798 q 224 747 224 781 l 224 585 l 278 585 q 320 576 311 585 q 329 534 329 566 l 329 509 q 320 467 329 477 q 278 458 311 458 l 224 458 m 159 -89 l 186 -99 q 213 -130 213 -110 q 205 -153 213 -139 l 130 -299 q 99 -323 117 -323 q 81 -319 91 -323 l 66 -313 q 42 -283 42 -302 q 47 -262 42 -275 l 107 -111 q 138 -84 118 -84 q 159 -89 147 -84 z "},"ț":{"ha":336,"x_min":32,"x_max":329,"o":"m 224 458 l 224 51 q 215 9 224 18 q 174 0 206 0 l 140 0 q 98 9 107 0 q 90 51 90 18 l 90 458 l 83 458 q 41 467 50 458 q 32 509 32 477 l 32 534 q 41 576 32 566 q 83 585 50 585 l 90 585 l 90 747 q 98 789 90 781 q 140 798 107 798 l 174 798 q 215 789 206 798 q 224 747 224 781 l 224 585 l 278 585 q 320 576 311 585 q 329 534 329 566 l 329 509 q 320 467 329 477 q 278 458 311 458 l 224 458 m 159 -89 l 186 -99 q 213 -130 213 -110 q 205 -153 213 -139 l 130 -299 q 99 -323 117 -323 q 81 -319 91 -323 l 66 -313 q 42 -283 42 -302 q 47 -262 42 -275 l 107 -111 q 138 -84 118 -84 q 159 -89 147 -84 z "},"Ť":{"ha":593,"x_min":14,"x_max":578,"o":"m 366 794 l 366 51 q 357 9 366 18 q 315 0 349 0 l 277 0 q 235 9 245 0 q 227 51 227 18 l 227 794 l 64 794 q 22 803 31 794 q 14 845 14 812 l 14 875 q 22 917 14 907 q 64 926 32 926 l 528 926 q 569 917 560 926 q 578 875 578 907 l 578 845 q 569 803 578 812 q 528 794 560 794 l 366 794 m 297 1160 l 382 1241 q 419 1263 407 1263 q 454 1244 429 1263 l 464 1236 q 487 1216 482 1221 q 491 1200 491 1210 q 467 1164 491 1186 l 333 1042 q 297 1020 309 1020 q 262 1042 286 1020 l 127 1163 q 101 1200 101 1186 q 105 1216 101 1210 q 130 1236 110 1221 l 140 1244 q 175 1263 165 1263 q 210 1241 186 1263 l 297 1160 z "},"ť":{"ha":458,"x_min":32,"x_max":470,"o":"m 224 458 l 224 51 q 215 9 224 18 q 174 0 206 0 l 140 0 q 98 9 107 0 q 90 51 90 18 l 90 458 l 83 458 q 41 467 50 458 q 32 509 32 477 l 32 534 q 41 576 32 566 q 83 585 50 585 l 90 585 l 90 747 q 98 789 90 781 q 140 798 107 798 l 174 798 q 215 789 206 798 q 224 747 224 781 l 224 585 l 278 585 q 320 576 311 585 q 329 534 329 566 l 329 509 q 320 467 329 477 q 278 458 311 458 l 224 458 m 416 1008 l 443 998 q 470 966 470 987 q 463 944 470 958 l 387 798 q 355 774 374 774 q 338 778 349 774 l 322 785 q 299 814 299 794 q 304 835 299 823 l 364 986 q 395 1013 375 1013 q 416 1008 403 1013 z "},"Ŧ":{"ha":593,"x_min":14,"x_max":578,"o":"m 366 557 l 430 557 q 472 548 463 557 q 481 506 481 539 l 481 490 q 472 448 481 457 q 430 439 463 439 l 366 439 l 366 51 q 357 9 366 18 q 315 0 349 0 l 277 0 q 235 9 245 0 q 227 51 227 18 l 227 439 l 171 439 q 129 448 138 439 q 120 490 120 457 l 120 506 q 129 548 120 539 q 171 557 138 557 l 227 557 l 227 794 l 64 794 q 22 803 31 794 q 14 845 14 812 l 14 875 q 22 917 14 907 q 64 926 32 926 l 528 926 q 569 917 560 926 q 578 875 578 907 l 578 845 q 569 803 578 812 q 528 794 560 794 l 366 794 l 366 557 z "},"ŧ":{"ha":336,"x_min":32,"x_max":330,"o":"m 224 413 l 279 413 q 321 404 313 413 q 330 362 330 395 l 330 347 q 321 304 330 313 q 279 296 313 296 l 224 296 l 224 51 q 215 9 224 18 q 174 0 206 0 l 140 0 q 98 9 107 0 q 90 51 90 18 l 90 296 l 83 296 q 41 304 50 296 q 32 347 32 313 l 32 362 q 41 404 32 395 q 83 413 50 413 l 90 413 l 90 458 l 83 458 q 41 467 50 458 q 32 509 32 477 l 32 534 q 41 576 32 566 q 83 585 50 585 l 90 585 l 90 747 q 98 789 90 781 q 140 798 107 798 l 174 798 q 215 789 206 798 q 224 747 224 781 l 224 585 l 278 585 q 320 576 311 585 q 329 534 329 566 l 329 509 q 320 467 329 477 q 278 458 311 458 l 224 458 l 224 413 z "},"Ũ":{"ha":907,"x_min":111,"x_max":796,"o":"m 251 875 l 251 368 q 257 272 251 307 q 280 209 264 237 q 342 145 302 170 q 454 114 393 114 q 555 139 509 114 q 627 209 602 165 q 650 272 644 237 q 656 368 656 307 l 656 875 q 665 917 656 908 q 707 926 675 926 l 745 926 q 787 917 779 926 q 796 875 796 908 l 796 330 q 726 112 796 201 q 605 17 677 51 q 454 -18 533 -18 q 249 48 341 -18 q 111 330 111 146 l 111 875 q 120 917 111 908 q 162 926 129 926 l 200 926 q 242 917 233 926 q 251 875 251 908 m 648 1179 l 679 1152 q 692 1127 692 1141 q 670 1085 692 1112 q 544 1020 618 1020 q 499 1026 519 1020 q 435 1053 479 1032 q 352 1081 376 1081 q 304 1050 328 1081 q 278 1035 293 1035 q 262 1040 269 1035 l 231 1066 q 218 1090 218 1076 q 244 1137 218 1106 q 361 1198 294 1198 q 469 1166 408 1198 q 526 1139 515 1143 q 549 1135 536 1135 q 605 1172 578 1135 q 629 1185 614 1185 q 648 1179 640 1185 z "},"ũ":{"ha":669,"x_min":85,"x_max":585,"o":"m 220 534 l 220 249 q 237 156 220 186 q 335 104 266 104 q 422 139 394 104 q 450 249 450 174 l 450 534 q 458 576 450 566 q 500 585 467 585 l 534 585 q 576 576 567 585 q 585 534 585 566 l 585 246 q 571 135 585 177 q 523 56 557 92 q 335 -18 452 -18 q 147 56 218 -18 q 99 135 113 92 q 85 246 85 177 l 85 534 q 94 576 85 566 q 136 585 103 585 l 170 585 q 212 576 203 585 q 220 534 220 566 m 241 852 q 350 821 288 852 q 407 793 397 798 q 430 789 417 789 q 486 827 458 789 q 511 840 495 840 q 545 821 523 840 q 557 810 547 819 q 573 783 573 798 q 566 763 573 774 q 425 675 515 675 q 380 682 401 675 q 315 709 359 688 q 233 736 257 736 q 186 706 210 736 q 158 690 174 690 q 127 709 147 690 q 115 718 124 711 q 99 747 99 732 q 125 792 99 761 q 241 852 175 852 z "},"Ū":{"ha":907,"x_min":111,"x_max":796,"o":"m 251 875 l 251 368 q 257 272 251 307 q 280 209 264 237 q 342 145 302 170 q 454 114 393 114 q 555 139 509 114 q 627 209 602 165 q 650 272 644 237 q 656 368 656 307 l 656 875 q 665 917 656 908 q 707 926 675 926 l 745 926 q 787 917 779 926 q 796 875 796 908 l 796 330 q 726 112 796 201 q 605 17 677 51 q 454 -18 533 -18 q 249 48 341 -18 q 111 330 111 146 l 111 875 q 120 917 111 908 q 162 926 129 926 l 200 926 q 242 917 233 926 q 251 875 251 908 m 259 1159 l 648 1159 q 690 1150 682 1159 q 699 1108 699 1141 l 699 1101 q 690 1059 699 1069 q 648 1050 682 1050 l 259 1050 q 218 1059 227 1050 q 208 1101 208 1069 l 208 1108 q 218 1150 208 1141 q 259 1159 227 1159 z "},"ū":{"ha":669,"x_min":85,"x_max":585,"o":"m 220 534 l 220 249 q 237 156 220 186 q 335 104 266 104 q 422 139 394 104 q 450 249 450 174 l 450 534 q 458 576 450 566 q 500 585 467 585 l 534 585 q 576 576 567 585 q 585 534 585 566 l 585 246 q 571 135 585 177 q 523 56 557 92 q 335 -18 452 -18 q 147 56 218 -18 q 99 135 113 92 q 85 246 85 177 l 85 534 q 94 576 85 566 q 136 585 103 585 l 170 585 q 212 576 203 585 q 220 534 220 566 m 157 818 l 513 818 q 555 809 546 818 q 564 767 564 800 l 564 760 q 555 718 564 727 q 513 709 546 709 l 157 709 q 115 718 124 709 q 106 760 106 727 l 106 767 q 115 809 106 800 q 157 818 124 818 z "},"Ŭ":{"ha":907,"x_min":111,"x_max":796,"o":"m 251 875 l 251 368 q 257 272 251 307 q 280 209 264 237 q 342 145 302 170 q 454 114 393 114 q 555 139 509 114 q 627 209 602 165 q 650 272 644 237 q 656 368 656 307 l 656 875 q 665 917 656 908 q 707 926 675 926 l 745 926 q 787 917 779 926 q 796 875 796 908 l 796 330 q 726 112 796 201 q 605 17 677 51 q 454 -18 533 -18 q 249 48 341 -18 q 111 330 111 146 l 111 875 q 120 917 111 908 q 162 926 129 926 l 200 926 q 242 917 233 926 q 251 875 251 908 m 285 1206 l 301 1206 q 337 1202 330 1206 q 355 1176 345 1198 q 454 1116 385 1116 q 516 1132 492 1116 q 559 1188 539 1148 q 573 1203 564 1200 q 607 1206 581 1206 l 623 1206 q 659 1199 648 1206 q 670 1175 670 1192 q 657 1134 670 1160 q 627 1088 644 1109 q 454 1009 557 1009 q 281 1088 351 1009 q 251 1134 263 1109 q 238 1176 238 1160 q 249 1199 238 1192 q 285 1206 260 1206 z "},"ŭ":{"ha":669,"x_min":85,"x_max":585,"o":"m 220 534 l 220 249 q 237 156 220 186 q 335 104 266 104 q 422 139 394 104 q 450 249 450 174 l 450 534 q 458 576 450 566 q 500 585 467 585 l 534 585 q 576 576 567 585 q 585 534 585 566 l 585 246 q 571 135 585 177 q 523 56 557 92 q 335 -18 452 -18 q 147 56 218 -18 q 99 135 113 92 q 85 246 85 177 l 85 534 q 94 576 85 566 q 136 585 103 585 l 170 585 q 212 576 203 585 q 220 534 220 566 m 166 869 l 182 869 q 218 865 211 869 q 236 840 226 861 q 335 781 265 781 q 397 797 374 781 q 440 852 420 812 q 454 866 446 863 q 488 869 463 869 l 504 869 q 541 862 530 869 q 551 839 551 855 q 508 753 551 802 q 335 674 437 674 q 162 753 233 674 q 131 799 144 773 q 119 840 119 824 q 130 862 119 855 q 166 869 141 869 z "},"Ů":{"ha":907,"x_min":111,"x_max":796,"o":"m 251 875 l 251 368 q 257 272 251 307 q 280 209 264 237 q 342 145 302 170 q 454 114 393 114 q 555 139 509 114 q 627 209 602 165 q 650 272 644 237 q 656 368 656 307 l 656 875 q 665 917 656 908 q 707 926 675 926 l 745 926 q 787 917 779 926 q 796 875 796 908 l 796 330 q 726 112 796 201 q 605 17 677 51 q 454 -18 533 -18 q 249 48 341 -18 q 111 330 111 146 l 111 875 q 120 917 111 908 q 162 926 129 926 l 200 926 q 242 917 233 926 q 251 875 251 908 m 454 1272 q 547 1233 508 1272 q 585 1141 585 1195 q 547 1048 585 1086 q 454 1009 508 1009 q 361 1048 399 1009 q 323 1142 323 1086 q 362 1233 323 1195 q 454 1272 401 1272 m 454 1200 q 412 1182 429 1200 q 395 1140 395 1165 q 412 1098 395 1116 q 454 1081 430 1081 q 496 1098 479 1081 q 513 1141 513 1116 q 496 1182 513 1165 q 454 1200 479 1200 z "}}}
